{"glyphs":{"0":{"ha":797,"x_min":64,"x_max":732,"o":"m 732 581 l 732 410 q 709 218 732 298 q 641 86 685 138 q 535 11 596 35 q 399 -14 474 -14 q 288 2 340 -14 q 196 50 237 17 q 125 132 155 82 q 80 251 96 182 q 64 410 64 320 l 64 581 q 89 771 64 692 q 157 902 113 851 q 262 977 201 953 q 398 1001 323 1001 q 509 986 458 1001 q 602 939 560 970 q 672 857 643 907 q 717 738 701 807 q 732 581 732 669 m 536 384 l 536 607 q 531 701 536 661 q 513 769 525 741 q 485 814 502 797 q 446 840 468 832 q 398 848 425 848 q 339 836 365 848 q 296 794 314 823 q 270 720 279 766 q 260 607 260 673 l 260 384 q 266 290 260 330 q 284 220 272 249 q 312 173 296 191 q 351 147 329 155 q 399 139 373 139 q 457 152 432 139 q 501 194 483 165 q 528 270 519 223 q 536 384 536 317 z "},"1":{"ha":797,"x_min":114,"x_max":543,"o":"m 543 989 l 543 0 l 349 0 l 349 764 l 114 690 l 114 844 l 523 989 l 543 989 z "},"2":{"ha":797,"x_min":48,"x_max":743,"o":"m 743 153 l 743 0 l 68 0 l 68 130 l 387 473 q 463 567 435 526 q 504 641 491 608 q 516 704 516 674 q 501 781 516 749 q 457 831 486 813 q 387 849 429 849 q 310 827 342 849 q 261 766 277 805 q 244 679 244 728 l 48 679 q 90 841 48 767 q 209 958 132 914 q 391 1002 286 1002 q 566 968 494 1002 q 674 872 637 935 q 711 722 711 809 q 696 627 711 673 q 651 535 680 581 q 582 442 623 489 q 492 345 541 395 l 320 153 l 743 153 z "},"3":{"ha":797,"x_min":43,"x_max":731,"o":"m 268 578 l 372 578 q 455 596 422 578 q 504 645 488 613 q 519 718 519 676 q 505 786 519 756 q 460 832 490 815 q 385 849 431 849 q 319 834 349 849 q 270 794 288 820 q 252 732 252 768 l 56 732 q 99 873 56 813 q 217 968 143 934 q 380 1002 291 1002 q 555 969 480 1002 q 673 875 631 937 q 715 720 715 812 q 693 630 715 673 q 631 551 671 586 q 533 495 591 516 q 404 475 475 475 l 268 475 l 268 578 m 268 430 l 268 531 l 404 531 q 545 513 484 531 q 648 460 606 494 q 710 379 689 426 q 731 277 731 333 q 705 154 731 208 q 630 62 678 100 q 519 6 583 25 q 380 -14 455 -14 q 257 4 317 -14 q 149 56 197 21 q 72 144 100 91 q 43 271 43 197 l 239 271 q 258 203 239 233 q 310 156 277 173 q 385 139 344 139 q 466 156 432 139 q 517 205 499 174 q 535 279 535 237 q 515 366 535 333 q 459 414 496 399 q 372 430 422 430 l 268 430 z "},"4":{"ha":797,"x_min":39,"x_max":760,"o":"m 760 369 l 760 216 l 48 216 l 39 334 l 450 987 l 606 987 l 437 706 l 233 369 l 760 369 m 648 987 l 648 0 l 452 0 l 452 987 l 648 987 z "},"5":{"ha":797,"x_min":71,"x_max":739,"o":"m 252 450 l 96 487 l 152 987 l 707 987 l 707 829 l 313 829 l 288 610 q 348 635 308 622 q 437 648 388 648 q 565 626 509 648 q 660 561 621 604 q 719 456 699 518 q 739 317 739 395 q 719 192 739 251 q 657 86 699 132 q 553 13 616 39 q 406 -14 491 -14 q 282 5 342 -14 q 176 62 223 24 q 101 152 129 99 q 71 274 73 205 l 265 274 q 287 202 269 232 q 335 155 305 172 q 405 139 365 139 q 469 153 442 139 q 511 193 495 168 q 535 253 528 218 q 543 327 543 287 q 534 399 543 367 q 505 456 524 432 q 455 492 485 479 q 385 505 425 505 q 301 488 330 505 q 252 450 271 471 z "},"6":{"ha":797,"x_min":68,"x_max":749,"o":"m 572 998 l 600 998 l 600 842 l 589 842 q 451 819 511 842 q 349 753 391 795 q 285 651 307 711 q 263 517 263 591 l 263 353 q 274 260 263 300 q 304 193 284 220 q 351 153 324 166 q 412 139 378 139 q 470 153 444 139 q 515 192 496 167 q 544 250 534 216 q 553 323 553 283 q 544 397 553 363 q 515 456 534 431 q 469 494 496 481 q 408 508 441 508 q 327 487 361 508 q 272 432 292 465 q 251 362 252 399 l 192 400 q 214 499 194 452 q 270 582 234 546 q 355 639 305 618 q 469 660 406 660 q 590 633 538 660 q 678 561 643 607 q 731 454 713 515 q 749 326 749 394 q 725 192 749 254 q 658 84 702 130 q 553 12 614 38 q 416 -14 492 -14 q 274 15 338 -14 q 163 96 210 44 q 93 220 117 149 q 68 378 68 292 l 68 454 q 103 672 68 573 q 203 845 138 772 q 362 958 269 918 q 572 998 455 998 z "},"7":{"ha":797,"x_min":41,"x_max":739,"o":"m 739 987 l 739 882 l 357 0 l 151 0 l 532 835 l 41 835 l 41 987 l 739 987 z "},"8":{"ha":797,"x_min":64,"x_max":733,"o":"m 733 271 q 690 114 733 178 q 571 19 646 51 q 399 -14 495 -14 q 228 19 304 -14 q 108 114 152 51 q 64 271 64 178 q 89 384 64 333 q 159 470 114 434 q 265 526 204 507 q 398 545 326 545 q 570 511 494 545 q 690 416 646 477 q 733 271 733 354 m 536 283 q 519 362 536 329 q 471 412 502 395 q 398 430 439 430 q 326 412 357 430 q 277 362 294 395 q 260 283 260 329 q 277 206 260 239 q 326 156 294 174 q 399 139 357 139 q 472 156 441 139 q 520 206 503 174 q 536 283 536 239 m 712 726 q 672 592 712 650 q 561 502 632 534 q 399 469 490 469 q 237 502 308 469 q 125 592 165 534 q 85 726 85 650 q 126 877 85 815 q 237 970 166 938 q 398 1002 308 1002 q 561 970 490 1002 q 672 877 631 938 q 712 726 712 815 m 517 717 q 503 786 517 757 q 462 832 488 816 q 398 849 436 849 q 335 833 361 849 q 295 788 309 817 q 281 717 281 758 q 295 647 281 677 q 336 600 309 616 q 399 583 362 583 q 463 600 437 583 q 503 647 489 616 q 517 717 517 677 z "},"9":{"ha":797,"x_min":58,"x_max":726,"o":"m 206 149 l 219 149 q 359 169 300 149 q 456 227 418 189 q 512 320 494 264 q 530 446 530 375 l 530 633 q 520 727 530 686 q 490 794 509 768 q 445 835 471 821 q 389 848 420 848 q 332 832 357 848 q 289 789 307 817 q 263 727 272 762 q 254 654 254 692 q 262 582 254 616 q 289 522 271 548 q 333 480 307 496 q 395 465 359 465 q 457 478 430 465 q 504 513 485 492 q 534 562 524 535 q 545 615 545 588 l 609 580 q 589 486 609 532 q 532 402 568 440 q 448 342 496 365 q 347 320 401 320 q 224 346 277 320 q 133 416 170 371 q 77 522 96 461 q 58 652 58 582 q 82 787 58 724 q 149 899 105 850 q 254 974 193 947 q 391 1002 315 1002 q 528 972 466 1002 q 633 890 589 943 q 702 763 677 837 q 726 599 726 689 l 726 531 q 705 352 726 435 q 643 202 684 269 q 542 88 602 136 q 401 16 481 41 q 222 -9 321 -9 l 206 -9 l 206 149 z "},"\u0000":{"ha":0,"x_min":0,"x_max":0,"o":""},"\u0002":{"ha":0,"x_min":0,"x_max":0,"o":""},"\r":{"ha":345,"x_min":0,"x_max":0,"o":""}," ":{"ha":345,"x_min":0,"x_max":0,"o":""},"!":{"ha":376,"x_min":83,"x_max":302,"o":"m 296 987 l 274 302 l 111 302 l 88 987 l 296 987 m 83 90 q 113 162 83 133 q 193 191 143 191 q 273 162 243 191 q 302 90 302 133 q 273 18 302 47 q 193 -11 243 -11 q 113 18 143 -11 q 83 90 83 47 z "},"\"":{"ha":442,"x_min":42,"x_max":399,"o":"m 178 1042 l 178 949 l 152 673 l 42 673 l 42 940 l 42 1042 l 178 1042 m 399 1042 l 399 949 l 372 673 l 262 673 l 262 946 l 262 1042 l 399 1042 z "},"#":{"ha":823,"x_min":40,"x_max":797,"o":"m 146 0 l 318 987 l 441 987 l 269 0 l 146 0 m 400 0 l 573 987 l 696 987 l 523 0 l 400 0 m 797 591 l 91 591 l 91 705 l 797 705 l 797 591 m 745 278 l 40 278 l 40 392 l 745 392 l 745 278 z "},"$":{"ha":797,"x_min":62,"x_max":732,"o":"m 475 1144 l 475 944 l 370 944 l 370 1144 l 475 1144 m 463 37 l 463 -146 l 357 -146 l 357 37 l 463 37 m 537 259 q 523 325 537 298 q 478 373 509 352 q 395 414 448 394 q 240 486 307 448 q 136 582 174 524 q 99 727 99 639 q 139 873 99 811 q 250 968 179 935 q 415 1002 321 1002 q 545 980 487 1002 q 646 918 604 959 q 710 818 688 877 q 732 683 732 759 l 538 683 q 529 755 538 724 q 504 807 520 786 q 464 839 487 828 q 413 849 441 849 q 345 833 372 849 q 307 789 319 817 q 295 726 295 762 q 308 666 295 692 q 351 619 320 640 q 437 575 382 597 q 591 502 525 541 q 695 406 658 463 q 732 260 732 349 q 692 112 732 173 q 578 18 651 50 q 408 -14 505 -14 q 284 2 346 -14 q 172 56 222 19 q 92 156 122 94 q 62 309 62 218 l 258 309 q 270 226 258 259 q 304 174 283 193 q 353 146 326 155 q 408 138 380 138 q 480 154 452 138 q 523 197 508 170 q 537 259 537 224 z "},"%":{"ha":1027,"x_min":65,"x_max":966,"o":"m 65 745 l 65 798 q 90 900 65 854 q 161 974 114 946 q 278 1002 209 1002 q 397 974 349 1002 q 469 900 445 946 q 493 798 493 854 l 493 745 q 469 644 493 690 q 397 570 445 598 q 279 543 350 543 q 162 570 210 543 q 90 644 114 598 q 65 745 65 690 m 195 798 l 195 745 q 204 700 195 722 q 232 666 213 679 q 279 652 252 652 q 327 666 309 652 q 354 700 345 679 q 363 745 363 722 l 363 798 q 354 844 363 823 q 326 879 345 865 q 278 892 307 892 q 232 879 251 892 q 204 844 213 865 q 195 798 195 823 m 537 190 l 537 242 q 562 344 537 298 q 634 418 587 390 q 752 446 682 446 q 870 418 823 446 q 942 344 918 390 q 966 242 966 298 l 966 190 q 942 88 966 134 q 871 14 918 42 q 753 -14 823 -14 q 635 14 683 -14 q 562 88 587 42 q 537 190 537 134 m 667 242 l 667 190 q 678 144 667 165 q 708 109 689 122 q 753 96 728 96 q 804 109 786 96 q 830 144 823 122 q 837 190 837 165 l 837 242 q 827 288 837 267 q 799 322 818 309 q 752 336 781 336 q 705 322 724 336 q 677 288 686 309 q 667 242 667 267 m 800 846 l 318 75 l 223 125 l 705 897 l 800 846 z "},"&":{"ha":913,"x_min":48,"x_max":896,"o":"m 231 528 l 421 651 q 477 705 463 679 q 492 762 492 730 q 468 822 492 794 q 401 849 444 849 q 350 835 371 849 q 318 798 329 821 q 308 747 308 775 q 324 685 308 716 q 368 618 340 653 q 430 543 396 583 l 896 0 l 674 0 l 294 439 q 210 549 246 499 q 154 646 174 599 q 134 744 134 694 q 167 879 134 821 q 260 969 200 937 q 402 1002 321 1002 q 535 970 479 1002 q 622 887 591 939 q 653 774 653 836 q 636 689 653 728 q 589 617 619 650 q 521 556 559 584 l 304 402 q 267 357 279 379 q 249 314 254 334 q 244 276 244 294 q 261 205 244 237 q 309 156 278 174 q 380 138 339 138 q 488 163 435 138 q 581 234 540 188 q 647 342 623 279 q 671 481 671 406 l 837 481 q 822 337 837 406 q 774 211 807 269 q 686 109 741 153 q 674 99 682 105 q 663 89 667 92 q 527 11 597 37 q 370 -14 456 -14 q 198 22 271 -14 q 87 121 126 58 q 48 265 48 184 q 72 369 48 325 q 136 452 95 414 q 231 528 178 490 z "},"'":{"ha":224,"x_min":43,"x_max":186,"o":"m 186 1042 l 186 943 l 166 673 l 43 673 l 43 933 l 43 1042 l 186 1042 z "},"(":{"ha":486,"x_min":85,"x_max":458,"o":"m 85 387 l 85 401 q 115 661 85 545 q 195 866 145 778 q 304 1013 245 955 q 421 1097 363 1072 l 458 994 q 382 916 420 966 q 315 794 345 866 q 267 624 285 722 q 248 403 248 527 l 248 385 q 267 164 248 261 q 315 -6 285 66 q 382 -130 345 -79 q 458 -209 420 -180 l 421 -309 q 304 -225 363 -283 q 195 -79 245 -168 q 115 126 145 9 q 85 387 85 243 z "},")":{"ha":488,"x_min":27,"x_max":412,"o":"m 412 401 l 412 387 q 380 132 412 248 q 298 -74 349 16 q 186 -224 247 -164 q 65 -309 125 -283 l 27 -209 q 103 -130 66 -180 q 170 -7 140 -80 q 219 163 201 66 q 237 385 237 261 l 237 403 q 218 625 237 527 q 169 795 200 722 q 101 918 138 868 q 27 996 64 968 l 65 1097 q 186 1011 125 1072 q 298 862 247 951 q 380 656 349 772 q 412 401 412 540 z "},"*":{"ha":631,"x_min":18,"x_max":623,"o":"m 85 469 l 234 654 l 18 715 l 59 835 l 271 751 l 258 987 l 389 987 l 375 746 l 583 829 l 623 708 l 404 647 l 547 466 l 441 391 l 316 589 l 192 397 l 85 469 z "},"+":{"ha":757,"x_min":38,"x_max":715,"o":"m 715 550 l 715 380 l 38 380 l 38 550 l 715 550 m 469 818 l 469 99 l 284 99 l 284 818 l 469 818 z "},",":{"ha":342,"x_min":26,"x_max":261,"o":"m 261 165 l 260 34 q 223 -118 260 -41 q 127 -243 185 -195 l 26 -191 q 59 -129 43 -160 q 86 -60 75 -98 q 97 24 97 -23 l 97 165 l 261 165 z "},"-":{"ha":547,"x_min":78,"x_max":461,"o":"m 461 500 l 461 347 l 78 347 l 78 500 l 461 500 z "},".":{"ha":403,"x_min":85,"x_max":307,"o":"m 85 94 q 116 167 85 138 q 196 196 146 196 q 276 167 246 196 q 307 94 307 138 q 276 22 307 51 q 196 -7 246 -7 q 116 22 146 -7 q 85 94 85 51 z "},"/":{"ha":515,"x_min":-9,"x_max":498,"o":"m 498 987 l 136 -85 l -9 -85 l 353 987 l 498 987 z "},":":{"ha":391,"x_min":83,"x_max":304,"o":"m 83 94 q 114 167 83 138 q 194 196 144 196 q 274 167 244 196 q 304 94 304 138 q 274 22 304 51 q 194 -7 244 -7 q 114 22 144 -7 q 83 94 83 51 m 83 654 q 114 726 83 697 q 194 755 144 755 q 274 726 244 755 q 304 654 304 697 q 274 581 304 610 q 194 552 244 552 q 114 581 144 552 q 83 654 83 610 z "},";":{"ha":366,"x_min":40,"x_max":294,"o":"m 73 654 q 103 726 73 697 q 184 755 134 755 q 264 726 234 755 q 294 654 294 697 q 264 581 294 610 q 184 552 234 552 q 103 581 134 552 q 73 654 73 610 m 275 165 l 275 34 q 237 -118 275 -41 q 142 -243 199 -195 l 40 -191 q 73 -129 57 -160 q 100 -60 90 -98 q 111 24 111 -23 l 111 165 l 275 165 z "},"<":{"ha":708,"x_min":37,"x_max":623,"o":"m 191 437 l 623 281 l 623 97 l 37 345 l 37 475 l 191 437 m 623 564 l 191 406 l 37 369 l 37 499 l 623 747 l 623 564 z "},"=":{"ha":797,"x_min":92,"x_max":701,"o":"m 701 665 l 701 510 l 92 510 l 92 665 l 701 665 m 701 372 l 701 217 l 92 217 l 92 372 l 701 372 z "},">":{"ha":717,"x_min":81,"x_max":671,"o":"m 515 410 l 81 565 l 81 747 l 671 499 l 671 368 l 515 410 m 81 279 l 516 438 l 671 475 l 671 345 l 81 97 l 81 279 z "},"?":{"ha":691,"x_min":31,"x_max":642,"o":"m 409 302 l 236 302 q 246 407 237 363 q 278 488 255 452 q 338 559 300 524 q 394 613 370 587 q 431 666 418 639 q 445 728 445 694 q 433 793 445 767 q 398 833 421 819 q 339 846 374 846 q 285 834 310 846 q 244 795 260 821 q 227 728 228 770 l 31 728 q 74 881 33 821 q 184 971 115 942 q 339 1001 253 1001 q 502 970 434 1001 q 606 880 570 939 q 642 736 642 821 q 618 631 642 677 q 558 546 595 585 q 476 465 521 507 q 424 392 437 430 q 409 302 410 354 m 216 92 q 245 164 216 136 q 326 193 275 193 q 405 164 375 193 q 435 92 435 136 q 405 21 435 50 q 326 -8 375 -8 q 245 21 275 -8 q 216 92 216 50 z "},"@":{"ha":1245,"x_min":52,"x_max":1190,"o":"m 1186 363 q 1166 227 1183 294 q 1113 105 1148 159 q 1022 18 1077 51 q 889 -14 967 -14 q 810 1 845 -14 q 750 46 774 17 q 714 115 726 75 q 706 207 703 156 l 741 597 l 876 597 l 842 207 q 843 149 838 172 q 860 115 848 127 q 885 97 871 102 q 914 92 900 92 q 974 113 947 92 q 1021 169 1001 133 q 1052 253 1040 205 q 1065 358 1063 302 q 1056 525 1069 448 q 1011 662 1043 602 q 930 765 980 723 q 810 830 880 808 q 652 853 741 853 q 499 827 569 853 q 373 753 429 802 q 278 638 318 705 q 216 490 239 572 q 189 315 193 408 q 200 136 184 216 q 249 -6 215 55 q 335 -109 283 -68 q 455 -172 387 -151 q 608 -193 524 -193 q 728 -179 667 -193 q 831 -146 789 -166 l 857 -247 q 739 -292 810 -277 q 605 -307 668 -307 q 409 -281 497 -307 q 252 -204 320 -255 q 139 -77 184 -153 q 73 96 94 -2 q 56 315 52 195 q 91 524 61 426 q 172 703 121 623 q 296 841 224 783 q 458 930 368 899 q 655 961 549 961 q 847 933 761 961 q 999 853 934 905 q 1107 728 1064 802 q 1171 562 1151 654 q 1186 363 1190 470 m 501 292 q 502 212 498 247 q 517 154 506 178 q 548 118 529 130 q 592 106 566 106 q 623 114 606 106 q 658 138 640 121 q 691 185 675 155 q 718 261 707 215 l 776 193 q 737 103 760 142 q 685 39 714 65 q 621 1 655 14 q 546 -12 586 -12 q 458 9 496 -12 q 393 71 419 31 q 356 166 368 111 q 352 292 345 222 q 379 420 359 361 q 428 525 399 479 q 495 605 457 572 q 576 654 532 637 q 669 671 621 671 q 791 649 747 671 q 876 597 836 627 l 807 505 q 756 539 787 522 q 681 555 724 555 q 611 538 641 555 q 558 488 581 522 q 522 405 536 454 q 501 292 508 356 z "},"A":{"ha":933,"x_min":5,"x_max":930,"o":"m 490 819 l 221 0 l 5 0 l 372 987 l 509 987 l 490 819 m 713 0 l 444 819 l 422 987 l 561 987 l 930 0 l 713 0 m 701 368 l 701 208 l 179 208 l 179 368 l 701 368 z "},"B":{"ha":886,"x_min":88,"x_max":823,"o":"m 475 433 l 221 433 l 220 573 l 433 573 q 525 588 489 573 q 579 630 561 602 q 597 699 597 659 q 579 774 597 745 q 526 815 562 802 q 433 828 490 828 l 292 828 l 292 0 l 88 0 l 88 987 l 433 987 q 587 971 519 987 q 703 922 655 955 q 775 838 750 888 q 800 718 800 787 q 773 606 800 657 q 687 522 745 554 q 534 486 628 489 l 475 433 m 466 0 l 165 0 l 245 159 l 466 159 q 553 176 519 159 q 604 223 587 193 q 620 292 620 253 q 605 367 620 335 q 559 416 591 399 q 475 433 527 433 l 279 433 l 280 573 l 524 573 l 571 518 q 716 487 661 519 q 797 401 772 454 q 823 290 823 349 q 781 130 823 195 q 660 33 740 65 q 466 0 581 0 z "},"C":{"ha":909,"x_min":58,"x_max":865,"o":"m 661 328 l 863 328 q 809 151 857 228 q 674 30 760 73 q 466 -14 587 -14 q 296 19 371 -14 q 167 114 220 52 q 86 263 114 176 q 58 459 58 351 l 58 528 q 87 724 58 636 q 170 873 116 812 q 299 968 224 935 q 467 1002 374 1002 q 676 957 591 1002 q 808 833 761 912 q 865 654 855 755 l 662 654 q 637 756 658 714 q 576 819 617 798 q 467 840 535 840 q 378 821 416 840 q 315 764 340 802 q 276 666 289 725 q 264 529 264 608 l 264 459 q 275 325 264 382 q 311 227 287 267 q 373 167 335 187 q 466 147 412 147 q 571 168 530 147 q 634 228 612 188 q 661 328 656 268 z "},"D":{"ha":903,"x_min":88,"x_max":844,"o":"m 391 0 l 176 0 l 178 159 l 391 159 q 526 195 471 159 q 609 301 581 231 q 637 470 637 371 l 637 518 q 622 652 637 594 q 574 749 606 709 q 498 808 543 788 q 393 828 452 828 l 172 828 l 172 987 l 393 987 q 575 954 492 987 q 718 858 657 920 q 811 709 778 795 q 844 517 844 623 l 844 470 q 811 278 844 365 q 718 129 778 191 q 575 34 658 67 q 391 0 492 0 m 292 987 l 292 0 l 88 0 l 88 987 l 292 987 z "},"E":{"ha":781,"x_min":88,"x_max":751,"o":"m 751 159 l 751 0 l 225 0 l 225 159 l 751 159 m 292 987 l 292 0 l 88 0 l 88 987 l 292 987 m 682 585 l 682 431 l 225 431 l 225 585 l 682 585 m 750 987 l 750 828 l 225 828 l 225 987 l 750 987 z "},"F":{"ha":762,"x_min":88,"x_max":732,"o":"m 292 987 l 292 0 l 88 0 l 88 987 l 292 987 m 685 566 l 685 407 l 236 407 l 236 566 l 685 566 m 732 987 l 732 828 l 236 828 l 236 987 l 732 987 z "},"G":{"ha":947,"x_min":64,"x_max":871,"o":"m 871 516 l 871 125 q 800 65 848 97 q 675 9 751 33 q 492 -14 600 -14 q 317 18 396 -14 q 182 111 239 50 q 95 260 125 172 q 64 463 64 349 l 64 524 q 94 727 64 638 q 178 877 123 816 q 309 970 233 938 q 478 1002 385 1002 q 690 960 607 1002 q 816 845 772 918 q 870 676 860 771 l 673 676 q 644 764 665 726 q 584 822 623 801 q 484 843 545 843 q 393 822 433 843 q 326 762 353 802 q 285 663 299 722 q 271 526 271 604 l 271 463 q 286 326 271 385 q 330 226 300 267 q 403 165 359 186 q 504 145 446 145 q 584 153 552 145 q 636 173 616 161 q 667 196 656 185 l 667 371 l 481 371 l 481 516 l 871 516 z "},"H":{"ha":981,"x_min":88,"x_max":892,"o":"m 747 585 l 747 427 l 231 427 l 231 585 l 747 585 m 292 987 l 292 0 l 88 0 l 88 987 l 292 987 m 892 987 l 892 0 l 689 0 l 689 987 l 892 987 z "},"I":{"ha":406,"x_min":102,"x_max":304,"o":"m 304 987 l 304 0 l 102 0 l 102 987 l 304 987 z "},"J":{"ha":776,"x_min":28,"x_max":690,"o":"m 488 303 l 488 987 l 690 987 l 690 303 q 647 133 690 204 q 529 24 604 62 q 360 -14 454 -14 q 189 19 263 -14 q 71 119 114 52 q 28 290 28 186 l 233 290 q 248 204 233 236 q 292 159 263 172 q 360 145 320 145 q 427 163 399 145 q 472 217 456 182 q 488 303 488 252 z "},"K":{"ha":883,"x_min":88,"x_max":892,"o":"m 292 987 l 292 0 l 88 0 l 88 987 l 292 987 m 883 987 l 492 500 l 266 257 l 229 450 l 382 659 l 633 987 l 883 987 m 652 0 l 361 456 l 511 583 l 892 0 l 652 0 z "},"L":{"ha":751,"x_min":88,"x_max":723,"o":"m 723 159 l 723 0 l 226 0 l 226 159 l 723 159 m 292 987 l 292 0 l 88 0 l 88 987 l 292 987 z "},"M":{"ha":1216,"x_min":88,"x_max":1126,"o":"m 181 987 l 353 987 l 607 262 l 861 987 l 1033 987 l 676 0 l 538 0 l 181 987 m 88 987 l 260 987 l 291 281 l 291 0 l 88 0 l 88 987 m 954 987 l 1126 987 l 1126 0 l 923 0 l 923 281 l 954 987 z "},"N":{"ha":980,"x_min":88,"x_max":892,"o":"m 892 987 l 892 0 l 688 0 l 292 662 l 292 0 l 88 0 l 88 987 l 292 987 l 689 325 l 689 987 l 892 987 z "},"O":{"ha":958,"x_min":58,"x_max":899,"o":"m 899 517 l 899 470 q 869 268 899 357 q 783 116 838 178 q 650 20 727 53 q 479 -14 573 -14 q 310 20 387 -14 q 176 116 233 53 q 89 268 120 178 q 58 470 58 357 l 58 517 q 89 719 58 630 q 175 871 119 808 q 308 968 231 935 q 478 1001 385 1001 q 649 968 572 1001 q 782 871 726 935 q 868 719 838 808 q 899 517 899 630 m 694 470 l 694 518 q 680 656 694 597 q 637 757 665 716 q 570 818 610 798 q 478 839 530 839 q 387 818 427 839 q 320 757 347 798 q 278 656 292 716 q 264 518 264 597 l 264 470 q 278 332 264 392 q 320 231 292 272 q 388 169 348 190 q 479 148 428 148 q 571 169 531 148 q 638 231 611 190 q 680 332 665 272 q 694 470 694 392 z "},"P":{"ha":895,"x_min":88,"x_max":843,"o":"m 473 352 l 221 352 l 221 511 l 473 511 q 568 530 531 511 q 621 584 604 549 q 638 662 638 618 q 621 744 638 706 q 568 805 604 782 q 473 828 531 828 l 292 828 l 292 0 l 88 0 l 88 987 l 473 987 q 672 946 589 987 q 799 831 755 904 q 843 663 843 758 q 799 498 843 568 q 672 390 755 428 q 473 352 589 352 z "},"Q":{"ha":958,"x_min":57,"x_max":899,"o":"m 625 146 l 892 -65 l 764 -176 l 500 35 l 625 146 m 899 517 l 899 470 q 868 268 899 357 q 782 116 838 178 q 649 20 726 53 q 479 -14 572 -14 q 309 20 386 -14 q 175 116 231 53 q 88 268 119 178 q 57 470 57 357 l 57 517 q 88 719 57 630 q 174 871 119 808 q 307 968 230 935 q 477 1001 385 1001 q 648 968 571 1001 q 781 871 725 935 q 868 719 838 808 q 899 517 899 630 m 693 470 l 693 518 q 679 656 693 597 q 636 757 664 716 q 569 818 609 798 q 477 839 529 839 q 386 818 426 839 q 318 757 346 798 q 277 656 291 716 q 263 518 263 597 l 263 470 q 277 332 263 392 q 319 231 291 272 q 387 169 347 190 q 479 148 427 148 q 570 169 530 148 q 637 231 610 190 q 679 332 665 272 q 693 470 693 392 z "},"R":{"ha":890,"x_min":88,"x_max":858,"o":"m 88 987 l 456 987 q 651 954 570 987 q 777 853 733 920 q 821 690 821 787 q 794 554 821 610 q 719 459 768 497 q 606 399 671 422 l 541 366 l 221 366 l 220 524 l 458 524 q 547 543 511 524 q 600 596 582 562 q 618 675 618 630 q 600 757 618 722 q 547 810 583 791 q 456 828 511 828 l 292 828 l 292 0 l 88 0 l 88 987 m 640 0 l 415 440 l 630 441 l 858 9 l 858 0 l 640 0 z "},"S":{"ha":855,"x_min":47,"x_max":806,"o":"m 602 258 q 594 306 602 285 q 566 346 587 328 q 507 381 545 363 q 408 418 469 399 q 281 467 341 439 q 175 530 221 494 q 103 614 130 566 q 77 726 77 663 q 104 839 77 788 q 180 925 132 889 q 296 981 229 962 q 443 1001 363 1001 q 633 962 552 1001 q 760 854 715 922 q 805 697 805 785 l 603 697 q 585 773 603 741 q 531 826 567 806 q 439 845 494 845 q 351 829 387 845 q 298 786 316 812 q 281 726 281 759 q 293 680 281 701 q 331 642 306 660 q 393 609 356 625 q 477 578 429 593 q 620 524 558 554 q 722 455 681 493 q 785 369 764 417 q 806 260 806 321 q 781 144 806 195 q 708 58 755 94 q 595 5 661 23 q 448 -14 529 -14 q 303 6 374 -14 q 174 64 232 25 q 81 165 116 104 q 47 309 47 226 l 251 309 q 265 231 251 263 q 306 180 279 199 q 368 151 332 160 q 448 142 404 142 q 535 157 500 142 q 586 199 569 172 q 602 258 602 225 z "},"T":{"ha":861,"x_min":28,"x_max":833,"o":"m 530 987 l 530 0 l 327 0 l 327 987 l 530 987 m 833 987 l 833 828 l 28 828 l 28 987 l 833 987 z "},"U":{"ha":916,"x_min":79,"x_max":836,"o":"m 633 987 l 836 987 l 836 335 q 788 143 836 221 q 654 26 739 65 q 458 -14 569 -14 q 262 26 348 -14 q 128 143 176 65 q 79 335 79 221 l 79 987 l 283 987 l 283 335 q 304 227 283 269 q 365 165 325 184 q 458 145 404 145 q 553 165 514 145 q 613 227 592 184 q 633 335 633 269 l 633 987 z "},"V":{"ha":907,"x_min":5,"x_max":903,"o":"m 444 206 l 677 987 l 903 987 l 559 0 l 410 0 l 444 206 m 230 987 l 462 206 l 497 0 l 347 0 l 5 987 l 230 987 z "},"W":{"ha":1215,"x_min":24,"x_max":1193,"o":"m 326 157 l 523 987 l 633 987 l 658 849 l 448 0 l 330 0 l 326 157 m 225 987 l 388 157 l 374 0 l 243 0 l 24 987 l 225 987 m 831 160 l 991 987 l 1193 987 l 975 0 l 843 0 l 831 160 m 694 987 l 892 153 l 887 0 l 769 0 l 558 850 l 585 987 l 694 987 z "},"X":{"ha":882,"x_min":14,"x_max":867,"o":"m 256 987 l 441 643 l 627 987 l 860 987 l 573 498 l 867 0 l 633 0 l 441 351 l 250 0 l 14 0 l 310 498 l 22 987 l 256 987 z "},"Y":{"ha":860,"x_min":1,"x_max":858,"o":"m 224 987 l 430 537 l 636 987 l 858 987 l 533 359 l 533 0 l 327 0 l 327 359 l 1 987 l 224 987 z "},"Z":{"ha":843,"x_min":50,"x_max":802,"o":"m 802 159 l 802 0 l 102 0 l 102 159 l 802 159 m 792 874 l 193 0 l 50 0 l 50 117 l 654 987 l 792 987 l 792 874 m 722 987 l 722 828 l 50 828 l 50 987 l 722 987 z "},"[":{"ha":385,"x_min":82,"x_max":374,"o":"m 374 1147 l 374 1002 l 278 1002 l 278 -83 l 374 -83 l 374 -229 l 82 -229 l 82 1147 l 374 1147 z "},"\\":{"ha":585,"x_min":-1,"x_max":612,"o":"m 411 -85 l -1 987 l 200 987 l 612 -85 l 411 -85 z "},"]":{"ha":385,"x_min":9,"x_max":301,"o":"m 9 1002 l 9 1147 l 301 1147 l 301 -229 l 9 -229 l 9 -83 l 106 -83 l 106 1002 l 9 1002 z "},"^":{"ha":608,"x_min":31,"x_max":578,"o":"m 311 823 l 185 494 l 31 494 l 233 987 l 345 987 l 311 823 m 425 494 l 299 823 l 265 987 l 376 987 l 578 494 l 425 494 z "},"_":{"ha":618,"x_min":1,"x_max":616,"o":"m 616 0 l 616 -149 l 1 -149 l 1 0 l 616 0 z "},"`":{"ha":458,"x_min":38,"x_max":384,"o":"m 250 1042 l 384 833 l 224 833 l 38 1042 l 250 1042 z "},"a":{"ha":743,"x_min":45,"x_max":698,"o":"m 472 165 l 472 492 q 460 553 472 528 q 425 593 449 578 q 363 607 401 607 q 307 596 330 607 q 270 564 283 585 q 257 515 257 543 l 62 515 q 83 604 62 562 q 146 679 105 646 q 245 729 188 711 q 374 747 302 747 q 526 719 459 747 q 630 633 592 690 q 669 491 669 576 l 669 177 q 676 78 669 117 q 698 12 684 40 l 698 0 l 500 0 q 479 75 486 30 q 472 165 472 120 m 498 447 l 499 336 l 390 336 q 323 328 351 336 q 276 303 294 319 q 249 266 258 287 q 241 220 241 245 q 252 175 241 195 q 286 143 264 155 q 336 132 307 132 q 413 150 380 132 q 464 193 446 168 q 482 242 481 219 l 534 159 q 504 102 523 132 q 457 46 486 72 q 389 3 429 20 q 294 -14 349 -14 q 167 15 224 -14 q 78 93 111 43 q 45 206 45 142 q 66 309 45 264 q 131 384 88 353 q 237 431 173 415 q 385 447 300 447 l 498 447 z "},"b":{"ha":781,"x_min":76,"x_max":736,"o":"m 76 1042 l 271 1042 l 271 168 l 252 0 l 76 0 l 76 1042 m 736 374 l 736 360 q 719 210 736 278 q 665 91 701 141 q 576 14 629 41 q 451 -14 523 -14 q 335 14 384 -14 q 252 90 286 41 q 199 206 219 140 q 168 351 178 273 l 168 382 q 199 528 178 461 q 252 644 219 594 q 334 720 286 693 q 450 747 383 747 q 576 720 522 747 q 666 643 630 692 q 719 525 701 593 q 736 374 736 456 m 541 360 l 541 374 q 534 459 541 419 q 512 529 528 498 q 470 576 496 559 q 401 594 443 594 q 333 581 361 594 q 287 543 305 567 q 260 485 269 518 q 250 411 251 451 l 250 322 q 268 228 252 269 q 316 163 283 186 q 402 140 349 140 q 471 156 444 140 q 513 202 498 172 q 534 272 528 232 q 541 360 541 313 z "},"c":{"ha":724,"x_min":45,"x_max":687,"o":"m 379 139 q 443 153 415 139 q 487 192 471 167 q 503 252 503 218 l 687 252 q 646 115 686 175 q 536 21 605 55 q 383 -14 468 -14 q 234 15 298 -14 q 129 94 171 43 q 66 212 87 144 q 45 357 45 279 l 45 376 q 66 522 45 454 q 129 640 87 589 q 234 719 171 690 q 382 747 297 747 q 540 713 472 747 q 647 614 608 678 q 687 463 686 550 l 503 463 q 488 529 503 499 q 446 577 473 559 q 378 595 418 595 q 309 577 336 595 q 267 528 281 559 q 246 458 252 497 q 240 376 240 419 l 240 357 q 245 275 240 314 q 266 205 251 235 q 309 157 281 174 q 379 139 336 139 z "},"d":{"ha":782,"x_min":45,"x_max":706,"o":"m 509 160 l 509 1042 l 706 1042 l 706 0 l 529 0 l 509 160 m 45 358 l 45 372 q 64 525 45 456 q 120 644 83 594 q 210 720 157 693 q 332 747 264 747 q 445 720 397 747 q 528 643 494 693 q 583 526 562 593 q 614 378 604 458 l 614 347 q 583 205 604 271 q 528 90 562 139 q 445 14 494 41 q 331 -14 396 -14 q 209 14 262 -14 q 120 92 156 42 q 64 210 83 142 q 45 358 45 278 m 241 372 l 241 358 q 248 273 241 313 q 272 204 255 234 q 315 157 288 174 q 380 140 342 140 q 463 163 431 140 q 513 226 496 186 q 533 318 530 266 l 533 407 q 521 484 531 450 q 493 543 511 518 q 447 581 474 567 q 382 594 419 594 q 317 577 344 594 q 273 530 290 559 q 249 459 256 500 q 241 372 241 419 z "},"e":{"ha":750,"x_min":48,"x_max":715,"o":"m 414 -14 q 260 14 328 -14 q 145 90 193 41 q 73 204 98 139 q 48 342 48 269 l 48 369 q 72 522 48 452 q 140 642 96 591 q 248 720 184 692 q 392 747 312 747 q 530 722 470 747 q 632 648 591 696 q 694 535 673 601 q 715 388 715 469 l 715 307 l 132 307 l 132 437 l 523 437 l 523 452 q 508 525 523 492 q 465 576 494 557 q 390 595 435 595 q 323 578 351 595 q 278 530 296 561 q 253 459 261 500 q 244 369 244 418 l 244 342 q 257 260 244 298 q 293 196 269 223 q 350 154 316 169 q 426 139 383 139 q 525 160 479 139 q 604 222 570 180 l 699 119 q 636 56 675 86 q 541 6 596 25 q 414 -14 485 -14 z "},"f":{"ha":497,"x_min":19,"x_max":498,"o":"m 325 0 l 128 0 l 128 799 q 161 940 128 882 q 254 1026 194 997 q 397 1056 314 1056 q 449 1052 424 1056 q 498 1043 474 1048 l 496 896 q 469 901 483 899 q 435 902 454 902 q 375 890 400 902 q 338 855 351 878 q 325 799 325 832 l 325 0 m 471 734 l 471 595 l 19 595 l 19 734 l 471 734 z "},"g":{"ha":793,"x_min":47,"x_max":718,"o":"m 541 734 l 718 734 l 718 24 q 673 -146 718 -76 q 549 -253 629 -216 q 365 -289 470 -289 q 268 -277 319 -289 q 170 -239 216 -264 q 92 -174 123 -213 l 178 -58 q 257 -120 212 -98 q 356 -142 302 -142 q 446 -122 409 -142 q 502 -66 482 -103 q 522 23 522 -29 l 522 564 l 541 734 m 47 358 l 47 372 q 67 525 47 456 q 126 644 88 594 q 220 720 165 693 q 344 747 275 747 q 467 720 417 747 q 548 643 516 693 q 598 526 580 593 q 626 378 616 458 l 626 347 q 595 205 616 271 q 542 90 575 139 q 459 14 509 41 q 342 -14 410 -14 q 220 14 275 -14 q 127 92 165 42 q 67 210 88 142 q 47 358 47 278 m 242 372 l 242 358 q 251 273 242 313 q 278 204 260 234 q 325 157 297 174 q 392 140 353 140 q 479 163 446 140 q 530 226 513 186 q 550 318 547 266 l 550 407 q 538 484 549 450 q 510 543 528 518 q 463 581 492 567 q 393 594 433 594 q 327 577 355 594 q 280 530 298 559 q 252 459 261 500 q 242 372 242 419 z "},"h":{"ha":778,"x_min":71,"x_max":706,"o":"m 267 1042 l 267 0 l 71 0 l 71 1042 l 267 1042 m 239 393 l 185 393 q 205 534 186 469 q 262 647 225 599 q 350 721 298 694 q 463 747 401 747 q 562 732 517 747 q 638 683 606 717 q 688 595 671 650 q 706 464 706 541 l 706 0 l 509 0 l 509 465 q 495 542 509 514 q 455 582 481 570 q 391 594 429 594 q 320 578 349 594 q 273 535 290 563 q 247 471 255 508 q 239 393 239 435 z "},"i":{"ha":368,"x_min":74,"x_max":294,"o":"m 282 734 l 282 0 l 86 0 l 86 734 l 282 734 m 74 925 q 104 996 74 968 q 184 1023 134 1023 q 263 996 233 1023 q 294 925 294 968 q 263 854 294 882 q 184 827 233 827 q 104 854 134 827 q 74 925 74 882 z "},"j":{"ha":361,"x_min":-68,"x_max":291,"o":"m 87 734 l 283 734 l 283 -44 q 253 -182 283 -125 q 167 -267 223 -238 q 31 -296 111 -296 q -19 -294 5 -296 q -68 -285 -43 -291 l -68 -135 q -36 -139 -52 -138 q -5 -141 -21 -141 q 45 -131 25 -141 q 76 -99 66 -121 q 87 -44 87 -78 l 87 734 m 71 925 q 101 996 71 968 q 181 1023 132 1023 q 261 996 231 1023 q 291 925 291 968 q 261 854 291 882 q 181 827 231 827 q 101 854 132 827 q 71 925 71 882 z "},"k":{"ha":742,"x_min":76,"x_max":756,"o":"m 271 1042 l 271 0 l 76 0 l 76 1042 l 271 1042 m 734 734 l 415 370 l 244 197 l 173 338 l 309 511 l 499 734 l 734 734 m 531 0 l 314 339 l 449 457 l 756 0 l 531 0 z "},"l":{"ha":368,"x_min":86,"x_max":282,"o":"m 282 1042 l 282 0 l 86 0 l 86 1042 l 282 1042 z "},"m":{"ha":1203,"x_min":75,"x_max":1128,"o":"m 271 582 l 271 0 l 75 0 l 75 734 l 259 734 l 271 582 m 243 393 l 190 393 q 209 534 190 469 q 263 647 227 599 q 353 721 300 694 q 477 747 407 747 q 567 733 526 747 q 637 687 608 718 q 683 607 667 656 q 699 490 699 558 l 699 0 l 504 0 l 504 468 q 490 545 504 518 q 452 583 477 572 q 393 594 427 594 q 327 578 355 594 q 280 535 298 563 q 253 471 262 508 q 243 393 243 435 m 681 415 l 611 406 q 629 540 611 478 q 683 648 647 602 q 771 721 718 695 q 893 747 824 747 q 989 732 946 747 q 1064 684 1033 717 q 1111 598 1095 651 q 1128 469 1128 545 l 1128 0 l 932 0 l 932 469 q 919 546 932 519 q 881 584 905 573 q 822 594 856 594 q 760 580 787 594 q 716 542 734 566 q 690 485 699 517 q 681 415 681 453 z "},"n":{"ha":779,"x_min":72,"x_max":706,"o":"m 267 577 l 267 0 l 72 0 l 72 734 l 255 734 l 267 577 m 239 393 l 186 393 q 207 539 186 474 q 266 651 228 605 q 356 723 304 698 q 474 747 409 747 q 568 732 526 747 q 642 685 611 718 q 689 599 673 652 q 706 468 706 545 l 706 0 l 509 0 l 509 469 q 496 545 509 517 q 456 583 482 572 q 392 594 430 594 q 324 578 353 594 q 276 535 295 563 q 248 471 258 508 q 239 393 239 435 z "},"o":{"ha":784,"x_min":45,"x_max":740,"o":"m 45 359 l 45 374 q 68 523 45 454 q 135 641 91 591 q 243 719 179 691 q 391 747 308 747 q 540 719 475 747 q 649 641 605 691 q 717 523 694 591 q 740 374 740 454 l 740 359 q 717 211 740 279 q 649 93 694 143 q 541 14 605 42 q 393 -14 476 -14 q 244 14 309 -14 q 135 93 180 42 q 68 211 91 143 q 45 359 45 279 m 240 374 l 240 359 q 248 273 240 313 q 274 203 256 233 q 321 156 292 173 q 393 139 351 139 q 463 156 433 139 q 509 203 492 173 q 535 273 527 233 q 544 359 544 313 l 544 374 q 535 458 544 418 q 509 529 527 498 q 462 577 491 559 q 391 595 433 595 q 321 577 350 595 q 274 529 292 559 q 248 458 256 498 q 240 374 240 418 z "},"p":{"ha":781,"x_min":76,"x_max":736,"o":"m 271 593 l 271 -282 l 76 -282 l 76 734 l 257 734 l 271 593 m 736 375 l 736 361 q 717 212 736 281 q 663 93 699 144 q 573 15 627 43 q 451 -14 520 -14 q 334 14 384 -14 q 251 90 285 41 q 197 204 218 139 q 166 344 177 269 l 166 381 q 197 528 177 461 q 251 644 218 595 q 334 720 285 693 q 450 747 383 747 q 573 721 519 747 q 662 645 626 694 q 717 527 699 595 q 736 375 736 458 m 541 361 l 541 375 q 532 461 541 422 q 508 531 524 501 q 464 577 491 561 q 399 594 437 594 q 331 581 359 594 q 286 544 303 568 q 259 486 268 519 q 248 409 250 452 l 248 315 q 267 225 252 264 q 315 162 283 185 q 401 139 348 139 q 466 156 439 139 q 509 204 492 174 q 533 275 526 235 q 541 361 541 315 z "},"q":{"ha":783,"x_min":45,"x_max":706,"o":"m 509 -282 l 509 584 l 534 734 l 706 734 l 706 -282 l 509 -282 m 45 359 l 45 374 q 64 527 45 458 q 119 645 83 595 q 209 721 156 694 q 332 747 262 747 q 448 720 399 747 q 531 644 497 693 q 585 527 564 594 q 616 380 605 460 l 616 349 q 585 206 606 272 q 531 91 564 140 q 448 14 497 41 q 331 -14 399 -14 q 209 15 262 -14 q 119 93 156 43 q 64 211 83 143 q 45 359 45 279 m 241 374 l 241 359 q 248 274 241 314 q 272 204 256 235 q 315 156 289 174 q 380 139 342 139 q 467 162 434 139 q 516 227 500 186 q 534 319 532 267 l 534 408 q 523 485 532 451 q 496 544 514 519 q 450 582 478 568 q 382 595 422 595 q 317 578 344 595 q 273 531 290 561 q 249 460 256 500 q 241 374 241 420 z "},"r":{"ha":509,"x_min":76,"x_max":492,"o":"m 271 574 l 271 0 l 76 0 l 76 734 l 260 734 l 271 574 m 492 739 l 489 557 q 455 561 475 559 q 418 563 435 563 q 347 552 377 563 q 297 522 317 542 q 267 472 277 502 q 256 406 257 443 l 216 418 q 231 549 216 489 q 272 654 245 609 q 340 723 300 699 q 431 747 380 747 q 465 745 448 747 q 492 739 481 743 z "},"s":{"ha":713,"x_min":37,"x_max":663,"o":"m 473 203 q 460 241 473 224 q 415 272 448 258 q 321 299 382 287 q 217 330 265 311 q 135 375 170 349 q 80 438 100 401 q 60 521 60 474 q 80 608 60 567 q 138 680 100 648 q 230 729 176 711 q 353 747 285 747 q 518 717 449 747 q 624 633 587 686 q 661 512 661 580 l 465 512 q 453 563 465 541 q 417 599 441 586 q 353 612 392 612 q 296 601 320 612 q 260 571 273 590 q 248 530 248 553 q 255 500 248 513 q 278 476 262 487 q 320 456 294 465 q 385 439 347 447 q 527 397 465 423 q 626 327 589 371 q 663 210 663 282 q 641 121 663 161 q 578 50 619 80 q 481 3 538 20 q 354 -14 425 -14 q 181 23 252 -14 q 74 116 110 60 q 37 233 37 173 l 222 233 q 243 168 224 193 q 293 133 262 144 q 358 122 323 122 q 421 133 396 122 q 459 161 446 143 q 473 203 473 179 z "},"t":{"ha":470,"x_min":8,"x_max":444,"o":"m 435 734 l 435 595 l 8 595 l 8 734 l 435 734 m 114 915 l 309 915 l 309 221 q 318 172 309 189 q 343 149 326 155 q 386 142 360 142 q 419 144 404 142 q 444 148 433 146 l 444 4 q 390 -9 419 -4 q 326 -14 361 -14 q 213 8 261 -14 q 140 77 165 29 q 114 201 114 124 l 114 915 z "},"u":{"ha":778,"x_min":71,"x_max":705,"o":"m 510 176 l 510 734 l 705 734 l 705 0 l 522 0 l 510 176 m 532 326 l 589 328 q 572 192 589 254 q 522 83 555 129 q 436 12 488 37 q 315 -14 385 -14 q 216 2 261 -14 q 139 50 171 17 q 89 135 106 83 q 71 260 71 186 l 71 734 l 266 734 l 266 258 q 274 203 266 226 q 296 167 281 181 q 329 146 310 153 q 372 140 349 140 q 468 165 433 140 q 517 232 503 189 q 532 326 532 274 z "},"v":{"ha":703,"x_min":9,"x_max":692,"o":"m 326 142 l 488 734 l 692 734 l 445 0 l 321 0 l 326 142 m 214 734 l 377 142 l 380 0 l 256 0 l 9 734 l 214 734 z "},"w":{"ha":1020,"x_min":20,"x_max":998,"o":"m 286 190 l 438 734 l 562 734 l 522 520 l 370 0 l 266 0 l 286 190 m 208 734 l 317 191 l 328 0 l 205 0 l 20 734 l 208 734 m 702 199 l 808 734 l 998 734 l 812 0 l 690 0 l 702 199 m 579 734 l 731 194 l 752 0 l 648 0 l 495 519 l 456 734 l 579 734 z "},"x":{"ha":707,"x_min":15,"x_max":697,"o":"m 233 734 l 355 511 l 479 734 l 688 734 l 480 375 l 697 0 l 488 0 l 356 236 l 224 0 l 15 0 l 232 375 l 24 734 l 233 734 z "},"y":{"ha":699,"x_min":3,"x_max":698,"o":"m 294 83 l 488 734 l 698 734 l 403 -111 q 377 -170 393 -138 q 335 -231 361 -202 q 268 -278 308 -260 q 169 -296 227 -296 q 123 -293 141 -296 q 81 -283 106 -290 l 81 -140 q 97 -141 89 -140 q 113 -141 105 -141 q 176 -132 151 -141 q 215 -105 200 -123 q 239 -59 230 -87 l 294 83 m 212 734 l 372 202 l 399 -5 l 267 -19 l 3 734 l 212 734 z "},"z":{"ha":707,"x_min":50,"x_max":660,"o":"m 660 153 l 660 0 l 102 0 l 102 153 l 660 153 m 649 621 l 181 0 l 50 0 l 50 116 l 516 734 l 649 734 l 649 621 m 580 734 l 580 581 l 61 581 l 61 734 l 580 734 z "},"{":{"ha":458,"x_min":33,"x_max":435,"o":"m 397 1083 l 435 977 q 351 898 373 955 q 328 768 328 842 l 328 629 q 298 505 328 561 q 203 417 268 450 q 33 384 138 384 l 33 487 q 125 526 97 487 q 153 629 153 564 l 153 768 q 175 901 153 839 q 251 1010 197 963 q 397 1083 304 1057 m 435 -139 l 397 -245 q 251 -172 304 -219 q 175 -63 197 -125 q 153 71 153 -1 l 153 209 q 141 284 153 252 q 102 333 128 316 q 33 351 75 351 l 33 454 q 203 421 138 454 q 298 333 268 389 q 328 209 328 277 l 328 71 q 338 -21 328 21 q 371 -94 348 -63 q 435 -139 393 -124 z "},"|":{"ha":350,"x_min":118,"x_max":235,"o":"m 235 987 l 235 -183 l 118 -183 l 118 987 l 235 987 z "},"}":{"ha":458,"x_min":23,"x_max":425,"o":"m 23 977 l 61 1083 q 208 1010 155 1057 q 282 901 260 963 q 304 768 304 839 l 304 629 q 317 554 304 586 q 356 505 329 522 q 425 487 382 487 l 425 387 q 255 418 320 387 q 159 506 190 450 q 129 629 129 561 l 129 768 q 120 859 129 817 q 87 932 111 901 q 23 977 64 962 m 61 -245 l 23 -139 q 87 -94 64 -124 q 120 -21 111 -63 q 129 71 129 21 l 129 209 q 159 332 129 277 q 255 419 190 387 q 425 452 320 452 l 425 351 q 333 312 361 351 q 304 209 304 273 l 304 71 q 282 -63 304 -1 q 208 -172 260 -125 q 61 -245 155 -219 z "},"~":{"ha":900,"x_min":72,"x_max":827,"o":"m 683 538 l 827 537 q 810 422 827 474 q 764 334 794 371 q 693 277 734 297 q 602 257 652 257 q 505 279 547 257 q 413 347 462 300 q 359 390 385 375 q 306 405 334 405 q 259 389 279 405 q 228 345 239 373 q 217 282 217 317 l 72 283 q 88 398 72 347 q 134 486 104 450 q 205 541 164 522 q 296 559 246 559 q 395 537 350 559 q 486 470 440 514 q 540 427 515 441 q 592 412 564 412 q 639 429 618 412 q 671 473 659 445 q 683 538 683 502 z "},"¡":{"ha":393,"x_min":87,"x_max":307,"o":"m 93 -250 l 116 436 l 278 436 l 301 -250 l 93 -250 m 307 646 q 277 575 307 604 q 197 546 247 546 q 117 575 147 546 q 87 646 87 604 q 117 718 87 689 q 197 747 147 747 q 277 718 247 747 q 307 646 307 689 z "},"¢":{"ha":801,"x_min":68,"x_max":711,"o":"m 473 894 l 473 696 l 340 696 l 340 894 l 473 894 m 473 31 l 473 -166 l 340 -166 l 340 31 l 473 31 m 403 139 q 467 153 439 139 q 510 192 494 167 q 527 252 526 218 l 711 252 q 670 115 711 175 q 560 21 629 55 q 407 -14 492 -14 q 258 15 321 -14 q 153 94 195 43 q 90 212 111 144 q 68 357 68 279 l 68 376 q 90 522 68 454 q 153 640 111 589 q 258 719 195 690 q 406 747 321 747 q 564 713 496 747 q 671 614 632 678 q 711 463 711 550 l 527 463 q 512 529 526 499 q 470 577 497 559 q 402 595 442 595 q 332 577 359 595 q 290 528 305 559 q 270 458 275 497 q 264 376 264 419 l 264 357 q 270 275 264 314 q 290 205 275 235 q 333 157 305 174 q 403 139 360 139 z "},"£":{"ha":825,"x_min":67,"x_max":787,"o":"m 787 0 l 69 0 l 69 159 l 787 159 l 787 0 m 589 394 l 67 394 l 67 548 l 589 548 l 589 394 m 371 705 l 388 294 q 360 179 389 227 q 262 101 332 132 l 134 159 q 166 183 155 164 q 179 230 176 203 q 182 283 182 257 l 169 705 q 207 864 169 798 q 314 965 245 930 q 475 1000 383 1000 q 643 965 574 1000 q 747 867 711 930 q 783 720 783 804 l 589 720 q 574 792 589 765 q 532 830 558 819 q 475 842 507 842 q 421 827 445 842 q 385 781 398 811 q 371 705 371 750 z "},"¤":{"ha":962,"x_min":55,"x_max":913,"o":"m 201 412 q 223 295 201 349 q 283 199 245 240 q 373 136 322 159 q 482 113 424 113 q 591 136 541 113 q 681 199 642 159 q 741 295 719 240 q 762 412 762 349 q 741 530 762 475 q 681 625 719 584 q 591 688 642 665 q 482 711 541 711 q 373 688 424 711 q 283 625 322 665 q 223 530 245 584 q 201 412 201 475 m 79 412 q 110 580 79 503 q 197 715 142 657 q 326 805 252 772 q 482 837 399 837 q 639 805 566 837 q 768 715 712 772 q 854 580 823 657 q 886 412 886 503 q 854 245 886 322 q 768 110 823 168 q 639 19 712 52 q 482 -14 566 -14 q 326 19 399 -14 q 197 110 252 52 q 110 245 142 168 q 79 412 79 322 m 913 762 l 777 622 l 683 718 l 819 858 l 913 762 m 285 122 l 148 -18 l 55 78 l 192 217 l 285 122 m 819 -18 l 683 121 l 777 217 l 913 78 l 819 -18 m 192 622 l 55 762 l 148 857 l 285 718 l 192 622 z "},"¥":{"ha":745,"x_min":8,"x_max":736,"o":"m 667 502 l 667 387 l 60 387 l 60 502 l 667 502 m 667 305 l 667 191 l 60 191 l 60 305 l 667 305 m 326 481 l 526 987 l 736 987 l 462 380 l 350 380 l 326 481 m 219 987 l 422 475 l 396 380 l 283 380 l 8 987 l 219 987 m 471 515 l 471 0 l 269 0 l 269 515 l 471 515 z "},"¦":{"ha":349,"x_min":87,"x_max":262,"o":"m 262 -183 l 87 -183 l 87 355 l 262 355 l 262 -183 m 262 987 l 262 473 l 87 473 l 87 987 l 262 987 z "},"§":{"ha":873,"x_min":64,"x_max":800,"o":"m 459 93 l 459 188 q 539 203 507 188 q 590 244 572 218 q 607 306 607 271 q 597 350 607 330 q 565 385 587 369 q 503 417 542 401 q 406 451 465 433 q 270 496 330 472 q 168 554 210 521 q 104 633 126 587 q 82 744 82 679 q 107 850 82 802 q 178 931 132 897 q 289 983 224 965 q 434 1001 354 1001 q 622 968 543 1001 q 744 870 701 935 q 786 711 786 805 l 591 711 q 573 781 591 750 q 520 830 555 812 q 434 848 486 848 q 345 834 379 848 q 294 797 311 821 q 278 745 278 774 q 287 702 278 720 q 316 668 295 683 q 375 640 337 653 q 473 610 414 626 q 612 565 551 589 q 714 508 673 541 q 778 430 756 475 q 800 324 800 385 q 776 224 800 267 q 707 152 751 181 q 600 108 663 123 q 459 93 536 93 m 394 595 l 394 498 q 317 483 347 498 q 274 441 288 467 q 260 382 260 416 q 268 335 260 355 q 298 300 277 315 q 358 269 319 284 q 457 236 397 254 q 595 191 535 215 q 697 134 656 167 q 761 55 739 102 q 783 -56 783 9 q 758 -164 783 -117 q 686 -244 732 -212 q 576 -293 640 -276 q 432 -309 511 -309 q 298 -295 363 -309 q 179 -249 232 -281 q 95 -162 126 -216 q 64 -26 64 -107 l 259 -25 q 274 -90 259 -64 q 314 -130 289 -116 q 370 -150 339 -144 q 432 -156 401 -156 q 517 -143 483 -156 q 569 -109 551 -131 q 587 -57 587 -87 q 578 -16 587 -34 q 546 17 568 1 q 485 46 524 32 q 389 77 447 61 q 253 122 313 98 q 151 179 193 146 q 86 257 109 212 q 64 363 64 302 q 88 461 64 418 q 154 534 111 504 q 258 579 197 564 q 394 595 319 595 z "},"¨":{"ha":653,"x_min":66,"x_max":585,"o":"m 66 927 q 93 987 66 962 q 159 1012 119 1012 q 226 987 199 1012 q 252 927 252 962 q 226 867 252 892 q 159 843 199 843 q 93 867 119 843 q 66 927 66 892 m 399 926 q 425 987 399 962 q 492 1011 452 1011 q 558 987 532 1011 q 585 926 585 962 q 558 867 585 891 q 492 843 532 843 q 425 867 452 843 q 399 926 399 891 z "},"©":{"ha":1091,"x_min":60,"x_max":1023,"o":"m 654 405 l 758 405 q 697 245 758 298 q 532 192 636 192 q 406 225 459 192 q 325 317 353 258 q 296 454 296 376 l 296 534 q 325 671 296 612 q 406 763 353 730 q 532 796 459 796 q 697 743 636 796 q 759 584 759 690 l 655 584 q 624 678 655 650 q 532 707 593 707 q 458 685 488 707 q 413 624 429 663 q 398 534 398 585 l 398 454 q 413 365 398 404 q 458 303 429 326 q 532 281 488 281 q 624 310 593 281 q 654 405 654 338 m 141 494 q 172 328 141 405 q 258 192 203 250 q 386 102 313 134 q 541 70 458 70 q 696 102 624 70 q 824 192 768 134 q 910 328 879 250 q 941 494 941 405 q 910 662 941 585 q 824 796 879 739 q 696 886 768 854 q 541 918 624 918 q 386 886 458 918 q 258 796 313 854 q 172 662 203 739 q 141 494 141 585 m 60 494 q 97 694 60 602 q 201 856 134 787 q 354 963 267 924 q 541 1001 441 1001 q 728 963 641 1001 q 881 856 815 924 q 985 694 947 787 q 1023 494 1023 602 q 985 294 1023 387 q 881 133 947 202 q 728 25 815 64 q 541 -14 641 -14 q 354 25 441 -14 q 201 133 267 64 q 97 294 134 202 q 60 494 60 387 z "},"ª":{"ha":616,"x_min":94,"x_max":529,"o":"m 395 584 l 395 814 q 387 863 395 843 q 360 892 378 882 q 315 903 342 903 q 245 885 271 903 q 219 834 219 867 l 104 843 q 131 925 104 889 q 204 981 157 960 q 315 1001 252 1001 q 418 980 374 1001 q 487 918 462 959 q 511 814 511 876 l 511 601 q 515 538 511 568 q 529 478 519 508 l 412 478 q 395 584 395 528 m 424 780 l 425 702 l 326 702 q 260 691 286 702 q 222 663 234 680 q 210 626 210 646 q 230 581 210 597 q 291 565 250 565 q 348 578 319 565 q 396 609 376 591 q 415 644 415 627 l 427 566 q 396 522 417 544 q 342 484 375 499 q 262 469 309 469 q 137 511 181 469 q 94 623 94 553 q 119 708 94 673 q 196 762 144 743 q 325 780 247 780 l 424 780 z "},"«":{"ha":694,"x_min":52,"x_max":630,"o":"m 367 627 l 202 354 l 52 355 l 52 363 l 241 627 l 367 627 m 202 360 l 367 86 l 241 86 l 52 351 l 52 359 l 202 360 m 629 627 l 465 354 l 314 355 l 314 363 l 504 627 l 629 627 m 465 360 l 629 86 l 504 86 l 314 351 l 314 359 l 465 360 z "},"¬":{"ha":765,"x_min":85,"x_max":651,"o":"m 651 545 l 651 431 l 85 431 l 85 545 l 651 545 m 651 493 l 651 254 l 519 254 l 519 493 l 651 493 z "},"®":{"ha":1091,"x_min":60,"x_max":1022,"o":"m 557 444 l 412 444 l 410 533 l 535 533 q 593 542 566 533 q 635 569 619 551 q 652 612 652 587 q 641 665 652 646 q 603 693 629 684 q 532 702 576 702 l 442 702 l 442 214 l 342 214 l 342 791 l 532 791 q 648 771 599 791 q 725 711 698 751 q 751 614 751 672 q 734 549 751 577 q 684 500 717 520 q 604 467 652 479 q 599 462 602 467 q 595 458 597 458 q 580 448 583 451 q 574 444 577 445 q 557 444 571 444 m 551 444 l 565 516 q 710 469 671 516 q 749 349 749 421 l 749 311 q 751 263 749 286 q 760 225 754 241 l 760 214 l 658 214 q 650 264 651 232 q 649 312 649 297 l 649 349 q 627 420 649 397 q 551 444 604 444 m 140 494 q 172 328 140 405 q 258 192 203 250 q 385 102 313 134 q 541 70 458 70 q 696 102 624 70 q 823 192 768 134 q 909 328 878 250 q 941 494 941 405 q 909 662 941 585 q 823 796 878 739 q 696 886 768 854 q 541 918 624 918 q 385 886 458 918 q 258 796 313 854 q 172 662 203 739 q 140 494 140 585 m 60 494 q 97 694 60 602 q 201 856 134 787 q 354 963 267 924 q 541 1001 441 1001 q 728 963 641 1001 q 881 856 815 924 q 985 694 947 787 q 1022 494 1022 602 q 985 294 1022 387 q 881 133 947 202 q 728 25 815 64 q 541 -14 641 -14 q 354 25 441 -14 q 201 133 267 64 q 97 294 134 202 q 60 494 60 387 z "},"¯":{"ha":695,"x_min":115,"x_max":580,"o":"m 580 986 l 580 876 l 115 876 l 115 986 l 580 986 z "},"°":{"ha":541,"x_min":87,"x_max":452,"o":"m 87 815 q 112 908 87 866 q 179 976 137 951 q 271 1001 221 1001 q 362 976 321 1001 q 428 908 404 951 q 452 815 452 866 q 428 723 452 764 q 362 656 404 681 q 271 632 321 632 q 179 656 221 632 q 112 723 137 681 q 87 815 87 764 m 184 815 q 210 754 184 779 q 271 730 236 730 q 330 754 307 730 q 354 815 354 779 q 330 878 354 852 q 271 903 307 903 q 210 878 236 903 q 184 815 184 852 z "},"±":{"ha":746,"x_min":60,"x_max":681,"o":"m 681 635 l 681 477 l 60 477 l 60 635 l 681 635 m 458 871 l 458 227 l 287 227 l 287 871 l 458 871 m 663 155 l 663 1 l 76 1 l 76 155 l 663 155 z "},"²":{"ha":517,"x_min":39,"x_max":469,"o":"m 469 561 l 469 452 l 51 452 l 51 543 l 245 719 q 286 763 270 742 q 309 800 301 783 q 317 827 317 817 q 300 870 317 854 q 251 886 283 886 q 195 864 214 886 q 176 810 176 841 l 39 810 q 64 903 39 861 q 135 970 89 945 q 245 996 181 996 q 358 976 311 996 q 430 918 405 956 q 454 828 454 881 q 438 757 454 789 q 389 694 422 725 q 307 624 357 663 l 231 561 l 469 561 z "},"³":{"ha":517,"x_min":33,"x_max":470,"o":"m 185 770 l 245 770 q 289 778 272 770 q 314 800 306 786 q 323 832 323 814 q 307 869 323 852 q 250 886 290 886 q 201 875 221 886 q 180 843 180 863 l 43 843 q 71 926 43 892 q 146 978 100 960 q 245 996 192 996 q 358 978 309 996 q 433 926 406 960 q 460 842 460 892 q 435 771 460 801 q 366 726 410 742 q 268 711 323 711 l 185 711 l 185 770 m 185 680 l 185 738 l 268 738 q 373 725 328 738 q 444 683 418 712 q 470 602 470 653 q 440 517 470 553 q 360 464 411 482 q 245 445 309 445 q 147 461 196 445 q 65 514 98 477 q 33 612 33 551 l 172 612 q 194 572 172 589 q 254 554 216 554 q 314 572 296 554 q 332 615 332 590 q 322 653 332 639 q 292 674 311 667 q 245 680 273 680 l 185 680 z "},"´":{"ha":458,"x_min":68,"x_max":414,"o":"m 68 833 l 201 1042 l 414 1042 l 227 833 l 68 833 z "},"µ":{"ha":858,"x_min":95,"x_max":749,"o":"m 553 734 l 749 734 l 749 0 l 567 0 l 553 170 l 553 734 m 578 341 l 657 342 q 642 200 657 265 q 596 87 627 135 q 518 12 565 39 q 409 -14 471 -14 q 320 1 360 -14 q 251 51 281 17 q 203 136 222 84 l 185 313 l 290 313 q 299 226 290 260 q 324 173 308 192 q 363 148 340 155 q 414 140 386 140 q 492 155 460 140 q 543 197 524 170 q 570 261 562 224 q 578 341 578 298 m 95 734 l 290 734 l 290 -282 l 95 -282 l 95 734 z "},"¶":{"ha":679,"x_min":52,"x_max":589,"o":"m 589 0 l 444 0 l 444 353 l 386 353 q 204 394 278 353 q 91 507 130 435 q 52 670 52 578 q 91 833 52 761 q 204 946 130 905 q 386 987 278 987 l 589 987 l 589 0 z "},"·":{"ha":419,"x_min":96,"x_max":317,"o":"m 96 474 q 126 547 96 517 q 207 576 156 576 q 287 547 257 576 q 317 474 317 517 q 287 402 317 431 q 207 373 257 373 q 126 402 156 373 q 96 474 96 431 z "},"¸":{"ha":373,"x_min":66,"x_max":329,"o":"m 87 5 l 234 5 l 227 -35 q 297 -68 265 -42 q 329 -153 329 -94 q 314 -218 329 -189 q 269 -268 298 -247 q 194 -301 239 -290 q 91 -312 149 -312 l 86 -203 q 125 -197 108 -203 q 153 -179 143 -191 q 163 -146 163 -166 q 153 -116 163 -127 q 122 -100 143 -105 q 66 -92 100 -94 l 87 5 z "},"¹":{"ha":517,"x_min":93,"x_max":358,"o":"m 358 986 l 358 452 l 220 452 l 220 829 l 93 800 l 93 905 l 345 986 l 358 986 z "},"º":{"ha":635,"x_min":81,"x_max":549,"o":"m 81 708 l 81 761 q 110 885 81 831 q 191 970 138 939 q 315 1001 243 1001 q 440 970 388 1001 q 521 885 492 939 q 549 761 549 831 l 549 708 q 521 584 549 638 q 440 499 492 530 q 316 468 389 468 q 191 499 244 468 q 110 584 138 530 q 81 708 81 638 m 197 761 l 197 708 q 210 635 197 667 q 250 584 223 603 q 316 566 276 566 q 381 584 355 566 q 420 635 408 603 q 433 708 433 667 l 433 761 q 420 833 433 801 q 381 884 407 865 q 315 903 355 903 q 249 884 275 903 q 210 833 223 865 q 197 761 197 801 z "},"»":{"ha":694,"x_min":58,"x_max":640,"o":"m 58 86 l 223 360 l 374 359 l 374 351 l 184 86 l 58 86 m 58 627 l 184 627 l 374 363 l 374 355 l 223 354 l 58 627 m 324 86 l 489 360 l 640 359 l 640 351 l 450 86 l 324 86 m 324 627 l 450 627 l 640 363 l 640 355 l 489 354 l 324 627 z "},"¼":{"ha":995,"x_min":70,"x_max":941,"o":"m 336 984 l 336 450 l 198 450 l 198 827 l 71 798 l 71 903 l 323 984 l 336 984 m 791 852 l 309 80 l 215 130 l 697 902 l 791 852 m 941 220 l 941 109 l 507 109 l 499 198 l 742 535 l 850 535 l 732 353 l 631 220 l 941 220 m 880 535 l 880 0 l 743 0 l 743 535 l 880 535 z "},"½":{"ha":1054,"x_min":58,"x_max":1000,"o":"m 763 852 l 281 80 l 186 130 l 669 902 l 763 852 m 323 987 l 323 454 l 186 454 l 186 830 l 58 801 l 58 906 l 311 987 l 323 987 m 999 109 l 999 0 l 581 0 l 581 91 l 774 267 q 815 310 800 290 q 839 348 831 331 q 846 375 846 364 q 830 418 846 401 q 781 434 813 434 q 725 411 743 434 q 706 357 706 389 l 568 357 q 593 450 568 408 q 665 518 618 492 q 774 543 711 543 q 888 523 841 543 q 959 466 935 503 q 984 376 984 429 q 968 304 984 336 q 919 241 951 273 q 836 172 886 210 l 761 109 l 999 109 z "},"¾":{"ha":1124,"x_min":64,"x_max":1052,"o":"m 903 852 l 420 80 l 326 130 l 808 902 l 903 852 m 1052 220 l 1052 109 l 618 109 l 610 198 l 853 535 l 962 535 l 843 353 l 742 220 l 1052 220 m 991 535 l 991 0 l 854 0 l 854 535 l 991 535 m 216 770 l 277 770 q 320 778 303 770 q 346 800 337 786 q 354 832 354 814 q 338 869 354 852 q 281 886 321 886 q 232 875 252 886 q 212 843 212 863 l 74 843 q 102 926 74 892 q 177 978 131 960 q 277 996 223 996 q 389 978 340 996 q 465 926 437 960 q 492 842 492 892 q 466 771 492 801 q 397 726 441 742 q 299 711 354 711 l 216 711 l 216 770 m 216 680 l 216 738 l 299 738 q 404 725 359 738 q 475 683 450 712 q 501 602 501 653 q 472 517 501 553 q 391 464 442 482 q 277 445 340 445 q 178 461 227 445 q 97 514 129 477 q 64 612 64 551 l 203 612 q 225 572 203 589 q 286 554 248 554 q 345 572 327 554 q 363 615 363 590 q 353 653 363 639 q 323 674 342 667 q 277 680 304 680 l 216 680 z "},"¿":{"ha":692,"x_min":48,"x_max":661,"o":"m 279 438 l 452 438 q 444 333 452 377 q 414 255 435 290 q 354 184 393 220 q 298 129 323 155 q 259 73 273 102 q 244 5 244 43 q 257 -58 244 -33 q 294 -95 270 -83 q 349 -106 317 -106 q 406 -94 380 -106 q 448 -55 432 -81 q 465 13 464 -28 l 661 13 q 618 -141 659 -80 q 508 -232 577 -202 q 353 -261 439 -261 q 190 -231 258 -261 q 85 -141 121 -200 q 48 4 48 -82 q 72 111 48 64 q 135 199 96 158 q 218 280 174 239 q 257 327 244 304 q 275 376 270 349 q 279 438 279 404 m 478 647 q 448 575 478 604 q 368 547 418 547 q 288 575 318 547 q 258 647 258 604 q 288 719 258 690 q 368 748 318 748 q 448 719 418 748 q 478 647 478 690 z "},"Æ":{"ha":1303,"x_min":4,"x_max":1262,"o":"m 675 882 l 233 0 l 4 0 l 534 987 l 659 987 l 675 882 m 743 391 l 743 229 l 235 229 l 235 391 l 743 391 m 1262 155 l 1262 0 l 766 0 l 766 155 l 1262 155 m 811 987 l 852 0 l 656 0 l 615 987 l 811 987 m 1166 585 l 1166 431 l 738 431 l 738 585 l 1166 585 m 1221 987 l 1221 833 l 724 833 l 724 987 l 1221 987 z "},"×":{"ha":737,"x_min":44,"x_max":688,"o":"m 159 136 l 44 247 l 572 786 l 687 675 l 159 136 m 573 136 l 45 675 l 159 786 l 688 247 l 573 136 z "},"Ø":{"ha":956,"x_min":63,"x_max":905,"o":"m 871 1029 l 227 -64 l 100 -64 l 745 1029 l 871 1029 m 905 517 l 905 470 q 874 268 905 357 q 788 116 844 178 q 655 20 732 53 q 485 -14 578 -14 q 346 8 411 -14 q 230 70 281 29 q 140 170 178 111 q 83 304 103 229 q 63 470 63 380 l 63 517 q 94 719 63 630 q 180 871 125 808 q 313 968 236 935 q 484 1001 391 1001 q 623 980 558 1001 q 739 917 687 958 q 828 817 791 876 q 885 683 865 758 q 905 517 905 608 m 699 470 l 699 518 q 690 631 699 581 q 662 721 680 682 q 618 786 644 760 q 558 825 592 812 q 484 839 525 839 q 392 818 431 839 q 325 757 352 798 q 283 656 297 716 q 269 518 269 597 l 269 470 q 278 357 269 408 q 306 267 288 306 q 350 201 323 228 q 410 161 376 175 q 485 148 444 148 q 576 169 536 148 q 643 231 616 190 q 685 332 671 272 q 699 470 699 392 z "},"Þ":{"ha":846,"x_min":90,"x_max":802,"o":"m 90 987 l 286 987 l 286 0 l 90 0 l 90 987 m 157 805 l 438 805 q 637 766 557 805 q 760 658 718 726 q 802 500 802 589 q 760 343 802 412 q 637 236 718 275 q 438 197 557 197 l 258 197 l 258 349 l 438 349 q 535 370 498 349 q 589 426 572 392 q 606 499 606 460 q 589 573 606 538 q 535 630 572 608 q 438 652 498 652 l 286 652 l 157 805 z "},"ß":{"ha":878,"x_min":93,"x_max":831,"o":"m 288 745 l 288 0 l 93 0 l 93 748 q 115 882 93 825 q 179 979 137 940 q 280 1038 221 1018 q 414 1057 340 1057 q 558 1029 493 1057 q 661 947 623 1002 q 700 809 700 892 q 689 728 700 758 q 664 675 678 698 q 640 628 650 653 q 629 563 629 603 q 649 509 629 535 q 700 457 669 484 q 760 399 730 431 q 811 329 791 368 q 831 239 831 290 q 796 102 831 158 q 693 16 761 45 q 528 -14 625 -14 q 457 -8 494 -14 q 389 5 420 -3 q 339 26 358 14 l 376 176 q 436 151 397 163 q 524 139 475 139 q 585 151 560 139 q 624 184 610 163 q 637 235 637 206 q 616 295 637 269 q 565 346 595 321 q 505 399 535 371 q 453 465 474 427 q 433 555 433 503 q 444 630 433 600 q 470 683 455 659 q 495 733 484 706 q 506 799 506 760 q 492 855 506 831 q 455 892 479 879 q 399 905 431 905 q 340 890 366 905 q 301 840 315 875 q 288 745 288 804 z "},"æ":{"ha":1173,"x_min":45,"x_max":1138,"o":"m 493 124 l 493 479 q 481 541 493 515 q 445 581 469 567 q 385 595 420 595 q 320 583 347 595 q 279 551 293 571 q 264 506 264 531 l 69 519 q 92 610 69 569 q 156 683 114 652 q 256 730 197 713 q 388 747 315 747 q 544 717 477 747 q 646 627 610 687 q 683 478 683 568 l 683 148 l 493 124 m 522 440 l 524 316 l 384 316 q 305 301 337 316 q 257 263 273 287 q 241 213 241 239 q 253 168 241 187 q 291 137 266 148 q 355 126 316 126 q 414 136 384 126 q 469 163 444 146 q 509 199 494 180 q 525 235 524 218 l 616 132 q 561 65 599 98 q 461 9 522 31 q 318 -14 401 -14 q 169 15 230 -14 q 77 94 109 43 q 45 216 45 146 q 67 311 45 269 q 131 381 89 353 q 236 425 174 410 q 382 440 299 440 l 522 440 m 845 -14 q 695 12 760 -14 q 585 85 630 38 q 518 196 541 132 q 495 336 495 260 l 495 382 q 517 530 495 463 q 582 646 538 597 q 687 721 625 694 q 830 747 749 748 q 960 724 903 747 q 1056 658 1017 701 q 1117 554 1096 615 q 1138 416 1138 492 l 1138 309 l 576 309 l 576 437 l 945 437 l 945 456 q 933 528 945 497 q 896 577 921 559 q 830 595 870 595 q 763 579 791 595 q 717 534 734 563 q 692 466 700 505 q 684 382 684 427 l 684 336 q 694 258 684 294 q 726 196 705 222 q 783 154 748 169 q 867 139 818 139 q 982 156 937 139 q 1066 193 1027 173 l 1118 68 q 1054 32 1095 51 q 961 -1 1014 12 q 845 -14 907 -14 z "},"ð":{"ha":798,"x_min":58,"x_max":751,"o":"m 160 924 l 222 1072 q 435 992 338 1047 q 603 857 532 938 q 712 670 674 775 q 751 440 751 566 l 751 389 q 724 226 751 300 q 650 98 698 152 q 539 15 603 44 q 399 -14 475 -14 q 259 12 322 -14 q 152 83 197 37 q 82 188 106 128 q 58 317 58 248 q 78 456 58 394 q 138 563 99 518 q 234 631 178 608 q 363 655 291 655 q 502 622 440 655 q 602 530 564 588 q 644 399 640 472 l 574 401 q 564 438 574 418 q 533 474 554 457 q 481 501 513 491 q 407 511 450 511 q 340 498 369 511 q 292 459 311 484 q 263 398 273 434 q 253 317 253 363 q 263 249 253 281 q 292 192 273 217 q 339 153 311 168 q 401 139 366 139 q 468 157 439 139 q 515 205 496 174 q 544 279 534 237 q 554 371 554 321 l 554 441 q 522 631 554 549 q 433 770 489 712 q 307 866 378 829 q 160 924 237 904 m 671 947 l 288 703 l 237 779 l 619 1023 l 671 947 z "},"÷":{"ha":792,"x_min":43,"x_max":741,"o":"m 741 543 l 741 390 l 43 390 l 43 543 l 741 543 m 282 739 q 312 811 282 783 q 393 839 342 839 q 473 811 444 839 q 503 739 503 783 q 473 668 503 696 q 393 640 444 640 q 312 668 342 640 q 282 739 282 696 m 282 189 q 312 261 282 233 q 393 289 342 289 q 473 261 444 289 q 503 189 503 233 q 473 118 503 146 q 393 90 444 90 q 312 118 342 90 q 282 189 282 146 z "},"ø":{"ha":783,"x_min":45,"x_max":739,"o":"m 673 825 l 223 -96 l 115 -96 l 565 825 l 673 825 m 45 359 l 45 374 q 68 523 45 454 q 135 641 91 591 q 243 719 179 691 q 391 747 308 747 q 540 719 475 747 q 649 641 605 691 q 716 523 693 591 q 739 374 739 454 l 739 359 q 716 211 739 279 q 649 93 693 143 q 541 14 605 42 q 393 -14 476 -14 q 244 14 309 -14 q 135 93 180 42 q 68 211 91 143 q 45 359 45 279 m 240 374 l 240 359 q 248 273 240 313 q 274 203 256 233 q 321 156 292 173 q 393 139 351 139 q 463 156 433 139 q 509 203 492 173 q 535 273 527 233 q 544 359 544 313 l 544 374 q 535 458 544 418 q 509 529 527 498 q 462 577 491 559 q 391 595 433 595 q 321 577 350 595 q 274 529 292 559 q 248 458 256 498 q 240 374 240 418 z "},"þ":{"ha":786,"x_min":76,"x_max":736,"o":"m 273 1042 l 273 -282 l 76 -282 l 76 1042 l 273 1042 m 736 375 l 736 361 q 718 212 736 281 q 664 93 700 144 q 574 15 627 43 q 452 -14 522 -14 q 335 14 385 -14 q 252 90 286 41 q 198 204 218 139 q 168 344 178 269 l 168 381 q 198 528 178 461 q 252 644 219 595 q 334 720 286 693 q 450 747 383 747 q 574 721 520 747 q 664 645 627 694 q 718 527 700 595 q 736 375 736 458 m 541 361 l 541 375 q 533 461 541 422 q 509 531 526 501 q 466 577 492 561 q 400 594 439 594 q 332 581 360 594 q 287 544 304 568 q 259 486 269 519 q 249 409 250 452 l 249 315 q 260 245 251 277 q 287 189 269 213 q 333 152 305 165 q 401 139 361 139 q 467 156 440 139 q 510 204 494 174 q 534 275 526 235 q 541 361 541 315 z "},"đ":{"ha":875,"x_min":45,"x_max":811,"o":"m 509 160 l 509 1042 l 706 1042 l 706 0 l 529 0 l 509 160 m 45 358 l 45 372 q 64 525 45 456 q 120 644 83 594 q 210 720 157 693 q 332 747 264 747 q 445 720 397 747 q 528 643 494 693 q 583 526 562 593 q 614 378 604 458 l 614 347 q 583 205 604 271 q 528 90 562 139 q 445 14 494 41 q 331 -14 396 -14 q 209 14 262 -14 q 120 92 156 42 q 64 210 83 142 q 45 358 45 278 m 241 372 l 241 358 q 248 273 241 313 q 272 204 255 234 q 315 157 288 174 q 380 140 342 140 q 463 163 431 140 q 513 226 496 186 q 533 318 530 266 l 533 407 q 521 484 531 450 q 493 543 511 518 q 447 581 474 567 q 382 594 419 594 q 317 577 344 594 q 273 530 290 559 q 249 459 256 500 q 241 372 241 419 m 811 949 l 811 828 l 336 828 l 336 949 l 811 949 z "},"Ħ":{"ha":1000,"x_min":22,"x_max":985,"o":"m 985 826 l 985 711 l 22 711 l 22 826 l 985 826 m 757 585 l 757 427 l 241 427 l 241 585 l 757 585 m 302 987 l 302 0 l 98 0 l 98 987 l 302 987 m 902 987 l 902 0 l 699 0 l 699 987 l 902 987 z "},"ı":{"ha":379,"x_min":91,"x_max":287,"o":"m 287 734 l 287 0 l 91 0 l 91 734 l 287 734 z "},"ĸ":{"ha":821,"x_min":88,"x_max":794,"o":"m 283 734 l 283 0 l 88 0 l 88 734 l 283 734 m 783 734 l 447 275 l 249 275 l 226 455 l 345 455 l 535 734 l 783 734 m 544 0 l 342 310 l 512 404 l 794 0 l 544 0 z "},"Ł":{"ha":774,"x_min":20,"x_max":746,"o":"m 461 647 l 461 538 l 20 412 l 20 520 l 461 647 m 746 159 l 746 0 l 249 0 l 249 159 l 746 159 m 314 987 l 314 0 l 111 0 l 111 987 l 314 987 z "},"ł":{"ha":426,"x_min":20,"x_max":404,"o":"m 404 648 l 404 538 l 20 412 l 20 521 l 404 648 m 307 1042 l 307 0 l 111 0 l 111 1042 l 307 1042 z "},"Ŋ":{"ha":978,"x_min":87,"x_max":891,"o":"m 87 987 l 291 987 l 291 0 l 87 0 l 87 987 m 148 907 l 291 987 l 832 81 l 688 0 l 148 907 m 688 987 l 891 987 l 891 -22 q 860 -172 891 -111 q 769 -264 828 -233 q 628 -296 710 -296 q 578 -294 602 -296 q 528 -285 554 -292 l 537 -130 q 568 -135 553 -134 q 604 -137 584 -137 q 650 -124 631 -137 q 678 -85 669 -111 q 688 -22 688 -59 l 688 987 z "},"ŋ":{"ha":783,"x_min":73,"x_max":710,"o":"m 269 577 l 269 0 l 73 0 l 73 734 l 256 734 l 269 577 m 229 391 l 201 390 q 221 533 201 468 q 276 646 240 598 q 362 721 312 694 q 475 747 412 747 q 571 731 528 747 q 645 679 614 714 q 693 586 676 644 q 710 448 710 529 l 710 -26 q 679 -174 710 -113 q 590 -265 648 -234 q 451 -296 532 -296 q 402 -294 425 -296 q 353 -285 379 -292 l 362 -134 q 394 -140 378 -138 q 430 -142 411 -142 q 476 -129 457 -142 q 504 -90 494 -116 q 514 -26 514 -64 l 514 448 q 507 517 514 489 q 485 563 499 546 q 450 587 470 579 q 403 594 429 594 q 326 578 359 594 q 272 535 294 563 q 239 471 250 508 q 229 391 229 434 z "},"Œ":{"ha":1343,"x_min":66,"x_max":1275,"o":"m 475 1001 q 577 997 527 1001 q 673 987 627 993 l 673 830 q 578 843 629 838 q 475 848 528 848 q 386 833 426 848 q 318 786 347 817 q 276 707 290 754 q 261 598 261 661 l 261 391 q 276 281 261 328 q 319 202 291 234 q 387 155 347 171 q 477 139 427 139 q 579 144 529 139 q 673 157 629 149 l 673 0 q 578 -9 627 -5 q 477 -14 528 -14 q 310 16 385 -14 q 179 99 234 45 q 95 227 125 153 q 66 391 66 301 l 66 597 q 95 761 66 686 q 179 889 125 835 q 309 972 233 943 q 475 1001 384 1001 m 1275 159 l 1275 0 l 750 0 l 750 159 l 1275 159 m 816 987 l 816 0 l 612 0 l 612 987 l 816 987 m 1207 585 l 1207 431 l 750 431 l 750 585 l 1207 585 m 1274 987 l 1274 828 l 750 828 l 750 987 l 1274 987 z "},"œ":{"ha":1255,"x_min":56,"x_max":1203,"o":"m 907 -14 q 763 14 827 -14 q 653 90 699 41 q 584 204 608 138 q 559 346 559 269 l 559 373 q 582 522 559 454 q 648 641 605 590 q 752 720 690 692 q 890 747 814 748 q 1024 724 966 747 q 1122 657 1082 701 q 1182 553 1162 614 q 1203 417 1203 492 l 1203 309 l 643 309 l 643 439 l 1010 439 l 1010 456 q 998 528 1010 497 q 959 577 985 559 q 890 595 933 595 q 829 577 854 595 q 787 529 803 559 q 763 458 770 498 q 755 373 755 418 l 755 346 q 766 267 755 304 q 798 200 777 229 q 852 155 820 172 q 929 139 885 139 q 1047 155 1002 139 q 1134 193 1092 171 l 1186 71 q 1075 13 1146 39 q 907 -14 1003 -14 m 56 359 l 56 374 q 79 523 56 454 q 146 641 102 591 q 254 719 191 691 q 401 747 318 747 q 550 719 486 747 q 659 641 614 691 q 725 523 703 591 q 748 374 748 454 l 748 359 q 725 211 748 279 q 659 93 703 143 q 551 14 615 42 q 403 -14 486 -14 q 255 14 319 -14 q 146 93 191 42 q 79 211 102 143 q 56 359 56 279 m 252 374 l 252 359 q 260 273 252 313 q 286 203 268 233 q 332 156 303 173 q 403 139 361 139 q 473 156 444 139 q 519 203 502 173 q 545 273 537 233 q 553 359 553 313 l 553 374 q 545 458 553 418 q 519 529 537 498 q 472 577 501 559 q 401 595 443 595 q 332 577 360 595 q 286 529 303 559 q 260 458 268 498 q 252 374 252 418 z "},"ſ":{"ha":359,"x_min":79,"x_max":458,"o":"m 274 0 l 79 0 l 79 799 q 111 940 79 882 q 204 1026 143 997 q 349 1056 264 1056 q 404 1052 377 1056 q 458 1042 430 1048 l 441 897 q 412 902 427 900 q 374 903 397 903 q 320 891 342 903 q 286 856 298 879 q 274 799 274 832 l 274 0 z "},"Ə":{"ha":966,"x_min":52,"x_max":901,"o":"m 477 -14 q 294 18 374 -14 q 161 111 214 51 q 80 257 107 172 q 52 448 52 342 l 52 557 l 752 557 l 752 397 l 255 397 l 255 376 q 267 291 255 330 q 306 221 279 251 q 374 174 332 191 q 477 157 417 157 q 574 180 532 157 q 643 241 615 202 q 685 332 671 280 q 699 443 699 384 l 699 542 q 684 653 699 602 q 637 745 669 705 q 552 807 605 785 q 422 829 500 829 q 264 814 332 829 q 157 785 197 800 l 125 946 q 186 967 140 954 q 296 991 231 981 q 433 1002 360 1002 q 635 968 548 1002 q 782 872 723 934 q 871 727 841 811 q 901 542 901 643 l 901 443 q 868 258 901 342 q 779 113 836 174 q 644 19 722 52 q 477 -14 567 -14 z "},"ƒ":{"ha":501,"x_min":-26,"x_max":505,"o":"m 464 734 l 464 595 l 321 595 l 321 -35 q 291 -178 321 -120 q 205 -266 261 -236 q 73 -296 150 -296 q 23 -294 46 -296 q -26 -285 1 -292 l -16 -136 q 14 -141 -5 -138 q 46 -144 34 -144 q 93 -131 76 -144 q 118 -95 111 -119 q 125 -35 125 -71 l 125 595 l 16 595 l 16 734 l 125 734 l 125 799 q 158 940 125 882 q 250 1026 190 997 q 396 1056 311 1056 q 450 1052 423 1056 q 505 1042 477 1048 l 488 895 q 458 900 473 899 q 420 902 442 902 q 366 890 388 902 q 332 855 344 878 q 321 799 321 832 l 321 734 l 464 734 z "},"Ơ":{"ha":977,"x_min":56,"x_max":997,"o":"m 866 1063 l 997 1063 q 970 902 997 968 q 888 800 943 836 q 745 765 832 765 l 745 870 q 819 893 793 870 q 856 960 846 916 q 866 1063 866 1003 m 897 517 l 897 470 q 866 268 897 357 q 780 116 836 178 q 647 20 724 53 q 477 -14 570 -14 q 339 8 404 -14 q 222 70 274 29 q 133 170 170 111 q 76 304 96 229 q 56 470 56 380 l 56 517 q 86 719 56 630 q 173 871 117 808 q 306 968 229 935 q 476 1001 383 1001 q 615 980 550 1001 q 731 917 680 958 q 820 817 783 876 q 877 683 857 758 q 897 517 897 608 m 691 470 l 691 518 q 682 631 691 581 q 655 721 673 682 q 611 786 637 760 q 551 825 585 812 q 476 839 517 839 q 385 818 425 839 q 317 757 345 798 q 275 656 290 716 q 261 518 261 597 l 261 470 q 270 357 261 408 q 297 267 279 306 q 341 201 315 228 q 402 161 368 175 q 477 148 436 148 q 569 169 529 148 q 636 231 608 190 q 677 332 663 272 q 691 470 691 392 z "},"ơ":{"ha":807,"x_min":43,"x_max":817,"o":"m 701 804 l 817 804 q 792 664 817 722 q 714 575 768 606 q 576 545 661 545 l 576 627 q 653 649 627 627 q 690 710 680 671 q 701 804 701 749 m 43 359 l 43 374 q 66 523 43 454 q 134 641 90 591 q 243 719 178 691 q 391 747 307 747 q 539 719 474 747 q 648 641 604 691 q 715 523 692 591 q 739 374 739 454 l 739 359 q 715 211 739 279 q 648 93 692 143 q 539 14 604 42 q 392 -14 475 -14 q 243 14 309 -14 q 134 93 178 42 q 66 211 90 143 q 43 359 43 279 m 239 374 l 239 359 q 247 273 239 313 q 274 203 256 233 q 321 156 292 173 q 392 139 350 139 q 461 156 433 139 q 508 203 490 173 q 534 273 526 233 q 543 359 543 313 l 543 374 q 534 458 543 418 q 508 529 526 498 q 461 577 490 559 q 391 595 432 595 q 320 577 349 595 q 274 529 292 559 q 247 458 256 498 q 239 374 239 418 z "},"Ư":{"ha":989,"x_min":79,"x_max":1098,"o":"m 969 1042 l 1098 1042 q 1072 872 1098 943 q 984 765 1046 802 q 810 728 921 728 l 810 833 q 916 858 882 833 q 960 930 950 883 q 969 1042 969 977 m 633 987 l 836 987 l 836 335 q 788 143 836 221 q 654 26 739 65 q 458 -14 569 -14 q 262 26 348 -14 q 128 143 176 65 q 79 335 79 221 l 79 987 l 283 987 l 283 335 q 304 227 283 269 q 365 165 325 184 q 458 145 404 145 q 553 165 514 145 q 613 227 592 184 q 633 335 633 269 l 633 987 z "},"ư":{"ha":843,"x_min":71,"x_max":904,"o":"m 788 798 l 904 798 q 880 659 904 715 q 798 573 855 602 q 640 545 741 545 l 641 635 q 738 653 707 635 q 779 707 770 671 q 788 798 788 743 m 510 176 l 510 734 l 705 734 l 705 0 l 522 0 l 510 176 m 532 326 l 589 328 q 572 192 589 254 q 522 83 555 129 q 436 12 488 37 q 315 -14 385 -14 q 216 2 261 -14 q 139 50 171 17 q 89 135 106 83 q 71 260 71 186 l 71 734 l 266 734 l 266 258 q 274 203 266 226 q 296 167 281 181 q 329 146 310 153 q 372 140 349 140 q 468 165 433 140 q 517 232 503 189 q 532 326 532 274 z "},"ȷ":{"ha":391,"x_min":-60,"x_max":298,"o":"m 102 734 l 298 734 l 298 -26 q 267 -174 298 -113 q 177 -265 235 -234 q 39 -296 119 -296 q -10 -294 13 -296 q -60 -285 -33 -292 l -50 -136 q -18 -142 -34 -140 q 18 -144 -1 -144 q 63 -130 44 -144 q 92 -90 82 -117 q 102 -26 102 -64 l 102 734 z "},"ə":{"ha":734,"x_min":52,"x_max":695,"o":"m 347 748 q 492 721 428 748 q 602 645 557 694 q 671 531 647 596 q 695 389 695 465 l 695 361 q 672 213 695 281 q 607 94 650 144 q 503 15 564 43 q 364 -13 441 -14 q 231 11 289 -13 q 133 77 173 34 q 73 182 93 121 q 52 317 52 243 l 52 426 l 612 426 l 612 296 l 244 296 l 244 278 q 257 207 244 238 q 296 157 269 175 q 364 140 323 140 q 426 157 401 140 q 468 205 452 175 q 492 276 484 236 q 500 361 500 317 l 500 389 q 489 468 500 431 q 457 534 478 505 q 403 579 435 562 q 326 595 370 595 q 208 580 253 595 q 121 541 163 564 l 68 663 q 181 722 109 695 q 347 748 252 748 z "},"ˆ":{"ha":686,"x_min":82,"x_max":602,"o":"m 397 1042 l 602 853 l 602 845 l 446 845 l 340 944 l 235 845 l 82 845 l 82 855 l 283 1042 l 397 1042 z "},"ˇ":{"ha":652,"x_min":57,"x_max":591,"o":"m 224 1042 l 324 943 l 425 1042 l 591 1042 l 591 1035 l 387 845 l 262 845 l 57 1036 l 57 1042 l 224 1042 z "},"ˉ":{"ha":695,"x_min":115,"x_max":580,"o":"m 580 986 l 580 876 l 115 876 l 115 986 l 580 986 z "},"˘":{"ha":618,"x_min":72,"x_max":543,"o":"m 404 1034 l 543 1034 q 514 930 543 975 q 433 860 486 885 q 308 834 380 834 q 135 890 199 834 q 72 1034 72 945 l 210 1034 q 232 970 210 998 q 308 943 254 943 q 382 970 361 943 q 404 1034 404 998 z "},"˙":{"ha":368,"x_min":80,"x_max":281,"o":"m 80 932 q 107 998 80 972 q 180 1023 135 1023 q 253 998 226 1023 q 281 932 281 972 q 253 868 281 893 q 180 842 226 842 q 107 868 135 842 q 80 932 80 893 z "},"˚":{"ha":460,"x_min":81,"x_max":382,"o":"m 81 903 q 101 972 81 941 q 154 1023 120 1004 q 231 1042 188 1042 q 339 1001 296 1042 q 382 903 382 960 q 362 834 382 865 q 309 785 342 803 q 231 766 275 766 q 124 806 167 766 q 81 903 81 846 m 159 903 q 178 852 159 873 q 231 830 198 830 q 284 851 264 830 q 304 903 304 873 q 284 955 304 933 q 231 977 264 977 q 178 955 198 977 q 159 903 159 933 z "},"˛":{"ha":418,"x_min":23,"x_max":288,"o":"m 172 40 l 273 0 q 216 -38 239 -20 q 181 -77 193 -56 q 169 -123 169 -98 q 179 -154 169 -142 q 214 -167 189 -167 q 245 -162 233 -167 q 267 -153 258 -157 l 288 -256 q 244 -276 271 -267 q 176 -286 218 -286 q 68 -251 113 -286 q 23 -146 23 -215 q 37 -79 23 -112 q 83 -16 50 -46 q 172 40 115 14 z "},"˜":{"ha":665,"x_min":79,"x_max":589,"o":"m 476 1040 l 589 1032 q 569 942 589 983 q 515 878 549 902 q 435 854 480 854 q 379 863 403 854 q 336 883 356 871 q 296 904 317 895 q 249 913 275 913 q 209 896 225 913 q 192 847 192 879 l 79 853 q 98 943 79 902 q 153 1008 118 983 q 231 1033 187 1033 q 282 1024 259 1033 q 327 1003 305 1015 q 370 983 348 991 q 418 974 393 974 q 459 991 441 974 q 476 1040 476 1008 z "},"˝":{"ha":573,"x_min":39,"x_max":606,"o":"m 279 837 l 433 1041 l 606 1041 l 425 837 l 279 837 m 39 837 l 168 1041 l 339 1041 l 182 837 l 39 837 z "},"˳":{"ha":439,"x_min":99,"x_max":351,"o":"m 99 -157 q 136 -74 99 -106 q 227 -41 173 -41 q 315 -74 279 -41 q 351 -157 351 -106 q 315 -238 351 -206 q 227 -271 279 -271 q 136 -238 173 -271 q 99 -157 99 -206 m 176 -157 q 190 -193 176 -178 q 227 -207 205 -207 q 260 -193 247 -207 q 274 -157 274 -178 q 260 -119 274 -134 q 227 -104 247 -104 q 190 -119 205 -104 q 176 -157 176 -134 z "},"̀":{"ha":0,"x_min":-606,"x_max":-260,"o":"m -393 1042 l -260 833 l -420 833 l -606 1042 l -393 1042 z "},"́":{"ha":0,"x_min":-461,"x_max":-116,"o":"m -461 833 l -328 1042 l -116 1042 l -302 833 l -461 833 z "},"̃":{"ha":0,"x_min":-629,"x_max":-118,"o":"m -231 1040 l -118 1032 q -138 942 -118 983 q -192 878 -157 902 q -271 854 -227 854 q -327 863 -304 854 q -370 883 -351 871 q -411 904 -390 895 q -458 913 -431 913 q -498 896 -481 913 q -515 847 -515 879 l -628 853 q -608 943 -628 902 q -554 1008 -589 983 q -475 1033 -519 1033 q -425 1024 -448 1033 q -380 1003 -401 1015 q -336 983 -359 991 q -289 974 -314 974 q -248 991 -265 974 q -231 1040 -231 1008 z "},"̉":{"ha":0,"x_min":-501,"x_max":-238,"o":"m -340 858 l -488 858 l -498 949 q -444 956 -465 951 q -413 970 -423 961 q -404 994 -404 980 q -411 1018 -404 1008 q -431 1032 -418 1027 q -463 1039 -445 1037 q -501 1042 -480 1042 l -496 1131 q -385 1122 -433 1131 q -304 1096 -336 1114 q -255 1055 -271 1079 q -238 1000 -238 1030 q -270 930 -238 953 q -340 902 -302 907 l -340 858 z "},"̏":{"ha":0,"x_min":-707,"x_max":-117,"o":"m -349 849 l -510 849 l -707 1029 l -515 1029 l -349 849 m -117 849 l -275 849 l -441 1029 l -253 1029 l -117 849 z "},"̣":{"ha":0,"x_min":-516,"x_max":-296,"o":"m -516 -159 q -486 -94 -516 -120 q -406 -68 -456 -68 q -327 -94 -357 -68 q -296 -159 -296 -120 q -327 -224 -296 -198 q -406 -251 -357 -251 q -486 -224 -456 -251 q -516 -159 -516 -198 z "},"΄":{"ha":473,"x_min":151,"x_max":379,"o":"m 151 853 l 201 1086 l 379 1086 l 267 853 l 151 853 z "},"΅":{"ha":762,"x_min":72,"x_max":675,"o":"m 317 962 l 344 1183 l 519 1183 l 415 962 l 317 962 m 72 927 q 98 987 72 962 q 165 1012 125 1012 q 232 987 205 1012 q 258 927 258 962 q 232 867 258 892 q 165 843 205 843 q 98 867 125 843 q 72 927 72 892 m 488 926 q 514 987 488 962 q 581 1011 541 1011 q 648 987 621 1011 q 675 926 675 962 q 648 867 675 891 q 581 843 621 843 q 514 867 541 843 q 488 926 488 891 z "},"·":{"ha":419,"x_min":96,"x_max":317,"o":"m 96 474 q 126 547 96 517 q 207 576 156 576 q 287 547 257 576 q 317 474 317 517 q 287 402 317 431 q 207 373 257 373 q 126 402 156 373 q 96 474 96 431 z "},"Γ":{"ha":774,"x_min":89,"x_max":736,"o":"m 736 987 l 736 828 l 292 828 l 292 0 l 89 0 l 89 987 l 736 987 z "},"Δ":{"ha":1017,"x_min":15,"x_max":1009,"o":"m 570 903 l 228 0 l 15 0 l 408 987 l 519 987 l 570 903 m 795 0 l 455 909 l 507 987 l 620 987 l 1009 0 l 795 0 m 817 159 l 817 0 l 179 0 l 179 159 l 817 159 z "},"∆":{"ha":1017,"x_min":15,"x_max":1009,"o":"m 570 903 l 228 0 l 15 0 l 408 987 l 519 987 l 570 903 m 795 0 l 455 909 l 507 987 l 620 987 l 1009 0 l 795 0 m 817 159 l 817 0 l 179 0 l 179 159 l 817 159 z "},"Θ":{"ha":956,"x_min":56,"x_max":897,"o":"m 610 567 l 610 415 l 352 415 l 352 567 l 610 567 m 897 517 l 897 470 q 867 268 897 357 q 781 116 837 178 q 648 20 724 53 q 477 -14 571 -14 q 339 8 404 -14 q 222 70 274 29 q 133 170 170 111 q 76 304 96 229 q 56 470 56 380 l 56 517 q 87 719 56 630 q 173 871 117 808 q 306 968 229 935 q 476 1001 383 1001 q 615 980 551 1001 q 732 917 680 958 q 821 817 784 876 q 878 683 858 758 q 897 517 897 608 m 692 470 l 692 518 q 683 631 692 581 q 655 721 673 682 q 611 786 637 760 q 551 825 585 812 q 476 839 517 839 q 385 818 425 839 q 318 757 345 798 q 276 656 290 716 q 262 518 262 597 l 262 470 q 271 357 262 408 q 298 267 280 306 q 342 201 316 228 q 402 161 368 175 q 477 148 436 148 q 569 169 529 148 q 636 231 608 190 q 677 332 663 272 q 692 470 692 392 z "},"Λ":{"ha":899,"x_min":12,"x_max":886,"o":"m 471 796 l 231 0 l 12 0 l 342 987 l 490 987 l 471 796 m 666 0 l 425 799 l 407 987 l 555 987 l 886 0 l 666 0 z "},"Ξ":{"ha":787,"x_min":64,"x_max":732,"o":"m 64 0 l 64 159 l 732 159 l 732 0 l 64 0 m 143 423 l 143 576 l 653 576 l 653 423 l 143 423 m 81 828 l 81 987 l 701 987 l 701 828 l 81 828 z "},"Π":{"ha":982,"x_min":89,"x_max":892,"o":"m 892 987 l 892 0 l 690 0 l 690 828 l 292 828 l 292 0 l 89 0 l 89 987 l 892 987 z "},"Σ":{"ha":787,"x_min":49,"x_max":749,"o":"m 749 158 l 749 0 l 125 0 l 125 158 l 749 158 m 733 987 l 733 828 l 146 828 l 146 987 l 733 987 m 562 505 l 562 493 l 209 0 l 49 0 l 49 100 l 347 499 l 49 887 l 49 987 l 209 987 l 562 505 z "},"Φ":{"ha":1072,"x_min":51,"x_max":1030,"o":"m 620 113 l 460 113 q 293 139 368 113 q 164 215 218 165 q 80 333 109 264 q 51 487 51 402 q 102 690 51 604 q 246 825 154 777 q 459 873 338 873 l 621 873 q 787 846 711 873 q 916 768 862 819 q 1000 647 970 718 q 1030 488 1030 576 q 979 290 1030 375 q 835 159 927 205 q 620 113 743 113 m 460 283 l 621 283 q 733 307 686 283 q 805 376 779 330 q 830 488 830 422 q 815 581 830 541 q 774 648 801 621 q 708 689 747 675 q 622 703 670 703 l 459 703 q 348 678 395 703 q 275 606 301 654 q 250 487 250 558 q 264 399 250 437 q 307 335 279 361 q 373 296 334 309 q 460 283 412 283 m 643 987 l 643 0 l 439 0 l 439 987 l 643 987 z "},"Ψ":{"ha":1012,"x_min":36,"x_max":975,"o":"m 770 987 l 975 987 l 975 671 q 921 448 975 540 q 772 309 868 357 q 549 261 677 261 l 458 261 q 286 288 363 261 q 152 368 208 315 q 66 496 96 420 q 36 671 36 572 l 36 987 l 239 987 l 239 671 q 255 561 239 608 q 300 482 271 513 q 371 435 329 451 q 467 420 414 420 l 557 420 q 676 448 629 420 q 747 531 724 475 q 770 671 770 587 l 770 987 m 610 987 l 610 0 l 408 0 l 408 987 l 610 987 z "},"Ω":{"ha":933,"x_min":71,"x_max":852,"o":"m 625 524 l 625 585 q 614 695 625 648 q 581 775 603 743 q 529 824 559 808 q 460 840 498 840 q 392 824 422 840 q 341 775 362 808 q 308 695 319 743 q 297 585 297 648 l 297 524 q 307 377 297 439 q 334 271 317 315 q 375 201 351 228 q 427 163 399 175 l 427 66 q 298 112 362 73 q 183 212 235 150 q 101 353 132 273 q 71 524 71 433 l 71 583 q 99 752 71 675 q 179 884 127 828 q 302 970 231 939 q 460 1000 373 1000 q 620 970 548 1000 q 743 884 691 939 q 824 752 795 828 q 852 583 852 675 l 852 524 q 822 353 852 433 q 740 212 791 274 q 626 112 689 151 q 499 66 564 74 l 499 163 q 549 202 526 176 q 589 272 572 229 q 616 378 606 315 q 625 524 625 440 m 499 0 l 499 160 l 840 160 l 840 0 l 499 0 m 81 0 l 81 160 l 427 160 l 427 0 l 81 0 z "},"Ω":{"ha":933,"x_min":71,"x_max":852,"o":"m 625 524 l 625 585 q 614 695 625 648 q 581 775 603 743 q 529 824 559 808 q 460 840 498 840 q 392 824 422 840 q 341 775 362 808 q 308 695 319 743 q 297 585 297 648 l 297 524 q 307 377 297 439 q 334 271 317 315 q 375 201 351 228 q 427 163 399 175 l 427 66 q 298 112 362 73 q 183 212 235 150 q 101 353 132 273 q 71 524 71 433 l 71 583 q 99 752 71 675 q 179 884 127 828 q 302 970 231 939 q 460 1000 373 1000 q 620 970 548 1000 q 743 884 691 939 q 824 752 795 828 q 852 583 852 675 l 852 524 q 822 353 852 433 q 740 212 791 274 q 626 112 689 151 q 499 66 564 74 l 499 163 q 549 202 526 176 q 589 272 572 229 q 616 378 606 315 q 625 524 625 440 m 499 0 l 499 160 l 840 160 l 840 0 l 499 0 m 81 0 l 81 160 l 427 160 l 427 0 l 81 0 z "},"α":{"ha":783,"x_min":50,"x_max":779,"o":"m 50 348 l 50 362 q 69 517 50 446 q 124 639 87 587 q 214 719 160 690 q 337 747 267 747 q 424 729 385 747 q 491 677 462 711 q 540 597 519 644 q 574 494 560 551 q 595 373 587 437 l 595 343 q 567 201 586 267 q 517 88 548 136 q 442 13 487 39 q 336 -14 397 -14 q 213 13 267 -14 q 123 88 160 39 q 68 202 87 136 q 50 348 50 269 m 246 362 l 246 348 q 253 265 246 302 q 277 199 260 227 q 319 155 293 170 q 385 139 346 139 q 449 153 422 139 q 494 193 476 168 q 522 253 511 218 q 536 331 532 288 l 536 381 q 523 467 532 428 q 495 534 513 506 q 450 579 477 563 q 386 595 423 595 q 321 576 348 595 q 278 526 294 558 q 254 452 261 494 q 246 362 246 410 m 529 734 l 699 734 l 699 235 q 702 191 699 208 q 712 162 705 173 q 727 147 718 151 q 748 142 736 142 q 757 143 753 142 q 763 145 760 144 l 779 3 q 738 -11 758 -8 q 695 -14 718 -14 q 623 -2 655 -14 q 565 36 590 10 q 525 100 541 61 q 503 193 509 139 l 503 576 l 529 734 z "},"β":{"ha":836,"x_min":97,"x_max":787,"o":"m 378 545 l 471 545 q 642 513 571 545 q 749 421 712 480 q 787 281 787 362 q 750 121 787 187 q 646 21 714 56 q 485 -14 578 -14 q 376 2 431 -14 q 273 52 320 18 q 197 139 226 86 q 169 264 169 191 l 241 273 q 266 205 241 236 q 336 157 291 175 q 440 139 380 139 q 522 158 488 139 q 573 210 555 177 q 591 283 591 242 q 574 368 591 332 q 524 423 557 404 q 443 442 491 442 l 378 442 l 378 545 m 425 1001 q 593 969 522 1001 q 704 879 665 938 q 743 734 743 819 q 707 608 743 665 q 604 519 670 552 q 450 486 538 486 l 378 486 l 378 581 l 422 581 q 495 598 467 581 q 535 646 522 615 q 547 721 547 677 q 534 783 547 754 q 494 830 521 812 q 425 848 467 848 q 357 830 387 848 q 310 780 327 812 q 292 703 292 747 l 292 -275 l 97 -275 l 97 703 q 142 859 97 792 q 261 964 186 926 q 425 1001 335 1001 z "},"γ":{"ha":709,"x_min":11,"x_max":699,"o":"m 452 61 l 452 -283 l 256 -283 l 256 61 l 452 61 m 345 179 l 494 734 l 699 734 l 449 0 l 317 0 l 345 179 m 216 734 l 372 175 l 392 0 l 260 0 l 11 734 l 216 734 z "},"δ":{"ha":783,"x_min":45,"x_max":744,"o":"m 130 849 q 163 966 130 918 q 259 1040 197 1015 q 408 1066 321 1066 q 499 1058 462 1066 q 587 1035 536 1050 l 586 889 q 517 910 559 898 q 427 922 475 922 q 367 913 392 922 q 329 890 342 905 q 315 853 315 875 q 320 831 315 843 q 335 808 324 820 q 368 783 347 795 q 423 758 389 770 q 600 667 529 722 q 708 538 671 612 q 744 369 744 464 l 744 355 q 720 210 744 277 q 652 92 696 142 q 542 14 607 42 q 395 -14 477 -14 q 248 14 313 -14 q 137 90 182 41 q 69 204 92 138 q 45 346 45 269 l 45 359 q 75 500 45 437 q 154 606 104 564 q 260 663 203 649 l 258 667 q 190 714 219 687 q 145 774 161 741 q 130 849 130 808 m 241 377 l 241 363 q 250 277 241 317 q 278 205 259 236 q 326 156 297 174 q 395 138 355 138 q 464 156 435 138 q 511 205 492 174 q 539 277 530 236 q 549 363 549 317 l 549 377 q 538 449 549 413 q 507 515 527 484 q 459 567 487 546 q 396 595 431 589 q 327 578 357 595 q 279 530 298 560 q 250 460 260 500 q 241 377 241 421 z "},"ε":{"ha":774,"x_min":65,"x_max":728,"o":"m 356 399 l 523 399 l 523 311 l 397 311 q 325 302 356 311 q 277 274 294 294 q 260 221 260 254 q 269 187 260 203 q 294 158 277 170 q 337 137 311 145 q 395 130 362 130 q 471 142 441 130 q 517 174 502 154 q 533 217 533 194 l 728 217 q 701 114 728 157 q 627 42 673 70 q 523 0 581 14 q 406 -14 465 -14 q 272 1 334 -14 q 163 45 210 16 q 91 114 117 73 q 65 208 65 155 q 85 289 65 254 q 142 349 104 325 q 234 386 180 374 q 356 399 288 399 m 523 350 l 356 350 q 243 364 294 350 q 155 404 193 378 q 98 463 118 429 q 78 533 78 496 q 102 625 78 585 q 169 692 125 665 q 274 733 213 719 q 406 747 334 747 q 526 731 470 747 q 625 687 583 716 q 692 617 668 659 q 717 524 717 576 l 522 524 q 505 567 522 549 q 460 594 489 585 q 396 604 432 604 q 326 591 353 604 q 286 559 298 578 q 273 519 273 540 q 281 486 273 500 q 305 461 290 471 q 343 445 320 450 q 397 439 367 439 l 523 439 l 523 350 z "},"ζ":{"ha":692,"x_min":49,"x_max":654,"o":"m 533 987 l 654 987 l 654 880 l 408 587 q 334 488 364 534 q 288 394 303 442 q 273 287 273 347 q 280 233 273 255 q 302 196 288 211 q 338 171 317 181 q 387 153 359 161 l 438 137 q 541 102 497 121 q 610 51 585 83 q 635 -37 635 19 q 611 -119 635 -76 q 550 -201 587 -163 q 477 -264 514 -239 l 377 -190 q 413 -147 399 -168 q 434 -108 427 -126 q 440 -75 441 -90 q 434 -47 441 -60 q 411 -25 427 -35 q 365 -8 394 -16 l 315 5 q 209 44 254 22 q 135 98 164 67 q 93 168 106 128 q 79 258 79 208 q 100 398 79 332 q 161 529 121 464 q 261 665 202 594 l 533 987 m 49 987 l 567 987 l 567 836 l 49 836 l 49 987 z "},"η":{"ha":783,"x_min":73,"x_max":710,"o":"m 269 577 l 269 0 l 73 0 l 73 734 l 256 734 l 269 577 m 231 391 l 189 390 q 209 533 189 468 q 266 646 229 598 q 357 721 304 694 q 475 747 410 747 q 571 733 528 747 q 645 686 614 718 q 693 600 676 653 q 710 469 710 547 l 710 -282 l 514 -282 l 514 469 q 507 526 514 503 q 485 565 499 550 q 450 588 470 581 q 403 595 429 595 q 328 579 360 595 q 274 536 296 564 q 242 471 253 508 q 231 391 231 434 z "},"θ":{"ha":821,"x_min":77,"x_max":745,"o":"m 410 1001 q 521 985 470 1001 q 614 935 572 968 q 684 851 655 902 q 729 732 713 801 q 745 576 745 663 l 745 414 q 729 257 745 326 q 685 137 713 188 q 615 53 656 87 q 523 3 574 19 q 412 -14 471 -14 q 300 3 352 -14 q 208 53 249 19 q 138 137 167 87 q 93 257 109 188 q 77 414 77 326 l 77 576 q 93 732 77 663 q 137 851 109 801 q 207 935 166 902 q 299 985 248 968 q 410 1001 351 1001 m 410 848 q 352 834 378 848 q 309 790 326 820 q 282 714 291 760 q 273 603 273 667 l 273 570 l 549 570 l 549 603 q 543 694 549 654 q 526 764 537 734 q 497 811 514 793 q 458 839 480 830 q 410 848 437 848 m 412 139 q 459 148 437 139 q 497 177 481 157 q 526 225 514 196 q 543 295 537 255 q 549 388 549 336 l 549 423 l 273 423 l 273 388 q 278 295 273 336 q 296 225 284 255 q 325 177 308 196 q 363 148 342 157 q 412 139 385 139 z "},"ι":{"ha":467,"x_min":92,"x_max":422,"o":"m 92 734 l 288 734 l 288 227 q 296 178 288 195 q 321 154 304 161 q 364 148 338 148 q 397 150 382 148 q 422 153 411 151 l 422 10 q 368 -3 397 2 q 303 -8 338 -8 q 191 14 239 -8 q 118 83 144 35 q 92 208 92 130 l 92 734 z "},"λ":{"ha":762,"x_min":5,"x_max":758,"o":"m 374 479 l 216 0 l 5 0 l 278 753 l 412 750 l 374 479 m 195 1047 q 261 1039 232 1047 q 314 1016 291 1031 q 352 978 336 1000 q 378 929 368 956 l 661 216 q 679 179 669 196 q 702 152 688 163 q 733 142 715 142 q 745 142 739 142 q 756 142 751 142 l 758 -7 q 724 -11 743 -10 q 683 -12 706 -12 q 587 5 627 -12 q 522 56 548 22 q 479 138 496 90 l 295 652 l 218 831 q 196 868 209 854 q 167 888 184 882 q 129 894 151 894 q 110 893 119 894 q 88 892 100 893 l 84 1034 q 138 1043 106 1040 q 195 1047 170 1047 z "},"ξ":{"ha":739,"x_min":71,"x_max":696,"o":"m 659 968 l 628 820 q 568 834 593 829 q 522 843 543 840 q 474 845 500 845 q 389 832 422 845 q 340 798 356 820 q 325 746 325 776 q 334 704 325 724 q 361 671 342 685 q 409 649 379 657 q 479 642 438 642 l 581 642 l 581 532 l 477 532 q 335 546 399 532 q 225 586 271 559 q 154 652 179 613 q 130 743 130 692 q 152 851 130 804 q 217 932 175 899 q 319 983 260 966 q 452 1001 378 1001 q 532 997 498 1001 q 597 986 567 994 q 659 968 627 979 m 482 590 l 581 590 l 581 484 l 485 484 q 366 465 415 484 q 292 406 317 445 q 267 311 267 368 q 289 230 267 262 q 349 179 311 198 q 433 149 387 159 l 498 132 q 604 98 559 118 q 672 46 648 79 q 695 -40 696 13 q 671 -122 695 -79 q 611 -204 647 -165 q 537 -267 574 -242 l 436 -193 q 473 -150 458 -170 q 494 -112 487 -130 q 501 -77 501 -94 q 493 -51 501 -62 q 469 -29 486 -39 q 426 -12 452 -19 l 382 1 q 251 45 309 23 q 153 98 193 67 q 92 179 113 130 q 71 304 71 228 q 99 427 71 374 q 180 516 127 480 q 309 571 233 553 q 482 590 385 590 z "},"π":{"ha":897,"x_min":37,"x_max":870,"o":"m 854 734 l 854 589 l 37 589 l 37 734 l 854 734 m 353 734 l 353 0 l 157 0 l 157 734 l 353 734 m 541 734 l 736 734 l 736 227 q 744 178 736 195 q 770 154 753 161 q 812 148 787 148 q 845 150 831 148 q 870 153 859 151 l 870 10 q 816 -3 845 2 q 751 -8 787 -8 q 640 14 687 -8 q 566 83 592 35 q 541 208 541 130 l 541 734 z "},"ρ":{"ha":783,"x_min":77,"x_max":736,"o":"m 77 -282 l 77 393 q 100 536 77 471 q 166 649 123 602 q 272 722 210 696 q 412 747 334 747 q 552 719 492 747 q 653 639 612 690 q 715 517 694 587 q 736 362 736 446 l 736 348 q 718 202 736 269 q 663 87 699 136 q 574 12 627 39 q 452 -14 521 -14 q 339 12 387 -14 q 259 86 292 39 q 207 198 227 134 q 178 337 187 262 q 196 329 180 336 q 228 315 212 321 q 244 308 243 308 q 264 219 248 258 q 315 160 281 181 q 401 138 349 138 q 466 154 439 138 q 509 198 493 170 q 533 264 526 227 q 541 348 541 302 l 541 362 q 533 452 541 410 q 509 526 526 494 q 466 576 493 558 q 401 595 439 595 q 342 577 367 595 q 302 529 317 559 q 279 459 287 498 q 272 376 272 419 l 272 -282 l 77 -282 z "},"ς":{"ha":713,"x_min":43,"x_max":682,"o":"m 381 747 q 538 714 471 747 q 644 616 606 680 q 682 463 682 553 l 498 463 q 486 529 498 499 q 447 577 473 559 q 381 595 421 595 q 313 577 340 595 q 269 528 285 559 q 245 458 252 497 q 238 376 238 419 l 238 357 q 257 256 238 296 q 314 191 276 216 q 410 149 353 166 q 522 112 477 131 q 590 62 566 93 q 616 -26 614 31 q 593 -109 616 -66 q 533 -191 569 -153 q 461 -254 498 -229 l 359 -179 q 394 -137 380 -157 q 415 -99 408 -117 q 422 -64 422 -81 q 414 -34 422 -46 q 390 -12 406 -21 q 351 3 374 -3 q 180 74 249 30 q 77 188 112 119 q 43 357 43 257 l 43 376 q 64 522 43 454 q 129 640 86 589 q 235 719 172 690 q 381 747 298 747 z "},"σ":{"ha":794,"x_min":44,"x_max":779,"o":"m 44 359 l 44 374 q 67 517 44 451 q 134 631 90 583 q 242 707 178 680 q 389 734 307 734 q 419 707 404 727 q 456 664 433 686 q 519 631 479 642 q 620 567 572 610 q 697 468 667 525 q 726 347 726 412 l 726 332 q 704 197 726 260 q 639 87 682 134 q 534 13 596 39 q 391 -14 472 -14 q 243 14 307 -14 q 134 93 178 42 q 67 211 90 143 q 44 359 44 279 m 239 374 l 239 359 q 248 273 239 313 q 273 203 256 233 q 320 156 291 173 q 391 138 349 138 q 456 156 429 138 q 499 203 483 173 q 523 273 515 233 q 530 359 530 313 l 530 374 q 523 453 530 416 q 499 519 515 490 q 456 565 483 548 q 390 581 429 581 q 320 565 349 581 q 273 519 291 548 q 248 453 256 490 q 239 374 239 416 m 779 734 l 779 581 l 390 581 l 390 734 l 779 734 z "},"τ":{"ha":722,"x_min":28,"x_max":694,"o":"m 694 734 l 694 583 l 28 583 l 28 734 l 694 734 m 254 734 l 450 734 l 450 220 q 458 172 450 190 q 479 148 465 155 q 514 140 494 140 q 551 144 537 140 q 581 153 564 147 l 600 9 q 539 -9 568 -5 q 475 -14 511 -14 q 357 12 406 -14 q 281 90 307 37 q 254 222 254 142 l 254 734 z "},"υ":{"ha":758,"x_min":77,"x_max":705,"o":"m 77 734 l 273 734 l 273 281 q 279 214 273 241 q 298 170 286 186 q 325 146 310 153 q 358 138 340 138 q 424 159 395 138 q 471 216 452 180 q 499 295 490 252 q 509 383 509 338 q 489 562 508 474 q 441 734 471 650 l 627 734 q 665 639 648 692 q 694 522 683 586 q 705 383 705 458 q 685 228 705 300 q 624 101 665 156 q 518 16 583 47 q 365 -14 454 -14 q 247 3 300 -14 q 156 57 194 21 q 98 150 118 94 q 77 283 77 206 l 77 734 z "},"φ":{"ha":1036,"x_min":37,"x_max":990,"o":"m 415 -324 l 415 548 q 443 650 415 606 q 517 719 471 694 q 621 743 564 743 q 786 712 716 743 q 901 628 855 680 q 968 510 946 575 q 990 378 990 446 q 966 233 990 303 q 887 107 941 163 q 741 18 832 51 q 517 -14 650 -14 q 290 20 382 -14 q 142 112 198 54 q 62 246 87 171 q 37 402 37 321 q 57 540 37 475 q 111 656 77 604 q 189 743 146 708 l 324 641 q 274 569 294 608 q 244 486 254 529 q 233 402 234 444 q 247 299 233 347 q 293 215 260 251 q 380 159 325 179 q 517 138 435 138 q 684 172 624 138 q 770 260 745 205 q 795 378 795 315 q 784 463 794 425 q 755 530 774 502 q 709 575 736 559 q 646 591 682 591 q 616 578 622 591 q 610 554 610 566 l 610 -324 l 415 -324 z "},"ψ":{"ha":1034,"x_min":47,"x_max":989,"o":"m 47 734 l 243 734 l 243 398 q 264 273 243 323 q 321 194 285 223 q 407 151 358 164 q 511 138 456 138 q 645 159 591 138 q 732 215 700 179 q 779 299 765 252 q 793 403 793 347 q 771 571 792 488 q 720 734 750 654 l 901 734 q 944 645 924 694 q 977 534 964 595 q 989 403 989 474 q 965 246 989 321 q 886 113 941 172 q 741 20 831 54 q 517 -14 650 -14 q 325 9 412 -14 q 176 83 238 33 q 81 212 114 134 q 47 400 47 291 l 47 734 m 413 734 l 608 734 l 608 -323 l 413 -323 l 413 734 z "},"ω":{"ha":1141,"x_min":56,"x_max":1086,"o":"m 799 734 l 985 734 q 1036 639 1013 692 q 1073 522 1059 586 q 1086 382 1086 458 q 1072 228 1086 300 q 1022 102 1057 156 q 931 17 988 47 q 791 -14 874 -14 q 684 10 732 -14 q 601 80 635 34 q 548 194 566 126 q 530 349 530 262 l 530 569 l 675 569 l 675 333 q 683 242 675 279 q 707 182 692 205 q 742 149 722 159 q 784 139 762 139 q 835 159 814 139 q 868 214 855 180 q 886 292 880 249 q 891 382 891 336 q 864 562 889 473 q 799 734 840 650 m 158 734 l 345 734 q 279 562 304 650 q 252 382 254 473 q 256 310 252 345 q 267 243 259 274 q 287 189 274 212 q 317 152 299 165 q 359 139 335 139 q 402 149 382 139 q 437 182 422 159 q 460 242 452 205 q 469 333 469 279 l 469 569 l 614 569 l 614 349 q 595 194 614 262 q 543 80 577 126 q 460 10 509 34 q 353 -14 412 -14 q 237 6 286 -14 q 153 62 187 26 q 97 148 118 98 q 66 257 76 197 q 56 382 56 317 q 71 522 56 458 q 108 639 85 586 q 158 734 132 692 z "},"ϑ":{"ha":827,"x_min":81,"x_max":822,"o":"m 814 555 l 822 395 q 737 375 786 385 q 643 365 688 365 q 434 410 527 365 q 287 535 341 455 q 233 718 233 614 l 233 733 q 266 877 233 817 q 359 969 300 937 q 494 1002 418 1002 q 598 983 551 1002 q 677 927 644 964 q 727 838 710 891 q 745 718 745 785 l 745 309 q 703 139 745 212 q 586 26 661 66 q 410 -14 510 -14 q 275 11 335 -14 q 171 78 215 35 q 104 180 127 121 q 81 309 81 239 l 81 480 l 266 481 l 266 309 q 284 224 266 262 q 338 166 303 187 q 420 145 372 145 q 484 164 458 145 q 525 221 511 184 q 539 309 539 258 l 539 737 q 536 780 539 762 q 525 810 532 798 q 508 828 518 823 q 483 834 497 834 q 450 824 465 834 q 426 794 435 814 q 418 743 418 774 l 418 726 q 443 627 418 671 q 519 558 469 583 q 643 532 569 532 q 733 540 689 532 q 814 555 777 547 z "},"ϒ":{"ha":825,"x_min":-18,"x_max":844,"o":"m 514 475 l 514 0 l 310 0 l 310 475 l 514 475 m 400 486 l 536 841 q 589 936 559 900 q 658 988 619 972 q 745 1005 696 1005 q 799 1000 774 1005 q 844 987 823 994 l 819 837 q 802 839 817 838 q 779 840 787 840 q 749 834 762 840 q 726 818 736 829 q 709 790 716 806 l 507 317 l 378 318 l 400 486 m 291 846 l 429 481 l 448 318 l 317 317 l 117 790 q 99 818 110 807 q 75 835 88 829 q 46 840 62 840 q 23 839 38 840 q 7 837 9 838 l -18 987 q 27 1000 3 994 q 81 1005 52 1005 q 166 991 127 1005 q 236 943 205 977 q 291 846 267 909 z "},"ϖ":{"ha":1152,"x_min":12,"x_max":1147,"o":"m 1147 734 l 1147 599 l 12 599 l 12 734 l 1147 734 m 808 734 l 994 734 q 1045 639 1022 692 q 1082 522 1067 586 q 1096 382 1096 458 q 1086 257 1096 317 q 1056 148 1077 197 q 1002 62 1036 98 q 920 6 968 26 q 806 -14 871 -14 q 694 10 744 -14 q 609 80 644 34 q 554 194 573 126 q 535 349 535 262 l 535 472 l 680 472 l 680 333 q 689 242 680 279 q 715 182 699 205 q 752 149 731 159 q 799 139 774 139 q 839 152 822 139 q 868 189 857 165 q 887 243 880 212 q 897 310 894 274 q 901 382 901 345 q 873 562 898 473 q 808 734 848 650 m 159 734 l 345 734 q 280 562 305 650 q 252 382 255 473 q 256 310 252 345 q 266 243 259 274 q 285 189 273 212 q 314 152 296 165 q 353 139 331 139 q 400 149 379 139 q 438 182 422 159 q 464 242 455 205 q 473 333 473 279 l 473 472 l 618 472 l 618 349 q 600 194 618 262 q 545 80 581 126 q 459 10 509 34 q 347 -14 409 -14 q 233 6 281 -14 q 151 62 184 26 q 97 148 117 98 q 66 257 76 197 q 57 382 57 317 q 71 522 57 458 q 108 639 85 586 q 159 734 132 692 z "},"Ђ":{"ha":1038,"x_min":20,"x_max":1000,"o":"m 382 406 l 382 564 q 461 584 419 574 q 548 601 504 594 q 634 607 592 607 q 825 573 743 607 q 954 472 907 540 q 1000 300 1000 404 q 981 187 1000 242 q 918 86 962 132 q 802 15 875 41 q 623 -12 730 -12 l 622 138 q 716 152 681 138 q 768 189 751 166 q 791 239 785 212 q 798 289 797 265 q 777 372 798 337 q 718 427 757 408 q 624 447 679 447 q 537 442 576 447 q 461 429 498 437 q 382 406 424 420 m 469 987 l 469 0 l 266 0 l 266 987 l 469 987 m 791 987 l 791 828 l 20 828 l 20 987 l 791 987 z "},"Є":{"ha":914,"x_min":58,"x_max":865,"o":"m 565 574 l 565 416 l 164 416 l 164 574 l 565 574 m 661 328 l 864 328 q 809 150 858 227 q 674 30 760 73 q 467 -14 587 -14 q 296 19 372 -14 q 168 114 220 52 q 86 262 115 175 q 58 459 58 350 l 58 526 q 87 723 58 635 q 170 873 116 810 q 299 968 224 935 q 468 1001 374 1001 q 677 956 592 1001 q 809 833 762 911 q 865 654 856 755 l 663 654 q 638 755 658 713 q 577 820 618 798 q 468 842 536 842 q 379 822 418 842 q 314 764 340 803 q 275 666 288 724 q 262 528 262 607 l 262 459 q 269 348 262 397 q 292 260 277 298 q 332 196 308 222 q 390 157 356 170 q 467 144 423 144 q 572 165 530 144 q 635 227 613 186 q 661 328 656 267 z "},"Љ":{"ha":1467,"x_min":28,"x_max":1426,"o":"m 231 987 l 433 987 l 408 492 q 387 298 402 380 q 347 159 372 216 q 283 67 321 102 q 195 16 245 32 q 79 0 144 0 l 28 0 l 28 159 l 54 161 q 113 178 87 164 q 156 221 138 193 q 185 294 174 249 q 204 403 197 338 q 214 553 211 467 l 231 987 m 745 987 l 745 828 l 256 828 l 256 987 l 745 987 m 819 648 l 1050 648 q 1250 606 1166 648 q 1380 490 1334 564 q 1426 324 1426 417 q 1399 195 1426 254 q 1324 92 1373 136 q 1206 24 1276 48 q 1050 0 1137 0 l 686 0 l 686 987 l 890 987 l 890 159 l 1050 159 q 1146 182 1107 159 q 1203 243 1184 205 q 1222 326 1222 281 q 1203 405 1222 368 q 1146 466 1184 442 q 1050 489 1107 489 l 819 489 l 819 648 z "},"Њ":{"ha":1469,"x_min":89,"x_max":1427,"o":"m 747 570 l 747 411 l 232 411 l 232 570 l 747 570 m 292 987 l 292 0 l 89 0 l 89 987 l 292 987 m 822 640 l 1052 640 q 1252 599 1168 640 q 1381 486 1336 557 q 1427 321 1427 414 q 1401 192 1427 251 q 1326 91 1375 134 q 1208 24 1278 47 q 1052 0 1139 0 l 689 0 l 689 987 l 892 987 l 892 159 l 1052 159 q 1148 182 1109 159 q 1205 242 1186 205 q 1224 322 1224 279 q 1205 400 1224 364 q 1148 459 1186 437 q 1052 481 1109 481 l 822 481 l 822 640 z "},"Ћ":{"ha":1069,"x_min":22,"x_max":990,"o":"m 990 1 l 788 1 l 788 304 q 768 405 788 369 q 706 456 747 441 q 604 471 665 471 q 549 469 581 471 q 484 462 517 467 q 420 452 450 458 q 370 439 390 446 l 370 597 q 420 611 391 605 q 484 621 450 616 q 549 627 517 625 q 604 629 581 629 q 808 595 722 629 q 943 490 895 562 q 990 304 990 418 l 990 1 m 458 987 l 458 0 l 255 0 l 255 987 l 458 987 m 774 987 l 774 828 l 22 828 l 22 987 l 774 987 z "},"Џ":{"ha":971,"x_min":78,"x_max":882,"o":"m 78 0 l 78 987 l 281 987 l 281 159 l 678 159 l 678 987 l 882 987 l 882 0 l 78 0 m 591 155 l 591 -244 l 387 -244 l 387 155 l 591 155 z "},"Б":{"ha":870,"x_min":87,"x_max":826,"o":"m 734 987 l 734 828 l 290 828 l 290 0 l 87 0 l 87 987 l 734 987 m 220 627 l 450 627 q 651 589 567 627 q 781 480 735 550 q 826 317 826 410 q 800 189 826 247 q 725 89 774 131 q 607 23 676 46 q 450 0 538 0 l 87 0 l 87 987 l 291 987 l 291 159 l 450 159 q 547 180 509 159 q 604 238 585 202 q 623 319 623 275 q 604 395 623 361 q 547 449 585 429 q 450 469 509 469 l 220 469 l 220 627 z "},"Д":{"ha":1035,"x_min":18,"x_max":1018,"o":"m 871 159 l 871 0 l 160 0 l 160 159 l 871 159 m 220 159 l 220 -242 l 29 -242 l 18 159 l 220 159 m 1018 159 l 1000 -243 l 814 -243 l 814 159 l 1018 159 m 760 987 l 760 828 l 284 828 l 284 987 l 760 987 m 905 987 l 905 0 l 702 0 l 702 987 l 905 987 m 259 987 l 463 987 l 436 585 q 415 409 430 486 q 378 275 399 333 q 331 175 357 218 q 277 100 305 132 q 219 44 248 68 q 162 0 190 20 l 45 0 l 45 159 l 91 159 q 133 203 111 174 q 175 280 155 232 q 210 404 195 329 q 233 585 225 478 l 259 987 z "},"Ж":{"ha":1388,"x_min":11,"x_max":1388,"o":"m 402 407 l 26 987 l 279 987 l 500 587 l 671 587 l 645 407 l 402 407 m 498 438 l 264 0 l 11 0 l 334 556 l 498 438 m 804 987 l 804 0 l 602 0 l 602 987 l 804 987 m 1373 987 l 1002 407 l 760 407 l 734 587 l 904 587 l 1120 987 l 1373 987 m 1134 0 l 905 438 l 1070 556 l 1388 0 l 1134 0 z "},"З":{"ha":858,"x_min":46,"x_max":796,"o":"m 457 473 l 304 473 l 304 581 l 426 581 q 513 598 479 581 q 562 645 546 614 q 577 717 577 675 q 560 779 577 751 q 507 825 543 808 q 415 842 471 842 q 338 827 373 842 q 283 786 304 812 q 263 721 263 759 l 60 721 q 89 838 60 786 q 166 926 117 890 q 279 981 215 962 q 415 1000 344 1000 q 566 982 498 1000 q 681 929 633 964 q 755 842 729 894 q 781 720 781 789 q 758 625 781 669 q 692 546 734 580 q 589 493 649 512 q 457 473 530 473 m 304 532 l 457 532 q 601 515 538 532 q 707 466 663 498 q 773 386 751 433 q 796 276 796 338 q 768 153 796 207 q 689 62 740 100 q 568 6 637 25 q 415 -13 498 -13 q 283 4 349 -13 q 163 55 217 20 q 78 144 110 90 q 46 274 46 198 l 250 274 q 271 209 250 238 q 330 162 292 179 q 415 144 367 144 q 511 162 471 144 q 571 211 551 180 q 592 279 592 241 q 581 347 592 319 q 549 392 570 374 q 497 418 528 410 q 426 427 467 427 l 304 427 l 304 532 z "},"И":{"ha":972,"x_min":81,"x_max":884,"o":"m 284 320 l 681 987 l 884 987 l 884 0 l 681 0 l 681 667 l 284 0 l 81 0 l 81 987 l 284 987 l 284 320 z "},"Л":{"ha":981,"x_min":28,"x_max":892,"o":"m 747 987 l 747 828 l 256 828 l 256 987 l 747 987 m 892 987 l 892 0 l 688 0 l 688 987 l 892 987 m 230 987 l 432 987 l 408 492 q 387 298 402 380 q 346 159 372 216 q 282 67 320 102 q 194 16 245 32 q 78 0 143 0 l 28 0 l 28 159 l 54 161 q 112 178 87 164 q 155 221 137 193 q 185 294 173 249 q 204 403 197 338 q 214 553 211 467 l 230 987 z "},"У":{"ha":877,"x_min":19,"x_max":860,"o":"m 398 358 l 641 987 l 860 987 l 522 191 q 481 114 504 151 q 427 48 458 77 q 353 2 396 19 q 249 -14 309 -14 q 212 -14 234 -14 q 178 -12 191 -13 l 176 147 q 202 145 184 145 q 228 144 220 144 q 291 156 268 144 q 328 189 314 168 q 353 239 342 210 l 398 358 m 237 987 l 463 498 l 526 274 l 374 271 l 19 987 l 237 987 z "},"Ф":{"ha":1134,"x_min":49,"x_max":1088,"o":"m 460 899 l 680 899 q 842 870 768 899 q 972 787 917 841 q 1058 657 1027 733 q 1088 489 1088 582 q 1058 324 1088 398 q 972 197 1027 250 q 842 115 917 144 q 680 87 768 87 l 460 87 q 296 115 371 87 q 166 196 222 144 q 80 323 111 249 q 49 488 49 397 q 80 656 49 581 q 166 786 111 732 q 296 869 222 840 q 460 899 371 899 m 460 736 q 345 707 395 736 q 269 624 296 679 q 241 488 241 568 q 257 385 241 429 q 302 311 273 340 q 372 265 332 281 q 460 250 412 250 l 681 250 q 794 277 745 250 q 869 359 842 305 q 897 489 897 412 q 881 595 897 549 q 837 673 865 642 q 769 720 808 704 q 681 736 729 736 l 460 736 m 667 1028 l 667 -41 l 472 -41 l 472 1028 l 667 1028 z "},"Ц":{"ha":1054,"x_min":78,"x_max":1017,"o":"m 1017 158 l 1004 -238 l 814 -238 l 814 0 l 734 0 l 734 158 l 1017 158 m 78 0 l 78 987 l 281 987 l 281 159 l 678 159 l 678 987 l 882 987 l 882 0 l 78 0 z "},"Ч":{"ha":964,"x_min":94,"x_max":876,"o":"m 94 987 l 298 987 l 298 684 q 318 583 298 619 q 379 531 338 546 q 481 517 420 517 q 536 519 505 517 q 601 525 568 521 q 665 535 634 530 q 715 549 695 541 l 715 390 q 665 377 695 383 q 601 367 634 371 q 536 360 568 362 q 481 358 505 358 q 277 392 363 358 q 142 498 190 426 q 94 684 94 570 l 94 987 m 673 987 l 876 987 l 876 0 l 673 0 l 673 987 z "},"Ш":{"ha":1331,"x_min":86,"x_max":1244,"o":"m 86 987 l 290 987 l 290 159 l 566 159 l 566 987 l 769 987 l 769 159 l 1042 159 l 1042 987 l 1244 987 l 1244 0 l 86 0 l 86 987 z "},"Щ":{"ha":1419,"x_min":86,"x_max":1375,"o":"m 1375 152 l 1362 -237 l 1181 -237 l 1181 1 l 1098 1 l 1098 152 l 1375 152 m 86 987 l 290 987 l 290 159 l 566 159 l 566 987 l 769 987 l 769 159 l 1042 159 l 1042 987 l 1244 987 l 1244 0 l 86 0 l 86 987 z "},"Ъ":{"ha":1073,"x_min":16,"x_max":1029,"o":"m 16 835 l 16 987 l 370 987 l 370 835 l 16 835 m 423 627 l 654 627 q 854 589 770 627 q 984 480 939 550 q 1029 317 1029 410 q 1003 189 1029 247 q 928 89 977 131 q 810 23 880 46 q 654 0 741 0 l 290 0 l 290 987 l 494 987 l 494 159 l 654 159 q 750 180 711 159 q 807 238 788 202 q 826 319 826 275 q 807 395 826 361 q 750 449 788 429 q 654 469 711 469 l 423 469 l 423 627 z "},"Ы":{"ha":1207,"x_min":90,"x_max":1118,"o":"m 222 627 l 453 627 q 653 589 569 627 q 783 480 738 550 q 828 317 828 410 q 802 189 828 247 q 728 89 777 131 q 610 23 679 46 q 453 0 541 0 l 90 0 l 90 987 l 294 987 l 294 159 l 453 159 q 549 180 511 159 q 606 238 587 202 q 625 319 625 275 q 606 395 625 361 q 549 449 587 429 q 453 469 511 469 l 222 469 l 222 627 m 1118 987 l 1118 0 l 916 0 l 916 987 l 1118 987 z "},"Ь":{"ha":867,"x_min":87,"x_max":826,"o":"m 220 627 l 450 627 q 651 589 567 627 q 781 480 735 550 q 826 317 826 410 q 800 189 826 247 q 725 89 774 131 q 607 23 676 46 q 450 0 538 0 l 87 0 l 87 987 l 291 987 l 291 159 l 450 159 q 547 180 509 159 q 604 238 585 202 q 623 319 623 275 q 604 395 623 361 q 547 449 585 429 q 450 469 509 469 l 220 469 l 220 627 z "},"Э":{"ha":901,"x_min":39,"x_max":845,"o":"m 751 573 l 751 414 l 331 414 l 331 573 l 751 573 m 40 328 l 243 328 q 270 227 248 267 q 333 165 292 186 q 438 144 374 144 q 531 164 492 144 q 594 225 570 185 q 631 323 619 264 q 643 459 643 382 l 643 528 q 634 641 643 591 q 609 729 626 692 q 568 792 593 767 q 510 829 543 817 q 436 842 477 842 q 328 820 369 842 q 267 755 287 798 q 242 654 247 713 l 39 654 q 96 833 49 755 q 228 956 143 911 q 436 1001 313 1001 q 605 968 530 1001 q 734 873 681 935 q 817 723 788 810 q 845 526 845 635 l 845 459 q 817 262 845 350 q 736 114 789 175 q 608 19 684 52 q 438 -14 533 -14 q 231 30 317 -14 q 96 150 144 73 q 40 328 47 227 z "},"Ю":{"ha":1315,"x_min":96,"x_max":1252,"o":"m 300 987 l 300 0 l 96 0 l 96 987 l 300 987 m 488 550 l 488 397 l 219 397 l 219 550 l 488 550 m 1252 517 l 1252 470 q 1221 268 1252 357 q 1135 116 1191 178 q 1002 20 1079 53 q 832 -14 926 -14 q 662 20 739 -14 q 529 116 585 53 q 441 268 472 178 q 411 470 411 357 l 411 517 q 441 719 411 630 q 528 871 472 808 q 661 968 584 935 q 831 1001 738 1001 q 1001 968 924 1001 q 1134 871 1078 935 q 1221 719 1190 808 q 1252 517 1252 630 m 1046 470 l 1046 518 q 1032 656 1046 597 q 990 757 1018 716 q 922 818 962 798 q 831 839 882 839 q 740 818 779 839 q 672 757 700 798 q 631 656 645 716 q 616 518 616 597 l 616 470 q 631 332 616 392 q 673 231 645 272 q 741 169 701 190 q 832 148 781 148 q 923 169 884 148 q 990 231 963 190 q 1032 332 1018 272 q 1046 470 1046 392 z "},"Я":{"ha":824,"x_min":-22,"x_max":747,"o":"m 613 359 l 345 359 l 276 387 q 99 497 160 424 q 37 684 37 570 q 82 851 37 783 q 208 953 126 918 q 402 987 290 987 l 747 987 l 747 0 l 543 0 l 543 828 l 402 828 q 279 787 319 828 q 240 669 240 745 q 258 578 240 614 q 312 525 277 543 q 401 508 347 508 l 612 508 l 613 359 m 417 441 l 198 0 l -22 0 l 197 441 l 417 441 z "},"б":{"ha":792,"x_min":57,"x_max":749,"o":"m 526 1057 l 684 1057 q 670 963 684 1002 q 627 896 656 924 q 547 850 597 869 q 422 817 496 831 q 324 779 366 806 q 255 707 282 753 q 217 592 229 661 q 209 425 205 522 l 209 392 l 57 371 l 57 404 q 81 635 58 536 q 148 801 104 733 q 252 908 191 868 q 388 965 313 949 q 468 986 438 976 q 512 1013 498 997 q 526 1057 526 1029 m 440 692 q 572 667 515 692 q 669 595 630 642 q 729 487 709 549 q 749 351 749 425 l 749 336 q 727 197 749 261 q 660 85 704 133 q 551 12 616 38 q 404 -14 487 -14 q 256 14 321 -14 q 147 93 191 42 q 80 213 102 144 q 57 363 57 282 l 57 378 q 67 401 57 390 q 93 427 78 412 q 119 463 107 441 q 208 589 159 538 q 313 666 256 640 q 440 692 370 692 m 403 541 q 315 514 348 541 q 267 445 281 488 q 252 351 252 401 l 252 336 q 260 259 252 295 q 286 196 269 224 q 333 154 304 169 q 404 138 362 138 q 474 154 445 138 q 520 196 503 169 q 546 259 538 224 q 554 336 554 295 l 554 351 q 546 424 554 389 q 520 484 538 458 q 473 525 503 510 q 403 541 444 541 z "},"в":{"ha":785,"x_min":89,"x_max":741,"o":"m 441 307 l 212 307 l 210 435 l 400 435 q 462 443 438 435 q 497 466 486 450 q 508 505 508 482 q 501 540 508 526 q 479 564 494 555 q 444 578 465 574 q 394 583 422 583 l 284 583 l 284 0 l 89 0 l 89 734 l 394 734 q 523 721 466 734 q 620 684 580 709 q 682 620 661 659 q 703 530 703 582 q 688 466 703 496 q 643 413 673 436 q 569 375 613 390 q 469 357 526 361 l 441 307 m 441 0 l 163 0 l 231 151 l 441 151 q 500 160 477 151 q 535 186 524 169 q 546 228 546 203 q 536 269 546 252 q 503 297 526 287 q 441 307 480 307 l 259 307 l 260 435 l 468 435 l 515 383 q 643 354 593 378 q 717 292 693 330 q 741 210 741 254 q 722 118 741 157 q 664 53 702 79 q 570 13 625 26 q 441 0 514 0 z "},"г":{"ha":583,"x_min":75,"x_max":575,"o":"m 575 734 l 575 581 l 270 581 l 270 0 l 75 0 l 75 734 l 575 734 z "},"д":{"ha":876,"x_min":22,"x_max":852,"o":"m 208 734 l 404 734 l 397 488 q 370 286 395 370 q 305 143 346 201 q 213 51 264 85 q 104 0 161 17 l 67 0 l 65 151 l 85 153 q 142 223 120 189 q 177 295 165 257 q 195 380 189 333 q 202 488 201 427 l 208 734 m 261 734 l 747 734 l 747 0 l 553 0 l 553 577 l 261 577 l 261 734 m 22 153 l 852 153 l 852 -220 l 657 -220 l 657 0 l 222 0 l 222 -220 l 22 -220 l 22 153 z "},"ж":{"ha":1192,"x_min":28,"x_max":1173,"o":"m 335 277 l 30 734 l 272 734 l 428 457 l 568 457 l 545 277 l 335 277 m 431 310 l 263 0 l 28 0 l 271 404 l 431 310 m 695 734 l 695 0 l 500 0 l 500 734 l 695 734 m 1167 734 l 862 277 l 652 277 l 629 457 l 769 457 l 924 734 l 1167 734 m 933 0 l 766 310 l 931 404 l 1173 0 l 933 0 z "},"з":{"ha":714,"x_min":47,"x_max":671,"o":"m 403 350 l 258 350 l 258 437 l 361 437 q 420 448 398 437 q 452 476 442 458 q 462 519 462 495 q 453 559 462 540 q 424 591 445 578 q 363 604 402 604 q 307 594 332 604 q 268 567 282 585 q 254 524 254 549 l 58 524 q 98 643 58 593 q 205 720 138 693 q 353 747 273 747 q 479 733 422 747 q 575 692 535 719 q 636 625 615 665 q 658 533 658 585 q 640 463 658 496 q 589 404 623 429 q 509 364 556 378 q 403 350 462 350 m 258 399 l 403 399 q 518 386 469 399 q 602 349 568 374 q 653 289 636 325 q 671 208 671 254 q 648 114 671 155 q 582 45 625 73 q 481 1 539 16 q 353 -14 422 -14 q 208 11 278 -14 q 92 86 137 35 q 47 217 47 137 l 243 217 q 256 174 243 194 q 297 141 270 153 q 364 130 324 130 q 429 142 404 130 q 464 177 453 155 q 475 221 475 198 q 463 274 475 254 q 425 304 450 294 q 361 313 399 313 l 258 313 l 258 399 z "},"и":{"ha":787,"x_min":75,"x_max":712,"o":"m 271 273 l 517 734 l 712 734 l 712 0 l 517 0 l 517 462 l 271 0 l 75 0 l 75 734 l 271 734 l 271 273 z "},"к":{"ha":781,"x_min":89,"x_max":784,"o":"m 284 734 l 284 0 l 89 0 l 89 734 l 284 734 m 761 734 l 445 275 l 250 275 l 226 455 l 355 455 l 513 734 l 761 734 m 522 0 l 342 310 l 512 404 l 784 0 l 522 0 z "},"л":{"ha":788,"x_min":14,"x_max":713,"o":"m 570 734 l 570 581 l 209 581 l 209 734 l 570 734 m 713 734 l 713 0 l 517 0 l 517 734 l 713 734 m 160 734 l 352 734 l 332 363 q 315 224 328 284 q 281 121 302 163 q 230 51 260 78 q 162 12 201 24 q 76 0 123 0 l 16 0 l 14 154 l 39 157 q 78 169 61 159 q 106 200 94 180 q 126 251 118 220 q 139 323 134 281 q 146 420 144 366 l 160 734 z "},"м":{"ha":1055,"x_min":89,"x_max":960,"o":"m 522 224 l 715 734 l 874 734 l 588 0 l 456 0 l 172 734 l 331 734 l 522 224 m 284 734 l 284 0 l 89 0 l 89 734 l 284 734 m 765 0 l 765 734 l 960 734 l 960 0 l 765 0 z "},"н":{"ha":786,"x_min":75,"x_max":711,"o":"m 578 437 l 578 286 l 205 286 l 205 437 l 578 437 m 271 734 l 271 0 l 75 0 l 75 734 l 271 734 m 711 734 l 711 0 l 515 0 l 515 734 l 711 734 z "},"п":{"ha":787,"x_min":75,"x_max":712,"o":"m 570 734 l 570 581 l 214 581 l 214 734 l 570 734 m 271 734 l 271 0 l 75 0 l 75 734 l 271 734 m 712 734 l 712 0 l 516 0 l 516 734 l 712 734 z "},"т":{"ha":709,"x_min":21,"x_max":686,"o":"m 450 734 l 450 0 l 254 0 l 254 734 l 450 734 m 686 734 l 686 583 l 21 583 l 21 734 l 686 734 z "},"ф":{"ha":1016,"x_min":46,"x_max":969,"o":"m 969 362 l 969 348 q 952 202 969 269 q 900 88 935 136 q 815 13 865 39 q 699 -14 765 -14 q 594 10 638 -14 q 519 76 549 33 q 470 175 489 118 q 443 297 452 231 l 443 414 q 470 546 452 485 q 518 652 488 606 q 593 722 549 697 q 698 747 637 747 q 794 729 751 747 q 870 677 837 711 q 925 595 903 643 q 958 488 947 547 q 969 362 969 429 m 773 348 l 773 362 q 769 435 773 400 q 755 499 764 470 q 731 550 746 528 q 695 583 716 571 q 647 595 674 595 q 569 576 600 595 q 525 523 539 557 q 508 443 510 489 l 508 268 q 525 200 511 229 q 570 155 540 171 q 648 139 600 139 q 707 155 683 139 q 746 199 731 170 q 767 265 760 227 q 773 348 773 302 m 46 348 l 46 362 q 58 488 46 429 q 91 595 69 547 q 146 677 113 643 q 221 729 178 711 q 317 747 264 747 q 422 722 378 747 q 496 652 466 697 q 544 546 526 606 q 572 414 562 485 l 572 302 q 544 177 562 235 q 495 77 526 120 q 421 10 465 34 q 316 -14 377 -14 q 200 13 251 -14 q 116 88 150 39 q 64 202 81 136 q 46 348 46 269 m 241 362 l 241 348 q 248 265 241 302 q 269 199 254 227 q 307 155 283 171 q 366 140 331 140 q 445 156 414 140 q 490 202 475 172 q 506 273 505 232 l 506 443 q 490 523 505 489 q 446 576 475 557 q 367 595 416 595 q 308 576 332 595 q 270 526 284 558 q 248 452 255 494 q 241 362 241 410 m 408 -282 l 408 1042 l 604 1042 l 604 -282 l 408 -282 z "},"ц":{"ha":845,"x_min":75,"x_max":822,"o":"m 75 0 l 75 734 l 271 734 l 271 153 l 516 153 l 516 734 l 712 734 l 712 0 l 75 0 m 822 152 l 809 -218 l 627 -218 l 627 0 l 545 0 l 545 152 l 822 152 z "},"ч":{"ha":769,"x_min":60,"x_max":694,"o":"m 694 734 l 694 0 l 498 0 l 498 734 l 694 734 m 602 420 l 602 267 q 545 245 580 256 q 470 230 509 235 q 398 224 431 224 q 217 253 292 224 q 100 345 141 282 q 60 505 60 407 l 60 734 l 255 734 l 255 505 q 270 427 255 455 q 316 388 285 399 q 398 376 348 376 q 467 382 433 376 q 533 397 500 387 q 602 420 566 406 z "},"ш":{"ha":1149,"x_min":75,"x_max":1067,"o":"m 75 734 l 271 734 l 271 153 l 473 153 l 473 734 l 670 734 l 670 153 l 872 153 l 872 734 l 1067 734 l 1067 0 l 75 0 l 75 734 z "},"щ":{"ha":1253,"x_min":73,"x_max":1213,"o":"m 1213 152 l 1200 -218 l 1018 -218 l 1018 0 l 936 0 l 936 152 l 1213 152 m 73 734 l 269 734 l 269 153 l 472 153 l 472 734 l 668 734 l 668 153 l 871 153 l 871 734 l 1066 734 l 1066 0 l 73 0 l 73 734 z "},"ъ":{"ha":914,"x_min":23,"x_max":886,"o":"m 404 734 l 404 581 l 23 581 l 23 734 l 404 734 m 356 516 l 568 516 q 740 483 669 516 q 848 392 810 450 q 886 257 886 334 q 865 154 886 201 q 803 73 844 107 q 703 19 762 38 q 568 0 644 0 l 233 0 l 233 734 l 429 734 l 429 152 l 568 152 q 639 166 612 152 q 679 205 666 181 q 691 256 691 229 q 679 310 691 286 q 639 349 666 334 q 568 363 612 363 l 356 363 l 356 516 z "},"ы":{"ha":1150,"x_min":89,"x_max":1055,"o":"m 211 516 l 424 516 q 595 483 524 516 q 704 392 666 450 q 741 257 741 334 q 720 154 741 201 q 658 73 699 107 q 558 19 617 38 q 424 0 499 0 l 89 0 l 89 734 l 285 734 l 285 152 l 424 152 q 495 166 468 152 q 534 205 522 181 q 547 256 547 229 q 534 310 547 286 q 495 349 522 334 q 424 363 468 363 l 211 363 l 211 516 m 1055 734 l 1055 0 l 859 0 l 859 734 l 1055 734 z "},"ь":{"ha":775,"x_min":89,"x_max":741,"o":"m 211 516 l 424 516 q 595 483 524 516 q 704 392 666 450 q 741 257 741 334 q 720 154 741 201 q 658 73 699 107 q 558 19 617 38 q 424 0 499 0 l 89 0 l 89 734 l 285 734 l 285 152 l 424 152 q 495 166 468 152 q 534 205 522 181 q 547 256 547 229 q 534 310 547 286 q 495 349 522 334 q 424 363 468 363 l 211 363 l 211 516 z "},"э":{"ha":721,"x_min":43,"x_max":682,"o":"m 342 595 q 281 581 307 595 q 241 542 255 567 q 227 482 227 517 l 43 482 q 83 619 43 559 q 191 713 123 679 q 342 747 259 747 q 489 719 426 747 q 596 640 553 690 q 661 522 639 589 q 682 376 682 454 l 682 357 q 661 212 682 279 q 596 94 639 144 q 490 15 553 43 q 344 -14 427 -14 q 187 21 255 -14 q 81 120 119 56 q 43 271 43 184 l 227 271 q 240 204 227 234 q 280 157 254 174 q 344 139 306 139 q 412 157 385 139 q 456 205 439 175 q 479 275 472 236 q 486 357 486 315 l 486 376 q 479 459 486 420 q 456 529 472 498 q 412 577 439 559 q 342 595 385 595 m 549 429 l 549 311 l 286 311 l 286 429 l 549 429 z "},"ю":{"ha":1127,"x_min":92,"x_max":1082,"o":"m 519 450 l 519 296 l 123 296 l 123 450 l 519 450 m 288 734 l 288 0 l 92 0 l 92 734 l 288 734 m 387 359 l 387 374 q 410 523 387 454 q 477 641 433 591 q 586 719 522 691 q 733 747 650 747 q 882 719 817 747 q 991 641 947 691 q 1059 523 1036 591 q 1082 374 1082 454 l 1082 359 q 1059 211 1082 279 q 992 93 1036 143 q 883 14 947 42 q 734 -14 818 -14 q 587 14 651 -14 q 477 93 522 42 q 410 211 433 143 q 387 359 387 279 m 582 374 l 582 359 q 590 273 582 313 q 617 203 599 233 q 664 156 635 173 q 734 139 693 139 q 805 156 776 139 q 851 203 833 173 q 878 273 869 233 q 886 359 886 313 l 886 374 q 878 458 886 418 q 851 529 869 498 q 804 577 833 559 q 733 595 775 595 q 664 577 692 595 q 617 529 635 559 q 590 458 599 498 q 582 374 582 418 z "},"я":{"ha":777,"x_min":31,"x_max":688,"o":"m 234 366 l 432 366 l 228 0 l 31 0 l 234 366 m 366 734 l 688 734 l 688 0 l 492 0 l 492 583 l 366 583 q 299 568 326 583 q 260 531 273 553 q 248 484 248 508 q 260 439 248 461 q 298 404 272 418 q 362 389 323 389 l 565 389 l 565 256 l 362 256 q 232 274 290 256 q 135 323 175 292 q 73 397 94 355 q 52 490 52 439 q 73 587 52 543 q 136 665 95 631 q 234 716 176 698 q 366 734 292 734 z "},"ђ":{"ha":778,"x_min":-37,"x_max":706,"o":"m 509 318 l 706 318 l 706 -26 q 675 -174 706 -113 q 586 -265 644 -234 q 447 -296 528 -296 q 398 -294 421 -296 q 349 -285 374 -292 l 358 -136 q 390 -142 373 -140 q 426 -144 407 -144 q 472 -130 453 -144 q 500 -90 490 -117 q 509 -26 509 -64 l 509 318 m 267 1042 l 267 0 l 71 0 l 71 1042 l 267 1042 m 239 393 l 185 393 q 205 534 186 469 q 262 647 225 599 q 350 721 298 694 q 463 747 401 747 q 562 732 517 747 q 638 683 606 717 q 688 595 671 650 q 706 464 706 541 l 706 0 l 509 0 l 509 465 q 495 542 509 514 q 455 582 481 570 q 391 594 429 594 q 320 578 349 594 q 273 535 290 563 q 247 471 255 508 q 239 393 239 435 m 439 929 l 439 808 l -37 808 l -37 929 l 439 929 z "},"є":{"ha":721,"x_min":43,"x_max":686,"o":"m 448 418 l 448 300 l 176 300 l 176 418 l 448 418 m 378 139 q 441 153 414 139 q 485 192 469 167 q 502 252 501 218 l 686 252 q 644 115 685 175 q 535 21 604 55 q 382 -14 467 -14 q 233 15 296 -14 q 127 94 170 43 q 64 212 85 144 q 43 357 43 279 l 43 376 q 64 522 43 454 q 127 640 85 589 q 233 719 170 690 q 380 747 296 747 q 538 713 470 747 q 646 614 607 678 q 686 463 685 550 l 502 463 q 487 529 501 499 q 445 577 472 559 q 377 595 417 595 q 307 577 334 595 q 264 528 279 559 q 244 458 250 497 q 239 376 239 419 l 239 357 q 244 275 239 314 q 265 205 250 235 q 308 157 280 174 q 378 139 335 139 z "},"љ":{"ha":1194,"x_min":14,"x_max":1164,"o":"m 159 734 l 351 734 l 331 363 q 314 224 327 284 q 280 121 302 163 q 229 51 259 78 q 161 12 199 24 q 76 0 123 0 l 16 0 l 14 154 l 39 157 q 77 169 60 159 q 105 200 93 180 q 125 251 117 220 q 138 323 133 281 q 146 420 144 366 l 159 734 m 564 734 l 564 581 l 208 581 l 208 734 l 564 734 m 634 498 l 846 498 q 1018 466 947 498 q 1127 379 1089 435 q 1164 250 1164 323 q 1143 150 1164 195 q 1081 70 1122 104 q 981 18 1040 37 q 846 0 922 0 l 512 0 l 512 734 l 707 734 l 707 151 l 846 151 q 918 165 890 151 q 957 202 945 180 q 969 252 969 225 q 957 299 969 277 q 918 333 945 320 q 846 346 890 346 l 634 346 l 634 498 z "},"њ":{"ha":1196,"x_min":75,"x_max":1168,"o":"m 578 450 l 578 298 l 205 298 l 205 450 l 578 450 m 271 734 l 271 0 l 75 0 l 75 734 l 271 734 m 637 498 l 850 498 q 1021 466 950 498 q 1130 379 1092 435 q 1168 250 1168 323 q 1146 150 1168 195 q 1084 70 1125 104 q 984 18 1043 37 q 850 0 924 0 l 515 0 l 515 734 l 711 734 l 711 151 l 850 151 q 921 165 894 151 q 960 202 947 180 q 972 252 972 225 q 960 299 972 277 q 921 333 947 320 q 850 346 894 346 l 637 346 l 637 498 z "},"ћ":{"ha":783,"x_min":-28,"x_max":706,"o":"m 267 1042 l 267 0 l 71 0 l 71 1042 l 267 1042 m 239 393 l 185 393 q 205 534 186 469 q 262 647 225 599 q 350 721 298 694 q 463 747 401 747 q 562 732 517 747 q 638 683 606 717 q 688 595 671 650 q 706 464 706 541 l 706 0 l 509 0 l 509 465 q 495 542 509 514 q 455 582 481 570 q 391 594 429 594 q 320 578 349 594 q 273 535 290 563 q 247 471 255 508 q 239 393 239 435 m 448 937 l 448 817 l -28 817 l -28 937 l 448 937 z "},"џ":{"ha":787,"x_min":75,"x_max":712,"o":"m 296 153 l 492 153 l 492 -243 l 296 -243 l 296 153 m 75 734 l 271 734 l 271 153 l 516 153 l 516 734 l 712 734 l 712 0 l 75 0 l 75 734 z "},"Ѡ":{"ha":1320,"x_min":81,"x_max":1233,"o":"m 555 987 l 720 987 l 720 313 q 698 172 720 233 q 635 69 675 111 q 539 6 594 27 q 418 -14 484 -14 q 284 6 346 -14 q 177 69 222 27 q 106 172 131 111 q 81 313 81 233 l 81 987 l 284 987 l 284 313 q 294 237 284 269 q 321 185 303 205 q 364 154 339 164 q 418 144 389 144 q 491 162 460 144 q 538 217 522 180 q 555 313 555 254 l 555 987 m 1029 987 l 1233 987 l 1233 313 q 1189 133 1233 205 q 1069 23 1145 60 q 895 -14 993 -14 q 775 6 830 -14 q 679 69 720 27 q 616 172 639 111 q 593 313 593 233 l 593 987 l 759 987 l 759 313 q 768 237 759 269 q 796 185 778 205 q 840 154 814 164 q 895 144 865 144 q 967 162 937 144 q 1013 217 997 180 q 1029 313 1029 254 l 1029 987 z "},"ѡ":{"ha":1149,"x_min":68,"x_max":1093,"o":"m 486 734 l 645 734 l 645 299 q 625 163 645 222 q 567 65 604 105 q 479 6 530 26 q 368 -14 429 -14 q 248 6 302 -14 q 153 65 193 26 q 91 163 113 105 q 68 299 68 222 l 68 734 l 265 734 l 265 299 q 272 227 265 257 q 292 177 279 197 q 324 148 305 157 q 368 138 343 138 q 432 156 406 138 q 472 208 458 173 q 486 299 486 243 l 486 734 m 897 734 l 1093 734 l 1093 299 q 1054 127 1093 197 q 948 21 1016 57 q 792 -14 880 -14 q 682 6 732 -14 q 596 65 632 26 q 542 163 561 105 q 522 299 522 222 l 522 734 l 682 734 l 682 299 q 688 227 682 257 q 709 177 695 197 q 745 148 724 157 q 792 138 766 138 q 837 148 817 138 q 870 177 857 157 q 890 227 883 197 q 897 299 897 257 l 897 734 z "},"ѣ":{"ha":775,"x_min":-18,"x_max":741,"o":"m 211 533 l 423 533 q 595 499 524 533 q 703 406 666 465 q 741 268 741 346 q 703 129 741 189 q 595 35 666 69 q 423 0 524 0 l 88 0 l 88 1059 l 285 1059 l 285 152 l 423 152 q 494 168 467 152 q 533 210 521 184 q 546 267 546 236 q 533 323 546 297 q 494 365 521 349 q 423 381 467 381 l 211 381 l 211 533 m 457 855 l 457 734 l -18 734 l -18 855 l 457 855 z "},"Ѥ":{"ha":1240,"x_min":85,"x_max":1213,"o":"m 901 581 l 901 429 l 220 429 l 220 581 l 901 581 m 1009 328 l 1212 328 q 1157 151 1206 229 q 1022 31 1108 74 q 814 -13 935 -13 q 644 20 720 -13 q 515 115 568 53 q 435 264 463 176 q 407 460 407 351 l 407 528 q 436 725 407 637 q 518 874 465 812 q 648 969 572 936 q 817 1002 723 1002 q 1025 958 940 1002 q 1157 834 1110 913 q 1213 655 1204 755 l 1010 655 q 986 756 1006 715 q 925 820 966 798 q 817 841 884 841 q 727 822 766 841 q 664 764 689 803 q 626 667 638 726 q 613 530 613 608 l 613 460 q 620 349 613 399 q 643 261 627 299 q 682 199 658 224 q 738 161 705 174 q 814 148 771 148 q 920 168 878 148 q 983 229 961 189 q 1009 328 1005 269 m 288 987 l 288 0 l 85 0 l 85 987 l 288 987 z "},"ѥ":{"ha":1048,"x_min":79,"x_max":1008,"o":"m 782 429 l 782 308 l 194 308 l 194 429 l 782 429 m 701 139 q 764 153 736 139 q 808 192 792 167 q 825 252 824 218 l 1008 252 q 966 115 1007 175 q 857 21 926 55 q 704 -14 789 -14 q 555 15 619 -14 q 450 94 492 43 q 387 212 408 144 q 366 357 366 279 l 366 376 q 387 522 366 454 q 450 640 408 589 q 555 719 492 690 q 703 747 618 747 q 861 713 793 747 q 968 614 929 678 q 1008 463 1007 550 l 825 463 q 809 529 824 499 q 767 577 795 559 q 699 595 739 595 q 630 577 656 595 q 588 528 603 559 q 567 458 573 497 q 561 376 561 419 l 561 357 q 567 275 561 314 q 588 205 572 235 q 630 157 603 174 q 701 139 657 139 m 275 734 l 275 0 l 79 0 l 79 734 l 275 734 z "},"Ѧ":{"ha":921,"x_min":9,"x_max":918,"o":"m 519 900 l 223 0 l 9 0 l 357 987 l 470 987 l 519 900 m 704 0 l 406 906 l 458 987 l 570 987 l 918 0 l 704 0 m 715 424 l 715 286 l 186 286 l 186 424 l 715 424 m 544 360 l 544 0 l 376 0 l 376 360 l 544 360 z "},"ѧ":{"ha":777,"x_min":5,"x_max":762,"o":"m 361 459 l 205 0 l 5 0 l 283 734 l 429 734 l 361 459 m 562 0 l 404 459 l 338 734 l 485 734 l 762 0 l 562 0 m 633 309 l 633 185 l 138 185 l 138 309 l 633 309 m 444 251 l 444 0 l 317 0 l 317 251 l 444 251 z "},"Ѩ":{"ha":1303,"x_min":100,"x_max":1288,"o":"m 637 423 l 637 287 l 229 287 l 229 423 l 637 423 m 890 900 l 593 0 l 380 0 l 728 987 l 840 987 l 890 900 m 1074 0 l 776 906 l 828 987 l 941 987 l 1288 0 l 1074 0 m 1084 424 l 1084 286 l 555 286 l 555 424 l 1084 424 m 913 360 l 913 0 l 746 0 l 746 360 l 913 360 m 302 987 l 302 0 l 100 0 l 100 987 l 302 987 z "},"ѩ":{"ha":1112,"x_min":85,"x_max":1095,"o":"m 580 309 l 580 186 l 131 186 l 131 309 l 580 309 m 694 459 l 538 0 l 338 0 l 615 734 l 761 734 l 694 459 m 895 0 l 736 459 l 671 734 l 817 734 l 1095 0 l 895 0 m 966 309 l 966 185 l 471 185 l 471 309 l 966 309 m 776 251 l 776 0 l 650 0 l 650 251 l 776 251 m 281 734 l 281 0 l 85 0 l 85 734 l 281 734 z "},"Ѫ":{"ha":1208,"x_min":74,"x_max":1134,"o":"m 277 0 l 74 0 l 74 231 q 117 413 74 345 q 243 512 161 481 q 439 543 325 543 l 768 543 q 965 512 884 543 q 1090 413 1047 481 q 1134 231 1134 345 l 1134 0 l 931 0 l 931 231 q 913 322 931 289 q 860 369 896 355 q 768 382 823 382 l 439 382 q 317 351 357 382 q 277 231 277 319 l 277 0 m 881 987 l 881 827 l 357 827 l 357 987 l 881 987 m 569 479 l 831 987 l 1053 987 l 705 380 l 592 380 l 569 479 m 402 987 l 666 474 l 640 380 l 527 380 l 179 987 l 402 987 m 715 514 l 715 0 l 512 0 l 512 514 l 715 514 z "},"ѫ":{"ha":1015,"x_min":75,"x_max":941,"o":"m 270 0 l 75 0 l 75 123 q 113 294 75 230 q 225 387 152 358 q 399 416 298 416 l 616 416 q 790 387 718 416 q 902 294 863 358 q 941 123 941 230 l 941 0 l 745 0 l 745 123 q 731 213 745 180 q 689 258 717 245 q 616 271 661 271 l 399 271 q 327 258 355 271 q 284 213 298 245 q 270 123 270 180 l 270 0 m 777 734 l 777 608 l 271 608 l 271 734 l 777 734 m 473 340 l 662 734 l 873 734 l 598 263 l 493 263 l 473 340 m 364 734 l 556 336 l 532 263 l 428 263 l 152 734 l 364 734 m 608 355 l 608 0 l 413 0 l 413 355 l 608 355 z "},"Ѭ":{"ha":1612,"x_min":102,"x_max":1539,"o":"m 880 545 l 880 391 l 222 391 l 222 545 l 880 545 m 304 987 l 304 0 l 102 0 l 102 987 l 304 987 m 682 0 l 479 0 l 479 231 q 522 413 479 345 q 648 512 566 481 q 844 543 730 543 l 1173 543 q 1370 512 1289 543 q 1495 413 1452 481 q 1539 231 1539 345 l 1539 0 l 1336 0 l 1336 231 q 1318 322 1336 289 q 1264 369 1301 355 q 1173 382 1228 382 l 844 382 q 722 351 762 382 q 682 231 682 319 l 682 0 m 1285 987 l 1285 827 l 762 827 l 762 987 l 1285 987 m 974 479 l 1236 987 l 1457 987 l 1110 380 l 998 380 l 974 479 m 806 987 l 1071 474 l 1044 380 l 932 380 l 585 987 l 806 987 m 1120 514 l 1120 0 l 917 0 l 917 514 l 1120 514 z "},"ѭ":{"ha":1394,"x_min":91,"x_max":1319,"o":"m 825 416 l 825 275 l 155 275 l 155 416 l 825 416 m 287 734 l 287 0 l 91 0 l 91 734 l 287 734 m 648 0 l 452 0 l 452 123 q 491 294 452 230 q 602 387 530 358 q 777 416 675 416 l 994 416 q 1168 387 1095 416 q 1280 294 1240 358 q 1319 123 1319 230 l 1319 0 l 1123 0 l 1123 123 q 1109 213 1123 180 q 1066 258 1095 245 q 994 271 1038 271 l 777 271 q 705 258 733 271 q 662 213 676 245 q 648 123 648 180 l 648 0 m 1155 734 l 1155 608 l 648 608 l 648 734 l 1155 734 m 850 340 l 1040 734 l 1251 734 l 976 263 l 871 263 l 850 340 m 742 734 l 934 336 l 910 263 l 806 263 l 530 734 l 742 734 m 986 355 l 986 0 l 791 0 l 791 355 l 986 355 z "},"Ѯ":{"ha":713,"x_min":5,"x_max":644,"o":"m 83 987 l 260 987 q 405 972 340 987 q 516 925 470 956 q 588 844 563 893 q 613 730 613 795 q 589 619 613 667 q 519 539 564 572 q 410 491 473 507 q 269 475 346 475 l 163 475 l 163 585 l 264 585 q 353 601 319 585 q 402 647 387 618 q 417 713 417 676 q 400 774 417 748 q 349 815 384 801 q 260 830 315 830 l 83 830 l 83 987 m 163 532 l 262 532 q 424 515 353 532 q 544 466 495 498 q 619 386 593 433 q 644 276 644 338 q 620 153 644 207 q 549 62 595 99 q 440 5 503 24 q 300 -14 378 -14 l 260 -14 q 201 -32 218 -14 q 183 -79 183 -51 q 200 -131 183 -110 q 239 -165 216 -152 q 281 -186 262 -178 l 227 -302 q 105 -252 154 -287 q 31 -167 56 -218 q 5 -54 5 -116 q 34 57 5 14 q 117 122 64 100 q 245 144 171 144 l 289 144 q 356 153 327 144 q 407 180 386 163 q 438 222 427 198 q 449 273 449 245 q 436 340 449 311 q 400 388 424 368 q 341 417 376 407 q 260 427 306 427 l 163 427 l 163 532 m 233 1307 l 333 1208 l 433 1307 l 600 1307 l 600 1300 l 395 1110 l 271 1110 l 65 1301 l 65 1307 l 233 1307 z "},"ѯ":{"ha":701,"x_min":20,"x_max":625,"o":"m 83 734 l 258 734 q 395 722 334 734 q 502 685 457 710 q 570 622 546 661 q 594 532 594 584 q 571 446 594 483 q 507 384 549 409 q 406 347 465 359 q 277 334 348 334 l 161 334 l 161 425 l 274 425 q 346 436 319 425 q 386 469 373 448 q 398 515 398 490 q 390 548 398 534 q 364 573 381 563 q 321 589 347 583 q 258 595 294 595 l 83 595 l 83 734 m 161 392 l 271 392 q 421 380 355 392 q 532 344 487 368 q 601 286 577 320 q 625 206 625 251 q 602 113 625 154 q 538 44 580 73 q 438 1 496 16 q 309 -14 380 -14 l 275 -14 q 208 -32 228 -14 q 187 -79 187 -51 q 202 -131 187 -110 q 238 -165 218 -152 q 275 -186 258 -178 l 220 -293 q 119 -241 165 -275 q 47 -160 74 -208 q 20 -54 20 -112 q 46 46 20 7 q 122 105 73 86 q 239 124 172 124 l 277 124 q 341 131 313 124 q 389 150 369 138 q 419 177 408 161 q 429 213 429 193 q 419 253 429 235 q 388 282 408 270 q 338 299 368 294 q 269 305 308 305 l 161 305 l 161 392 m 219 1047 l 319 949 l 420 1047 l 587 1047 l 587 1040 l 382 850 l 258 850 l 52 1041 l 52 1047 l 219 1047 z "},"Ѳ":{"ha":956,"x_min":62,"x_max":903,"o":"m 482 1001 q 621 980 556 1001 q 738 917 686 958 q 826 817 789 876 q 883 683 863 758 q 903 517 903 608 l 903 470 q 873 268 903 357 q 786 116 842 178 q 653 20 730 53 q 484 -14 576 -14 q 345 8 409 -14 q 228 70 280 29 q 138 170 176 111 q 81 304 101 229 q 62 470 62 380 l 62 517 q 92 719 62 630 q 179 871 123 808 q 312 968 235 935 q 482 1001 389 1001 m 482 839 q 401 823 437 839 q 337 776 364 807 q 294 700 311 745 q 271 594 277 654 q 269 575 270 585 q 269 556 269 566 l 696 556 q 695 575 696 566 q 693 594 694 585 q 670 700 687 654 q 627 776 654 745 q 563 823 600 807 q 482 839 527 839 m 484 148 q 566 164 529 148 q 629 214 602 181 q 672 294 656 246 q 694 404 689 342 q 695 419 695 411 q 696 435 696 427 l 268 435 q 269 416 269 426 q 271 399 270 407 q 294 291 277 338 q 338 212 311 244 q 402 164 365 180 q 484 148 439 148 z "},"ѳ":{"ha":784,"x_min":43,"x_max":739,"o":"m 391 747 q 539 719 474 747 q 648 641 604 691 q 715 523 692 591 q 739 374 739 454 l 739 359 q 715 211 739 279 q 648 93 692 143 q 539 14 604 42 q 392 -14 475 -14 q 243 14 309 -14 q 134 93 178 42 q 66 211 90 143 q 43 359 43 279 l 43 374 q 66 523 43 454 q 134 641 90 591 q 243 719 178 691 q 391 747 307 747 m 391 595 q 329 582 355 595 q 285 546 302 569 q 256 492 267 523 q 241 425 245 461 l 540 425 q 526 492 536 461 q 497 546 515 523 q 452 582 479 569 q 391 595 426 595 m 392 139 q 452 152 426 139 q 496 186 478 164 q 525 239 514 208 q 540 304 536 269 l 242 304 q 257 239 246 269 q 286 186 267 208 q 330 152 304 164 q 392 139 356 139 z "},"Ѵ":{"ha":892,"x_min":7,"x_max":875,"o":"m 454 261 l 595 764 q 652 893 619 840 q 734 972 686 945 q 849 1000 782 1000 l 875 999 l 873 834 l 853 834 q 818 824 833 834 q 790 796 802 814 q 771 753 778 778 l 548 0 l 399 0 l 454 261 m 222 987 l 429 264 l 486 0 l 336 0 l 7 987 l 222 987 z "},"ѵ":{"ha":709,"x_min":11,"x_max":720,"o":"m 353 274 l 417 526 q 470 648 439 599 q 547 722 502 696 q 650 748 591 748 q 687 745 670 748 q 720 735 705 743 l 703 585 q 689 587 701 586 q 669 588 677 588 q 636 579 651 588 q 609 554 621 570 q 592 517 598 538 l 435 0 l 303 0 l 353 274 m 216 734 l 325 274 l 378 0 l 246 0 l 11 734 l 216 734 z "},"Ѻ":{"ha":956,"x_min":62,"x_max":903,"o":"m 542 1069 l 542 761 l 412 761 l 412 1069 l 542 1069 m 544 223 l 544 -92 l 414 -92 l 414 223 l 544 223 m 903 517 l 903 470 q 873 268 903 357 q 786 116 842 178 q 653 20 730 53 q 484 -14 576 -14 q 345 8 409 -14 q 228 70 280 29 q 138 170 176 111 q 81 304 101 229 q 62 470 62 380 l 62 517 q 92 719 62 630 q 179 871 123 808 q 312 968 235 935 q 482 1001 389 1001 q 621 980 556 1001 q 738 917 686 958 q 826 817 789 876 q 883 683 863 758 q 903 517 903 608 m 697 470 l 697 518 q 688 631 697 581 q 661 721 679 682 q 617 786 643 760 q 557 825 591 812 q 482 839 524 839 q 391 818 431 839 q 323 757 351 798 q 281 656 296 716 q 267 518 267 597 l 267 470 q 276 357 267 408 q 303 267 286 306 q 348 201 321 228 q 408 161 374 175 q 484 148 442 148 q 575 169 535 148 q 642 231 614 190 q 683 332 669 272 q 697 470 697 392 z "},"ѻ":{"ha":783,"x_min":45,"x_max":739,"o":"m 448 817 l 448 517 l 339 517 l 339 817 l 448 817 m 444 224 l 444 -84 l 336 -84 l 336 224 l 444 224 m 45 359 l 45 374 q 68 523 45 454 q 135 641 91 591 q 243 719 179 691 q 391 747 308 747 q 540 719 475 747 q 649 641 605 691 q 716 523 693 591 q 739 374 739 454 l 739 359 q 716 211 739 279 q 649 93 693 143 q 541 14 605 42 q 393 -14 476 -14 q 244 14 309 -14 q 135 93 180 42 q 68 211 91 143 q 45 359 45 279 m 240 374 l 240 359 q 248 273 240 313 q 274 203 256 233 q 321 156 292 173 q 393 139 351 139 q 463 156 433 139 q 509 203 492 173 q 535 273 527 233 q 544 359 544 313 l 544 374 q 535 458 544 418 q 509 529 527 498 q 462 577 491 559 q 391 595 433 595 q 321 577 350 595 q 274 529 292 559 q 248 458 256 498 q 240 374 240 418 z "},"Ѽ":{"ha":1319,"x_min":81,"x_max":1221,"o":"m 947 1159 l 958 1159 l 958 1070 l 947 1070 q 841 1082 888 1070 q 753 1111 793 1095 q 679 1140 713 1128 q 617 1152 646 1152 q 565 1136 585 1152 q 545 1082 545 1119 l 545 1069 l 458 1069 l 458 1095 q 499 1206 458 1170 q 615 1242 541 1242 q 692 1230 654 1242 q 768 1201 729 1217 q 850 1172 806 1184 q 947 1159 895 1159 m 621 870 l 566 909 q 601 961 589 936 q 612 1010 612 985 l 612 1075 l 724 1075 l 724 1006 q 708 953 724 980 q 667 904 691 926 q 621 870 643 882 m 418 987 l 418 828 q 348 810 378 828 q 301 753 318 791 q 284 654 284 715 l 284 318 q 294 240 284 273 q 321 186 303 208 q 364 155 339 165 q 418 144 389 144 q 491 162 460 144 q 538 217 522 180 q 555 313 555 254 l 555 555 l 720 555 l 720 313 q 698 172 720 233 q 635 69 675 111 q 539 6 594 27 q 418 -14 484 -14 q 284 7 346 -14 q 177 71 222 28 q 106 174 131 113 q 81 318 81 236 l 81 654 q 124 838 81 764 q 245 949 168 911 q 418 987 321 987 m 883 828 l 883 987 q 1018 966 956 987 q 1125 903 1080 945 q 1196 799 1171 861 q 1221 654 1221 736 l 1221 318 q 1196 174 1221 236 q 1125 71 1171 113 q 1018 7 1080 28 q 883 -14 956 -14 q 763 6 818 -14 q 667 69 708 27 q 604 172 627 111 q 581 313 581 233 l 581 555 l 747 555 l 747 313 q 756 237 747 269 q 783 185 766 205 q 826 154 801 164 q 883 144 852 144 q 938 155 913 144 q 981 186 963 165 q 1008 240 998 208 q 1017 318 1017 273 l 1017 654 q 1008 732 1017 700 q 981 786 998 765 q 938 818 963 808 q 883 828 913 828 z "},"ѽ":{"ha":1128,"x_min":74,"x_max":1051,"o":"m 861 930 l 875 930 l 875 841 l 860 841 q 755 853 803 841 q 667 882 707 865 q 594 911 627 899 q 532 923 561 923 q 480 906 500 923 q 460 852 460 890 l 460 840 l 372 840 l 372 865 q 414 977 372 941 q 530 1013 456 1013 q 607 1000 570 1013 q 682 971 644 988 q 765 942 721 955 q 861 930 808 930 m 540 644 l 486 682 q 520 735 508 710 q 532 785 532 760 l 532 849 l 644 849 l 644 780 q 627 727 644 754 q 587 678 610 700 q 540 644 563 656 m 389 745 l 389 593 q 327 576 353 593 q 285 524 300 559 q 270 433 270 488 l 270 298 q 277 227 270 257 q 297 177 284 196 q 328 148 310 157 q 368 138 346 138 q 410 148 391 138 q 442 177 429 157 q 463 227 455 197 q 470 299 470 257 l 470 412 l 618 412 l 618 299 q 600 163 618 222 q 547 65 581 105 q 468 6 513 26 q 368 -14 422 -14 q 251 6 304 -14 q 158 65 197 26 q 96 163 118 104 q 74 298 74 221 l 74 433 q 115 605 74 536 q 227 710 156 675 q 389 745 298 745 m 736 593 l 736 745 q 862 725 804 745 q 962 666 920 705 q 1027 568 1004 627 q 1051 433 1051 510 l 1051 298 q 1029 163 1051 221 q 967 65 1007 104 q 874 6 928 26 q 757 -14 821 -14 q 657 6 703 -14 q 578 65 612 26 q 525 163 544 105 q 507 299 507 222 l 507 412 l 655 412 l 655 299 q 663 227 655 257 q 683 177 670 197 q 715 148 696 157 q 757 138 734 138 q 797 148 779 138 q 828 177 815 157 q 848 227 841 196 q 855 298 855 257 l 855 433 q 847 505 855 475 q 823 554 838 535 q 785 583 807 574 q 736 593 763 593 z "},"Ѿ":{"ha":1320,"x_min":81,"x_max":1233,"o":"m 592 1144 l 359 1144 l 359 1233 l 957 1233 l 958 1144 l 712 1144 l 712 1059 l 592 1059 l 592 1144 m 555 987 l 720 987 l 720 313 q 698 172 720 233 q 635 69 675 111 q 539 6 594 27 q 418 -14 484 -14 q 284 6 346 -14 q 177 69 222 27 q 106 172 131 111 q 81 313 81 233 l 81 987 l 284 987 l 284 313 q 294 237 284 269 q 321 185 303 205 q 364 154 339 164 q 418 144 389 144 q 491 162 460 144 q 538 217 522 180 q 555 313 555 254 l 555 987 m 1029 987 l 1233 987 l 1233 313 q 1189 133 1233 205 q 1069 23 1145 60 q 895 -14 993 -14 q 775 6 830 -14 q 679 69 720 27 q 616 172 639 111 q 593 313 593 233 l 593 987 l 759 987 l 759 313 q 768 237 759 269 q 796 185 778 205 q 840 154 814 164 q 895 144 865 144 q 967 162 937 144 q 1013 217 997 180 q 1029 313 1029 254 l 1029 987 z "},"ѿ":{"ha":1149,"x_min":68,"x_max":1093,"o":"m 516 899 l 304 899 l 304 988 l 860 988 l 864 899 l 635 899 l 635 813 l 516 813 l 516 899 m 486 734 l 645 734 l 645 299 q 625 163 645 222 q 567 65 604 105 q 479 6 530 26 q 368 -14 429 -14 q 248 6 302 -14 q 153 65 193 26 q 91 163 113 105 q 68 299 68 222 l 68 734 l 265 734 l 265 299 q 272 227 265 257 q 292 177 279 197 q 324 148 305 157 q 368 138 343 138 q 432 156 406 138 q 472 208 458 173 q 486 299 486 243 l 486 734 m 897 734 l 1093 734 l 1093 299 q 1054 127 1093 197 q 948 21 1016 57 q 792 -14 880 -14 q 682 6 732 -14 q 596 65 632 26 q 542 163 561 105 q 522 299 522 222 l 522 734 l 682 734 l 682 299 q 688 227 682 257 q 709 177 695 197 q 745 148 724 157 q 792 138 766 138 q 837 148 817 138 q 870 177 857 157 q 890 227 883 197 q 897 299 897 257 l 897 734 z "},"Ҁ":{"ha":859,"x_min":61,"x_max":810,"o":"m 441 144 l 441 -14 q 313 5 372 -14 q 207 60 254 24 q 128 147 161 96 q 78 260 95 197 q 61 395 61 323 l 61 592 q 87 757 61 682 q 164 887 114 832 q 284 972 214 942 q 441 1002 355 1002 q 640 963 557 1002 q 766 848 722 924 q 810 659 809 772 l 607 659 q 590 763 606 723 q 537 823 573 804 q 441 842 500 842 q 364 824 397 842 q 308 772 330 806 q 274 693 286 739 q 263 593 263 648 l 263 395 q 270 314 263 352 q 292 244 277 275 q 327 191 306 214 q 377 156 349 168 q 441 144 406 144 m 574 144 l 574 -245 l 372 -245 l 372 144 l 574 144 z "},"ҁ":{"ha":741,"x_min":58,"x_max":698,"o":"m 398 138 l 398 -14 q 251 14 315 -14 q 145 94 188 43 q 80 212 102 144 q 58 357 58 279 l 58 376 q 80 522 58 454 q 145 640 102 589 q 251 719 188 690 q 397 747 314 747 q 554 713 486 747 q 660 614 622 678 q 698 463 698 550 l 514 463 q 500 529 514 499 q 461 577 487 559 q 397 595 435 595 q 329 577 356 595 q 285 528 301 559 q 261 458 269 497 q 254 376 254 419 l 254 357 q 261 275 254 314 q 284 204 269 235 q 329 156 300 174 q 398 138 357 138 m 526 138 l 526 -248 l 331 -248 l 331 138 l 526 138 z "},"҂":{"ha":863,"x_min":74,"x_max":792,"o":"m 546 549 l 407 304 l 603 187 l 555 102 l 357 217 l 234 0 l 117 0 l 270 270 l 74 386 l 121 471 l 320 355 l 458 601 l 261 717 l 310 804 l 507 688 l 633 910 l 748 910 l 593 635 l 792 519 l 741 434 l 546 549 z "},"҃":{"ha":0,"x_min":-613,"x_max":-127,"o":"m -127 890 l -496 890 l -496 805 l -613 806 l -612 966 l -243 966 l -244 1040 l -127 1039 l -127 890 z "},"҄":{"ha":0,"x_min":-612,"x_max":-96,"o":"m -612 973 l -598 973 q -499 986 -544 973 q -414 1015 -454 998 q -336 1043 -374 1031 q -258 1056 -298 1056 q -139 1020 -182 1056 q -96 909 -96 984 l -96 884 l -187 884 l -187 896 q -208 950 -187 933 q -260 966 -228 966 q -325 954 -290 966 q -399 925 -359 941 q -489 896 -439 909 q -597 884 -538 884 l -612 884 l -612 973 z "},"҅":{"ha":0,"x_min":-418,"x_max":-252,"o":"m -306 886 l -418 1017 l -418 1114 l -291 1114 l -292 1006 l -252 932 l -306 886 z "},"҆":{"ha":0,"x_min":-408,"x_max":-242,"o":"m -242 1017 l -353 886 l -408 932 l -368 1006 l -368 1114 l -242 1114 l -242 1017 z "},"҈":{"ha":0,"x_min":-1008,"x_max":313,"o":"m -424 859 l -500 859 q -462 951 -500 916 q -358 987 -424 987 q -253 951 -292 987 q -215 859 -215 916 l -291 859 q -306 907 -291 886 q -358 928 -321 928 q -409 907 -394 928 q -424 859 -424 886 m -22 671 l -100 671 q -61 763 -100 728 q 43 799 -23 799 q 148 763 109 799 q 186 671 186 728 l 110 671 q 95 719 110 699 q 43 740 80 740 q -7 719 7 740 q -22 671 -22 699 m 104 330 l 27 330 q 65 422 27 387 q 170 458 104 458 q 274 422 236 458 q 313 330 313 387 l 237 330 q 222 378 237 357 q 170 399 207 399 q 119 378 134 399 q 104 330 104 357 m -30 -22 l -106 -22 q -68 70 -106 35 q 36 106 -30 106 q 141 70 102 106 q 179 -22 179 35 l 103 -22 q 88 26 103 5 q 36 47 73 47 q -15 26 1 47 q -30 -22 -30 5 m -420 -214 l -497 -214 q -459 -122 -497 -158 q -355 -87 -420 -87 q -250 -122 -288 -87 q -212 -214 -212 -158 l -288 -214 q -303 -166 -288 -187 q -355 -146 -318 -146 q -405 -166 -390 -146 q -420 -214 -420 -187 m -812 671 l -889 671 q -850 763 -889 728 q -746 799 -812 799 q -641 763 -680 799 q -603 671 -603 728 l -679 671 q -694 719 -679 699 q -746 740 -709 740 q -797 719 -782 740 q -812 671 -812 699 m -932 330 l -1008 330 q -970 422 -1008 387 q -866 458 -932 458 q -761 422 -800 458 q -723 330 -723 387 l -799 330 q -814 378 -799 357 q -866 399 -829 399 q -917 378 -901 399 q -932 330 -932 357 m -819 -22 l -896 -22 q -858 70 -896 35 q -753 106 -819 106 q -648 70 -687 106 q -610 -22 -610 35 l -686 -22 q -701 26 -686 5 q -753 47 -716 47 q -804 26 -789 47 q -819 -22 -819 5 z "},"҉":{"ha":0,"x_min":-965,"x_max":294,"o":"m -361 -41 l -269 -41 l -261 -50 l -344 -280 l -409 -280 l -361 -41 m -309 764 l -401 764 l -409 773 l -326 1002 l -261 1002 l -309 764 m 60 334 l 60 428 l 68 436 l 294 352 l 294 286 l 60 334 m -730 388 l -730 294 l -739 286 l -965 370 l -965 436 l -730 388 m -38 612 l -104 680 l -102 690 l 116 794 l 162 748 l -38 612 m -633 81 l -568 14 l -569 3 l -786 -101 l -833 -54 l -633 81 m -596 650 l -663 583 l -674 585 l -774 806 l -730 852 l -596 650 m -76 42 l -9 109 l 2 108 l 103 -113 l 58 -161 l -76 42 z "},"Ҋ":{"ha":1077,"x_min":81,"x_max":1034,"o":"m 284 320 l 681 987 l 884 987 l 884 0 l 681 0 l 681 667 l 284 0 l 81 0 l 81 987 l 284 987 l 284 320 m 582 1246 l 720 1246 q 692 1143 720 1188 q 610 1073 663 1098 q 486 1047 557 1047 q 313 1103 376 1047 q 250 1246 250 1158 l 388 1246 q 410 1183 388 1211 q 486 1156 432 1156 q 560 1183 538 1156 q 582 1246 582 1211 m 1034 134 l 1033 3 q 995 -149 1033 -73 q 900 -275 958 -226 l 798 -222 q 831 -160 815 -191 q 859 -92 848 -129 q 869 -7 869 -54 l 869 134 l 1034 134 z "},"ҋ":{"ha":903,"x_min":75,"x_max":863,"o":"m 271 273 l 517 734 l 712 734 l 712 0 l 517 0 l 517 462 l 271 0 l 75 0 l 75 734 l 271 734 l 271 273 m 494 1029 l 633 1029 q 604 925 633 970 q 523 855 576 880 q 398 829 470 829 q 225 885 289 829 q 162 1029 162 941 l 300 1029 q 322 966 300 994 q 398 938 345 938 q 473 966 451 938 q 494 1029 494 994 m 863 134 l 863 3 q 825 -149 863 -73 q 730 -275 787 -226 l 628 -222 q 661 -160 645 -191 q 688 -92 677 -129 q 699 -7 699 -54 l 699 134 l 863 134 z "},"ҍ":{"ha":775,"x_min":-18,"x_max":741,"o":"m 211 533 l 423 533 q 595 499 524 533 q 703 406 666 465 q 741 268 741 346 q 703 129 741 189 q 595 35 666 69 q 423 0 524 0 l 88 0 l 88 1097 l 285 1097 l 285 152 l 423 152 q 494 168 467 152 q 533 210 521 184 q 546 267 546 236 q 533 323 546 297 q 494 365 521 349 q 423 381 467 381 l 211 381 l 211 533 m 457 987 l 457 867 l -18 867 l -18 987 l 457 987 z "},"Ҏ":{"ha":873,"x_min":88,"x_max":843,"o":"m 530 677 l 827 350 l 760 289 l 464 616 l 530 677 m 473 352 l 221 352 l 221 511 l 473 511 q 568 530 531 511 q 621 584 604 549 q 638 662 638 618 q 621 744 638 706 q 568 805 604 782 q 473 828 531 828 l 291 828 l 291 0 l 88 0 l 88 987 l 473 987 q 672 946 589 987 q 799 831 755 904 q 843 663 843 758 q 799 498 843 568 q 672 390 755 428 q 473 352 589 352 z "},"ҏ":{"ha":783,"x_min":76,"x_max":736,"o":"m 461 311 l 722 2 l 652 -58 l 393 250 l 461 311 m 271 593 l 271 -282 l 76 -282 l 76 734 l 257 734 l 271 593 m 736 375 l 736 361 q 717 212 736 281 q 663 93 699 144 q 573 15 627 43 q 451 -14 520 -14 q 334 14 384 -14 q 251 90 285 41 q 197 204 218 139 q 166 344 177 269 l 166 381 q 197 528 177 461 q 251 644 218 595 q 334 720 285 693 q 450 747 383 747 q 573 721 519 747 q 662 645 626 694 q 717 527 699 595 q 736 375 736 458 m 541 361 l 541 375 q 532 461 541 422 q 508 531 524 501 q 464 577 491 561 q 399 594 437 594 q 331 581 359 594 q 286 544 303 568 q 259 486 268 519 q 248 409 250 452 l 248 315 q 260 245 250 277 q 287 189 269 213 q 333 152 304 165 q 401 139 361 139 q 466 156 439 139 q 509 204 492 174 q 533 275 526 235 q 541 361 541 315 z "},"Ґ":{"ha":772,"x_min":86,"x_max":743,"o":"m 743 1239 l 743 836 l 547 836 l 547 1239 l 743 1239 m 734 987 l 734 828 l 290 828 l 290 0 l 86 0 l 86 987 l 734 987 z "},"ґ":{"ha":642,"x_min":73,"x_max":602,"o":"m 602 949 l 602 581 l 406 581 l 406 949 l 602 949 m 574 734 l 574 581 l 269 581 l 269 0 l 73 0 l 73 734 l 574 734 z "},"Ҕ":{"ha":862,"x_min":89,"x_max":816,"o":"m 736 987 l 736 828 l 292 828 l 292 0 l 89 0 l 89 987 l 736 987 m 212 412 l 212 567 l 407 567 q 573 543 498 567 q 703 469 648 518 q 787 344 758 419 q 816 170 816 269 q 797 25 816 96 q 734 -103 777 -46 q 621 -195 692 -161 q 446 -229 549 -229 l 446 -83 q 538 -60 503 -83 q 590 1 573 -37 q 614 80 608 38 q 620 160 620 123 q 606 272 621 224 q 565 350 592 319 q 498 397 537 381 q 407 412 458 412 l 212 412 z "},"ҕ":{"ha":736,"x_min":73,"x_max":689,"o":"m 152 295 l 152 450 l 304 450 q 503 414 416 450 q 639 304 589 377 q 688 120 688 231 q 675 35 689 80 q 630 -55 661 -11 q 551 -135 599 -99 q 437 -193 503 -172 l 354 -66 q 429 -20 398 -47 q 476 41 460 6 q 492 120 492 76 q 469 218 492 179 q 404 276 446 256 q 304 295 362 295 l 152 295 m 574 734 l 574 581 l 269 581 l 269 0 l 73 0 l 73 734 l 574 734 z "},"Җ":{"ha":1487,"x_min":11,"x_max":1476,"o":"m 402 407 l 26 987 l 279 987 l 500 587 l 671 587 l 645 407 l 402 407 m 498 438 l 264 0 l 11 0 l 334 556 l 498 438 m 804 987 l 804 0 l 602 0 l 602 987 l 804 987 m 1373 987 l 1002 407 l 760 407 l 734 587 l 904 587 l 1120 987 l 1373 987 m 1134 0 l 905 438 l 1070 556 l 1388 0 l 1134 0 m 1476 136 l 1476 -242 l 1280 -242 l 1280 136 l 1476 136 z "},"җ":{"ha":1266,"x_min":28,"x_max":1253,"o":"m 335 277 l 30 734 l 272 734 l 428 457 l 568 457 l 545 277 l 335 277 m 431 310 l 263 0 l 28 0 l 271 404 l 431 310 m 695 734 l 695 0 l 500 0 l 500 734 l 695 734 m 1167 734 l 862 277 l 652 277 l 629 457 l 769 457 l 924 734 l 1167 734 m 933 0 l 766 310 l 931 404 l 1173 0 l 933 0 m 1253 136 l 1253 -242 l 1057 -242 l 1057 136 l 1253 136 z "},"Қ":{"ha":1031,"x_min":89,"x_max":989,"o":"m 292 987 l 292 0 l 89 0 l 89 987 l 292 987 m 874 987 l 496 408 l 247 408 l 221 589 l 387 589 l 627 987 l 874 987 m 665 0 l 388 441 l 529 587 l 906 0 l 665 0 m 989 136 l 989 -243 l 793 -243 l 793 136 l 989 136 z "},"қ":{"ha":903,"x_min":89,"x_max":863,"o":"m 284 734 l 284 0 l 89 0 l 89 734 l 284 734 m 761 734 l 445 275 l 250 275 l 226 455 l 355 455 l 513 734 l 761 734 m 522 0 l 342 310 l 512 404 l 784 0 l 522 0 m 863 136 l 863 -242 l 667 -242 l 667 136 l 863 136 z "},"Ҝ":{"ha":920,"x_min":87,"x_max":939,"o":"m 87 987 l 291 987 l 291 0 l 87 0 l 87 987 m 347 760 l 459 760 l 459 249 l 347 249 l 347 760 m 658 987 l 911 987 l 575 405 l 245 405 l 220 585 l 484 585 l 658 987 m 480 438 l 644 556 l 939 0 l 679 0 l 480 438 z "},"ҝ":{"ha":837,"x_min":88,"x_max":836,"o":"m 88 734 l 283 734 l 283 0 l 88 0 l 88 734 m 338 585 l 439 585 l 439 157 l 338 157 l 338 585 m 576 734 l 824 734 l 562 275 l 249 275 l 226 455 l 472 455 l 576 734 m 458 310 l 617 404 l 836 0 l 585 0 l 458 310 z "},"Ҡ":{"ha":1146,"x_min":25,"x_max":1165,"o":"m 416 987 l 416 834 l 25 834 l 25 987 l 416 987 m 551 987 l 551 0 l 348 0 l 348 987 l 551 987 m 1133 987 l 754 408 l 506 408 l 480 589 l 646 589 l 886 987 l 1133 987 m 923 0 l 647 441 l 787 587 l 1165 0 l 923 0 z "},"ҡ":{"ha":992,"x_min":39,"x_max":1002,"o":"m 414 734 l 414 581 l 39 581 l 39 734 l 414 734 m 502 734 l 502 0 l 307 0 l 307 734 l 502 734 m 979 734 l 663 275 l 467 275 l 444 455 l 573 455 l 731 734 l 979 734 m 740 0 l 560 310 l 730 404 l 1002 0 l 740 0 z "},"Ң":{"ha":1082,"x_min":88,"x_max":1039,"o":"m 747 585 l 747 427 l 231 427 l 231 585 l 747 585 m 292 987 l 292 0 l 88 0 l 88 987 l 292 987 m 892 987 l 892 0 l 689 0 l 689 987 l 892 987 m 1040 136 l 1040 -242 l 844 -242 l 844 136 l 1040 136 z "},"ң":{"ha":899,"x_min":75,"x_max":859,"o":"m 578 437 l 578 286 l 205 286 l 205 437 l 578 437 m 271 734 l 271 0 l 75 0 l 75 734 l 271 734 m 711 734 l 711 0 l 515 0 l 515 734 l 711 734 m 859 136 l 859 -242 l 663 -242 l 663 136 l 859 136 z "},"Ҥ":{"ha":1373,"x_min":88,"x_max":1318,"o":"m 1318 987 l 1318 835 l 890 835 l 725 987 l 1318 987 m 747 585 l 747 427 l 231 427 l 231 585 l 747 585 m 292 987 l 292 0 l 88 0 l 88 987 l 292 987 m 892 987 l 892 0 l 689 0 l 689 987 l 892 987 z "},"ҥ":{"ha":982,"x_min":73,"x_max":941,"o":"m 941 734 l 941 581 l 652 581 l 654 734 l 941 734 m 577 437 l 577 286 l 203 286 l 203 437 l 577 437 m 269 734 l 269 0 l 73 0 l 73 734 l 269 734 m 709 734 l 709 0 l 513 0 l 513 734 l 709 734 z "},"Ҧ":{"ha":1452,"x_min":89,"x_max":1404,"o":"m 892 987 l 892 0 l 689 0 l 689 828 l 292 828 l 292 0 l 89 0 l 89 987 l 892 987 m 801 411 l 801 566 l 996 566 q 1162 541 1087 566 q 1292 467 1237 517 q 1375 342 1346 417 q 1404 168 1404 268 q 1385 23 1404 94 q 1323 -105 1366 -47 q 1209 -196 1280 -162 q 1034 -230 1138 -230 l 1034 -85 q 1127 -61 1092 -85 q 1179 -1 1162 -38 q 1202 79 1196 37 q 1208 159 1208 121 q 1195 270 1209 223 q 1153 349 1181 317 q 1086 395 1126 380 q 996 411 1047 411 l 801 411 z "},"ҧ":{"ha":1201,"x_min":73,"x_max":1169,"o":"m 566 300 l 566 454 l 770 454 q 977 418 887 454 q 1117 309 1066 382 q 1168 125 1168 235 q 1155 39 1169 85 q 1110 -50 1141 -6 q 1031 -131 1079 -94 q 917 -189 983 -167 l 834 -62 q 909 -16 878 -42 q 956 45 939 11 q 972 125 972 80 q 948 222 972 184 q 878 280 923 261 q 770 300 832 300 l 566 300 m 568 734 l 568 581 l 212 581 l 212 734 l 568 734 m 269 734 l 269 0 l 73 0 l 73 734 l 269 734 m 711 734 l 711 0 l 515 0 l 515 734 l 711 734 z "},"Ҩ":{"ha":1120,"x_min":64,"x_max":1055,"o":"m 1055 142 l 1055 -9 q 805 27 917 -9 q 611 131 692 64 q 487 291 530 198 q 443 495 443 383 l 443 629 q 464 776 443 708 q 523 894 484 844 q 614 973 561 945 q 733 1001 668 1001 q 861 971 804 1001 q 961 888 919 942 q 1025 760 1002 833 q 1047 597 1047 686 l 1047 479 q 1011 285 1047 375 q 907 128 975 195 q 748 23 840 61 q 541 -14 655 -14 q 346 21 433 -14 q 195 119 258 56 q 98 267 132 182 q 64 448 64 351 l 64 591 q 90 753 64 678 q 162 883 115 827 q 275 970 210 939 q 420 1002 341 1002 l 420 836 q 361 818 387 836 q 317 766 335 800 q 290 689 299 733 q 280 592 280 644 l 280 448 q 298 330 280 384 q 349 235 315 275 q 431 173 382 195 q 541 151 479 151 q 667 176 611 151 q 763 245 724 201 q 822 350 802 290 q 843 479 843 410 l 843 620 q 836 722 843 681 q 814 788 829 763 q 780 825 800 814 q 733 836 760 836 q 691 824 709 836 q 660 788 673 812 q 641 724 648 764 q 635 631 635 685 l 635 494 q 662 355 635 419 q 743 243 690 291 q 875 169 797 196 q 1055 142 953 142 z "},"ҩ":{"ha":899,"x_min":58,"x_max":860,"o":"m 860 94 l 860 -18 q 645 11 736 -18 q 493 92 553 40 q 403 213 433 144 q 373 362 373 281 l 373 465 q 390 576 373 525 q 436 666 406 627 q 510 726 467 705 q 605 747 553 747 q 705 724 660 747 q 781 657 749 700 q 830 558 813 615 q 848 435 848 501 l 848 336 q 819 198 848 262 q 736 86 790 134 q 609 12 683 39 q 445 -14 535 -14 q 287 14 358 -14 q 164 94 216 43 q 85 213 113 144 q 58 361 58 281 l 58 425 q 79 553 58 494 q 138 655 100 612 q 231 723 177 699 q 350 747 284 747 l 350 590 q 314 575 330 587 q 287 541 298 563 q 270 491 276 519 q 264 427 264 462 l 264 361 q 276 275 264 315 q 312 206 289 235 q 369 161 336 177 q 445 145 403 145 q 531 160 492 145 q 596 202 569 175 q 637 266 623 229 q 652 347 652 303 l 652 446 q 647 502 652 476 q 633 548 642 528 q 612 579 624 568 q 583 590 600 590 q 555 580 568 590 q 534 552 543 570 q 520 510 525 534 q 515 458 515 486 l 515 353 q 538 251 515 298 q 605 168 561 203 q 713 113 649 132 q 860 94 777 94 z "},"Ҳ":{"ha":926,"x_min":14,"x_max":915,"o":"m 256 987 l 441 643 l 627 987 l 860 987 l 573 498 l 867 0 l 633 0 l 441 351 l 250 0 l 14 0 l 310 498 l 22 987 l 256 987 m 915 136 l 915 -242 l 719 -242 l 719 136 l 915 136 z "},"ҳ":{"ha":752,"x_min":15,"x_max":738,"o":"m 233 734 l 355 511 l 479 734 l 688 734 l 480 375 l 697 0 l 488 0 l 356 236 l 224 0 l 15 0 l 232 375 l 24 734 l 233 734 m 738 136 l 738 -242 l 542 -242 l 542 136 l 738 136 z "},"Ҵ":{"ha":1240,"x_min":22,"x_max":1187,"o":"m 673 987 l 673 834 l 22 834 l 22 987 l 673 987 m 1187 158 l 1174 -238 l 984 -238 l 984 0 l 903 0 l 903 158 l 1187 158 m 248 0 l 248 987 l 450 987 l 450 159 l 848 159 l 848 987 l 1052 987 l 1052 0 l 248 0 z "},"ҵ":{"ha":954,"x_min":31,"x_max":928,"o":"m 511 734 l 511 581 l 31 581 l 31 734 l 511 734 m 180 0 l 180 734 l 376 734 l 376 153 l 622 153 l 622 734 l 818 734 l 818 0 l 180 0 m 928 152 l 915 -218 l 732 -218 l 732 0 l 650 0 l 650 152 l 928 152 z "},"Ҷ":{"ha":1063,"x_min":94,"x_max":1021,"o":"m 94 987 l 298 987 l 298 684 q 318 583 298 619 q 379 531 338 546 q 481 517 420 517 q 536 519 505 517 q 601 525 568 521 q 665 535 634 530 q 715 549 695 541 l 715 390 q 665 377 695 383 q 601 367 634 371 q 536 360 568 362 q 481 358 505 358 q 277 392 363 358 q 142 498 190 426 q 94 684 94 570 l 94 987 m 673 987 l 876 987 l 876 0 l 673 0 l 673 987 m 1021 136 l 1021 -242 l 825 -242 l 825 136 l 1021 136 z "},"ҷ":{"ha":884,"x_min":60,"x_max":844,"o":"m 694 734 l 694 0 l 498 0 l 498 734 l 694 734 m 602 420 l 602 267 q 545 245 580 256 q 470 230 509 235 q 398 224 431 224 q 217 253 292 224 q 100 345 141 282 q 60 505 60 407 l 60 734 l 255 734 l 255 505 q 270 427 255 455 q 316 388 285 399 q 398 376 348 376 q 467 382 433 376 q 533 397 500 387 q 602 420 566 406 m 844 136 l 844 -242 l 648 -242 l 648 136 l 844 136 z "},"Ҹ":{"ha":943,"x_min":75,"x_max":857,"o":"m 524 717 l 524 203 l 413 203 l 413 717 l 524 717 m 75 987 l 278 987 l 278 684 q 298 583 278 619 q 360 531 319 546 q 462 517 401 517 q 516 519 485 517 q 581 525 548 521 q 645 535 614 530 q 695 549 675 541 l 695 390 q 645 377 675 383 q 582 367 615 371 q 516 360 548 362 q 462 358 485 358 q 257 392 344 358 q 122 498 170 426 q 75 684 75 570 l 75 987 m 653 987 l 857 987 l 857 0 l 653 0 l 653 987 z "},"ҹ":{"ha":779,"x_min":71,"x_max":706,"o":"m 447 560 l 447 123 l 336 123 l 336 560 l 447 560 m 706 734 l 706 0 l 510 0 l 510 734 l 706 734 m 613 420 l 613 267 q 555 245 591 256 q 481 230 520 235 q 410 224 443 224 q 228 253 304 224 q 112 345 153 282 q 71 505 71 407 l 71 734 l 267 734 l 267 505 q 281 427 267 455 q 327 388 296 399 q 410 376 359 376 q 478 382 445 376 q 545 397 511 387 q 613 420 578 406 z "},"Һ":{"ha":970,"x_min":93,"x_max":875,"o":"m 875 0 l 671 0 l 671 303 q 651 405 671 368 q 590 456 631 441 q 488 471 549 471 q 433 469 465 471 q 368 462 401 467 q 304 452 335 458 q 254 439 274 446 l 254 597 q 304 610 275 604 q 368 621 334 616 q 433 627 401 625 q 488 629 465 629 q 692 595 606 629 q 827 489 779 562 q 875 303 875 417 l 875 0 m 296 0 l 93 0 l 93 987 l 296 987 l 296 0 z "},"Ҽ":{"ha":1048,"x_min":-23,"x_max":985,"o":"m -23 734 l 112 734 q 127 651 112 686 q 175 598 143 616 q 254 579 206 579 l 254 441 q 104 477 165 441 q 9 578 42 512 q -23 734 -23 644 m 647 -16 q 450 16 534 -16 q 308 104 365 47 q 223 239 251 161 q 195 411 195 317 l 195 587 q 225 753 195 677 q 312 885 256 829 q 440 971 367 941 q 600 1000 514 1001 q 766 968 694 1000 q 887 874 838 935 q 960 728 936 814 q 985 537 985 643 l 985 431 l 343 431 l 343 588 l 782 588 l 782 610 q 772 695 782 655 q 741 764 762 734 q 684 811 719 794 q 600 828 650 828 q 512 809 550 828 q 449 758 474 791 q 410 681 423 724 q 397 587 397 637 l 397 411 q 410 312 397 358 q 452 230 423 265 q 529 176 481 195 q 647 156 577 156 q 797 171 733 156 q 898 200 861 186 l 930 39 q 878 18 916 31 q 782 -5 841 5 q 647 -16 724 -16 z "},"ҽ":{"ha":831,"x_min":-46,"x_max":817,"o":"m -46 585 l 75 585 q 113 476 75 516 q 224 435 150 435 l 224 313 q 78 346 138 313 q -15 439 17 378 q -46 585 -46 500 m 516 -14 q 362 14 430 -14 q 248 90 295 41 q 176 204 201 139 q 151 342 151 269 l 151 369 q 175 522 151 452 q 243 642 198 591 q 351 720 288 692 q 494 747 414 747 q 633 722 572 747 q 734 648 693 696 q 796 535 775 601 q 817 388 817 469 l 817 307 l 234 307 l 234 437 l 625 437 l 625 452 q 617 508 625 482 q 592 553 609 534 q 551 584 576 573 q 493 595 527 595 q 426 578 454 595 q 380 530 398 561 q 355 459 363 500 q 347 369 347 418 l 347 342 q 359 260 347 298 q 395 196 371 223 q 452 154 418 169 q 528 139 486 139 q 627 160 581 139 q 706 222 673 180 l 801 119 q 738 56 778 86 q 643 6 699 25 q 516 -14 587 -14 z "},"Ӄ":{"ha":902,"x_min":87,"x_max":878,"o":"m 291 987 l 291 0 l 87 0 l 87 987 l 291 987 m 852 987 l 450 406 l 245 406 l 220 588 l 360 588 l 600 987 l 852 987 m 267 405 l 267 565 l 469 565 q 635 541 560 565 q 765 467 711 516 q 849 342 819 417 q 878 166 878 267 q 859 24 878 95 q 797 -106 840 -47 q 681 -199 753 -164 q 503 -235 609 -235 l 503 -84 q 595 -60 561 -84 q 647 1 629 -36 q 669 80 664 39 q 675 155 675 121 q 661 266 675 219 q 621 343 648 313 q 556 390 594 374 q 469 405 518 405 l 267 405 z "},"ӄ":{"ha":793,"x_min":88,"x_max":761,"o":"m 283 734 l 283 0 l 88 0 l 88 734 l 283 734 m 761 734 l 435 275 l 249 275 l 226 455 l 345 455 l 513 734 l 761 734 m 153 275 l 153 430 l 358 430 q 564 395 475 430 q 705 289 654 360 q 755 106 755 217 q 742 21 756 66 q 697 -67 728 -24 q 619 -146 667 -110 q 505 -203 571 -182 l 422 -76 q 496 -31 466 -57 q 544 28 527 -5 q 560 106 560 62 q 536 202 561 165 q 466 257 511 239 q 358 275 420 275 l 153 275 z "},"Ӆ":{"ha":1082,"x_min":28,"x_max":1039,"o":"m 747 987 l 747 828 l 256 828 l 256 987 l 747 987 m 892 987 l 892 0 l 688 0 l 688 987 l 892 987 m 230 987 l 432 987 l 408 492 q 387 298 402 380 q 346 159 372 216 q 282 67 320 102 q 194 16 245 32 q 78 0 143 0 l 28 0 l 28 159 l 54 161 q 112 178 87 164 q 155 221 137 193 q 185 294 173 249 q 204 403 197 338 q 214 553 211 467 l 230 987 m 1039 134 l 1038 3 q 1001 -149 1038 -73 q 905 -275 963 -226 l 804 -222 q 837 -160 821 -191 q 864 -92 853 -129 q 875 -7 875 -54 l 875 134 l 1039 134 z "},"ӆ":{"ha":903,"x_min":14,"x_max":863,"o":"m 570 734 l 570 581 l 209 581 l 209 734 l 570 734 m 713 734 l 713 0 l 517 0 l 517 734 l 713 734 m 160 734 l 352 734 l 332 363 q 315 224 328 284 q 281 121 302 163 q 230 51 260 78 q 162 12 201 24 q 76 0 123 0 l 16 0 l 14 154 l 39 157 q 78 169 61 159 q 106 200 94 180 q 126 251 118 220 q 139 323 134 281 q 146 420 144 366 l 160 734 m 863 134 l 863 3 q 825 -149 863 -73 q 730 -275 787 -226 l 628 -222 q 661 -160 645 -191 q 688 -92 677 -129 q 699 -7 699 -54 l 699 134 l 863 134 z "},"Ӈ":{"ha":981,"x_min":89,"x_max":892,"o":"m 89 987 l 292 987 l 292 566 l 689 566 l 689 987 l 892 987 l 892 -22 q 861 -172 892 -111 q 770 -264 829 -233 q 629 -296 711 -296 q 579 -294 602 -296 q 528 -285 555 -292 l 538 -130 q 570 -135 554 -134 q 606 -137 585 -137 q 651 -124 633 -137 q 680 -85 670 -111 q 689 -22 689 -59 l 689 407 l 292 407 l 292 0 l 89 0 l 89 987 z "},"ӈ":{"ha":783,"x_min":73,"x_max":709,"o":"m 73 734 l 269 734 l 269 437 l 513 437 l 513 734 l 709 734 l 709 -26 q 678 -174 709 -113 q 589 -265 647 -234 q 450 -296 531 -296 q 401 -294 424 -296 q 352 -285 378 -292 l 362 -136 q 394 -142 377 -140 q 429 -144 411 -144 q 475 -130 456 -144 q 503 -90 494 -117 q 513 -26 513 -64 l 513 286 l 269 286 l 269 0 l 73 0 l 73 734 z "},"Ӊ":{"ha":1084,"x_min":88,"x_max":1041,"o":"m 747 585 l 747 427 l 231 427 l 231 585 l 747 585 m 292 987 l 292 0 l 88 0 l 88 987 l 292 987 m 892 987 l 892 0 l 689 0 l 689 987 l 892 987 m 1042 134 l 1041 3 q 1003 -149 1041 -73 q 908 -275 966 -226 l 806 -222 q 840 -160 823 -191 q 867 -92 856 -129 q 878 -7 878 -54 l 878 134 l 1042 134 z "},"ӊ":{"ha":901,"x_min":75,"x_max":861,"o":"m 578 437 l 578 286 l 205 286 l 205 437 l 578 437 m 271 734 l 271 0 l 75 0 l 75 734 l 271 734 m 711 734 l 711 0 l 515 0 l 515 734 l 711 734 m 861 134 l 861 3 q 823 -149 861 -73 q 728 -275 785 -226 l 626 -222 q 659 -160 643 -191 q 686 -92 675 -129 q 697 -7 697 -54 l 697 134 l 861 134 z "},"Ӎ":{"ha":1316,"x_min":88,"x_max":1274,"o":"m 181 987 l 353 987 l 607 262 l 861 987 l 1033 987 l 676 0 l 538 0 l 181 987 m 88 987 l 260 987 l 291 281 l 291 0 l 88 0 l 88 987 m 954 987 l 1126 987 l 1126 0 l 923 0 l 923 281 l 954 987 m 1274 134 l 1274 3 q 1236 -149 1274 -73 q 1141 -275 1198 -226 l 1039 -222 q 1072 -160 1056 -191 q 1099 -92 1088 -129 q 1110 -7 1110 -54 l 1110 134 l 1274 134 z "},"ӎ":{"ha":1151,"x_min":89,"x_max":1111,"o":"m 522 224 l 715 734 l 874 734 l 588 0 l 456 0 l 172 734 l 331 734 l 522 224 m 284 734 l 284 0 l 89 0 l 89 734 l 284 734 m 765 0 l 765 734 l 960 734 l 960 0 l 765 0 m 1111 134 l 1110 3 q 1073 -149 1110 -73 q 977 -275 1035 -226 l 876 -222 q 909 -160 892 -191 q 936 -92 925 -129 q 947 -7 947 -54 l 947 134 l 1111 134 z "},"Ә":{"ha":966,"x_min":52,"x_max":901,"o":"m 422 1002 q 631 968 541 1002 q 781 872 721 934 q 870 727 840 811 q 901 542 901 643 l 901 443 q 868 258 901 342 q 779 113 836 174 q 644 18 722 52 q 477 -14 567 -15 q 294 18 374 -14 q 161 111 214 51 q 80 257 107 172 q 52 448 52 342 l 52 557 l 752 557 l 752 397 l 255 397 l 255 376 q 267 291 255 330 q 306 221 279 251 q 374 174 332 191 q 477 157 417 157 q 574 180 532 157 q 643 241 615 202 q 685 332 671 280 q 699 443 699 384 l 699 542 q 684 653 699 602 q 637 745 669 705 q 552 807 605 785 q 422 829 500 829 q 264 814 332 829 q 157 785 197 800 l 125 946 q 180 967 140 954 q 280 991 219 981 q 422 1002 342 1002 z "},"Ӡ":{"ha":802,"x_min":54,"x_max":764,"o":"m 97 987 l 745 987 l 746 857 l 428 506 l 283 506 l 283 589 l 513 828 l 97 828 l 97 987 m 283 586 l 404 597 q 598 559 518 597 q 721 451 678 522 q 764 276 764 380 q 736 153 764 207 q 661 62 709 99 q 546 5 612 24 q 400 -14 479 -14 q 275 2 336 -14 q 163 54 214 19 q 84 143 113 89 q 54 274 54 198 l 258 274 q 275 209 258 238 q 325 162 292 179 q 400 144 357 144 q 487 162 451 144 q 542 211 522 180 q 561 279 561 241 q 539 386 561 345 q 475 446 517 427 q 372 465 433 465 l 283 465 l 283 586 z "},"ӡ":{"ha":804,"x_min":56,"x_max":760,"o":"m 92 734 l 740 734 l 741 609 l 422 251 l 282 251 l 282 334 l 513 581 l 92 581 l 92 734 m 282 331 l 401 340 q 594 303 514 340 q 717 196 675 267 q 760 22 760 125 q 733 -101 760 -47 q 658 -192 706 -155 q 544 -249 610 -229 q 399 -268 478 -268 q 275 -251 336 -268 q 164 -200 214 -235 q 85 -110 115 -165 q 56 20 56 -56 l 252 20 q 270 -48 252 -18 q 321 -97 288 -79 q 399 -115 355 -115 q 488 -97 452 -115 q 545 -46 525 -78 q 564 24 564 -15 q 542 133 564 92 q 477 193 520 174 q 372 212 435 212 l 282 212 l 282 331 z "},"Ӻ":{"ha":833,"x_min":22,"x_max":795,"o":"m 795 987 l 795 828 l 350 828 l 350 0 l 147 0 l 147 987 l 795 987 m 497 576 l 497 456 l 22 456 l 22 576 l 497 576 m 334 170 l 530 170 l 530 -26 q 499 -174 530 -113 q 410 -265 468 -234 q 272 -296 352 -296 q 222 -294 245 -296 q 174 -285 199 -292 l 183 -134 q 215 -140 198 -138 q 251 -142 231 -142 q 296 -129 277 -142 q 325 -90 315 -116 q 334 -26 334 -64 l 334 170 z "},"ӻ":{"ha":635,"x_min":12,"x_max":628,"o":"m 628 734 l 628 581 l 323 581 l 323 0 l 127 0 l 127 734 l 628 734 m 486 456 l 486 335 l 12 335 l 12 456 l 486 456 m 286 165 l 481 165 l 481 -31 q 450 -178 481 -118 q 361 -270 419 -239 q 223 -301 303 -301 q 174 -299 197 -301 q 125 -290 151 -296 l 134 -138 q 166 -144 149 -142 q 202 -146 182 -146 q 247 -134 229 -146 q 276 -95 266 -121 q 286 -31 286 -68 l 286 165 z "},"Ӽ":{"ha":973,"x_min":14,"x_max":962,"o":"m 256 987 l 441 643 l 627 987 l 860 987 l 573 498 l 867 0 l 633 0 l 441 351 l 250 0 l 14 0 l 310 498 l 22 987 l 256 987 m 766 170 l 962 170 l 962 -26 q 931 -174 962 -113 q 842 -265 900 -234 q 704 -296 784 -296 q 654 -294 677 -296 q 606 -285 631 -292 l 615 -134 q 647 -140 630 -138 q 683 -142 663 -142 q 728 -129 709 -142 q 756 -90 747 -116 q 766 -26 766 -64 l 766 170 z "},"ӽ":{"ha":799,"x_min":15,"x_max":785,"o":"m 233 734 l 355 511 l 479 734 l 688 734 l 480 375 l 697 0 l 488 0 l 356 236 l 224 0 l 15 0 l 232 375 l 24 734 l 233 734 m 589 170 l 785 170 l 785 -26 q 754 -174 785 -113 q 665 -265 723 -234 q 527 -296 607 -296 q 477 -294 500 -296 q 429 -285 454 -292 l 438 -134 q 470 -140 453 -138 q 506 -142 486 -142 q 551 -129 532 -142 q 579 -90 570 -116 q 589 -26 589 -64 l 589 170 z "},"Ԁ":{"ha":864,"x_min":49,"x_max":788,"o":"m 425 646 l 655 646 l 655 488 l 425 488 q 329 465 367 488 q 272 405 290 441 q 253 326 253 368 q 272 243 253 281 q 329 182 290 205 q 425 159 367 159 l 585 159 l 585 987 l 788 987 l 788 0 l 425 0 q 224 42 309 0 q 94 157 140 83 q 49 324 49 230 q 75 453 49 394 q 150 555 100 511 q 268 623 199 599 q 425 646 338 646 z "},"Ԃ":{"ha":1260,"x_min":79,"x_max":1199,"o":"m 454 646 l 684 646 l 684 488 l 454 488 q 358 465 397 488 q 301 405 320 441 q 283 326 283 368 q 301 243 283 281 q 358 182 320 205 q 454 159 397 159 l 614 159 l 614 987 l 818 987 l 818 0 l 454 0 q 254 42 338 0 q 124 157 170 83 q 79 324 79 230 q 105 453 79 394 q 180 555 131 511 q 298 623 229 599 q 454 646 368 646 m 865 0 l 772 0 l 772 159 l 865 159 q 942 188 915 159 q 982 258 970 216 q 995 339 994 300 q 993 401 996 366 q 985 476 990 437 q 972 551 980 515 q 954 614 964 587 l 1152 614 q 1175 528 1164 579 q 1192 427 1185 477 q 1198 339 1199 376 q 1160 165 1196 242 q 1050 44 1123 89 q 865 0 977 0 z "},"ԃ":{"ha":1185,"x_min":62,"x_max":1132,"o":"m 62 348 l 62 362 q 80 517 62 446 q 135 639 99 587 q 225 719 172 690 q 349 747 279 747 q 437 729 397 747 q 507 678 476 711 q 559 598 537 644 q 595 495 581 551 q 617 374 610 438 l 617 342 q 588 201 608 266 q 535 88 568 136 q 455 13 502 39 q 347 -14 409 -14 q 225 12 278 -14 q 135 87 172 39 q 80 202 99 136 q 62 348 62 269 m 258 362 l 258 348 q 265 264 258 302 q 288 199 272 227 q 331 155 304 171 q 396 140 357 140 q 480 162 446 140 q 533 223 514 184 q 554 313 551 262 l 554 402 q 542 480 553 445 q 511 540 531 515 q 463 580 492 566 q 397 594 435 594 q 333 576 359 594 q 289 526 306 557 q 265 452 273 494 q 258 362 258 410 m 515 253 l 515 1058 l 711 1058 l 711 253 q 721 195 711 220 q 749 155 730 169 q 793 140 767 140 q 853 156 827 141 q 897 200 879 172 q 924 269 915 229 q 935 359 934 309 q 925 495 937 427 q 894 632 914 564 l 1085 632 q 1118 497 1103 566 q 1131 359 1132 429 q 1102 194 1129 264 q 1027 78 1074 124 q 920 9 981 32 q 793 -14 860 -14 q 649 12 709 -16 q 555 98 589 39 q 515 253 521 158 z "},"Ԅ":{"ha":1094,"x_min":45,"x_max":1032,"o":"m 302 406 l 136 406 l 136 567 l 264 567 q 368 583 329 567 q 425 630 407 599 q 443 708 443 661 q 434 757 443 735 q 405 794 425 779 q 353 819 385 810 q 277 827 321 827 l 45 827 l 45 987 l 277 987 q 435 969 366 987 q 551 916 504 951 q 622 828 597 880 q 646 707 646 775 q 634 635 646 669 q 601 574 623 602 q 545 524 578 547 q 469 485 512 502 q 372 458 426 469 q 368 448 370 458 q 364 429 366 439 q 359 418 362 419 q 324 411 332 412 q 302 406 315 410 m 437 216 l 437 218 l 437 262 q 421 337 437 304 q 374 388 405 370 q 302 406 344 406 l 314 493 q 471 476 408 493 q 571 428 534 458 q 625 355 608 397 q 641 263 641 313 l 641 216 q 647 181 641 197 q 666 155 654 165 q 694 146 677 146 q 750 161 726 146 q 791 204 774 176 q 818 271 808 232 q 828 359 827 311 q 818 495 829 427 q 786 632 806 564 l 985 632 q 1018 497 1003 566 q 1031 359 1032 429 q 1001 195 1029 264 q 924 78 972 125 q 814 9 876 32 q 682 -14 751 -14 q 556 8 609 -16 q 472 82 503 31 q 437 216 442 134 z "},"ԅ":{"ha":892,"x_min":31,"x_max":882,"o":"m 281 268 l 90 268 l 88 412 l 214 412 q 274 422 251 412 q 308 450 298 432 q 319 492 319 467 q 308 537 319 517 q 274 569 298 557 q 212 581 250 581 l 35 581 l 31 734 l 212 734 q 377 708 309 734 q 479 633 444 682 q 515 515 515 584 q 504 453 515 481 q 470 404 492 426 q 415 366 448 382 q 341 338 383 350 q 337 323 339 337 q 334 295 336 309 q 331 279 333 281 q 302 273 308 275 q 281 268 297 271 m 536 174 l 536 174 q 545 127 535 146 q 584 108 555 108 q 626 121 608 109 q 657 156 644 133 q 677 211 670 178 q 685 284 684 243 q 675 392 686 336 q 644 500 665 448 l 835 500 q 867 393 852 448 q 881 284 882 338 q 856 151 880 208 q 793 57 833 94 q 702 0 753 19 q 594 -18 651 -18 q 487 -10 533 -19 q 409 18 440 -1 q 360 70 378 38 q 340 145 343 101 l 340 196 q 331 235 340 219 q 306 259 322 251 q 264 268 289 268 l 290 372 q 438 351 385 372 q 513 292 491 329 q 536 207 536 254 l 536 174 z "},"Ԇ":{"ha":817,"x_min":45,"x_max":778,"o":"m 304 395 l 89 395 l 87 547 l 254 547 q 347 564 311 547 q 402 611 384 580 q 420 687 420 642 q 402 764 420 731 q 348 816 385 798 q 256 835 312 835 l 50 835 l 45 987 l 256 987 q 449 953 368 987 q 572 854 529 919 q 616 696 616 789 q 606 625 616 658 q 576 565 595 592 q 527 515 556 537 q 460 476 498 493 q 374 447 422 459 q 371 438 373 446 q 366 421 368 430 q 362 412 364 413 q 339 405 345 408 q 328 398 333 401 q 304 395 322 395 m 270 395 l 314 492 q 500 460 433 492 q 595 371 567 428 q 623 240 623 314 l 623 168 q 627 118 623 149 q 642 60 631 88 q 672 15 652 31 l 672 0 l 471 0 q 441 52 450 18 q 429 120 431 86 q 427 170 427 154 l 427 239 q 409 323 427 288 q 356 376 391 358 q 270 395 321 395 m 778 167 l 778 36 q 741 -116 778 -39 q 645 -241 703 -193 l 544 -189 q 576 -127 560 -158 q 604 -58 593 -96 q 614 26 614 -21 l 614 167 l 778 167 z "},"ԇ":{"ha":780,"x_min":74,"x_max":752,"o":"m 332 264 l 111 264 l 110 397 l 283 397 q 350 408 323 397 q 390 439 376 418 q 404 486 404 459 q 390 534 404 513 q 350 569 376 556 q 283 583 323 583 l 79 583 l 74 734 l 283 734 q 414 718 355 734 q 514 671 473 701 q 578 597 556 640 q 601 500 601 554 q 587 431 601 462 q 547 374 574 399 q 482 330 521 349 q 392 299 443 311 q 387 290 389 298 q 381 281 384 281 q 362 274 366 278 q 355 267 359 270 q 332 264 351 264 m 288 264 l 339 357 q 502 331 443 357 q 585 260 561 305 q 610 158 610 216 l 610 107 q 611 80 610 100 q 618 40 613 60 q 633 9 623 20 l 633 0 l 431 0 q 419 32 423 9 q 415 77 416 55 q 414 108 414 99 l 414 157 q 400 216 414 193 q 358 252 386 240 q 288 264 330 264 m 752 159 l 751 28 q 714 -124 751 -48 q 619 -250 677 -201 l 517 -197 q 551 -135 534 -167 q 578 -67 567 -104 q 589 18 589 -30 l 589 159 l 752 159 z "},"Ԉ":{"ha":1340,"x_min":43,"x_max":1307,"o":"m 247 987 l 448 987 l 424 492 q 404 298 418 380 q 362 159 389 216 q 299 67 336 102 q 211 16 261 32 q 94 0 160 0 l 43 0 l 43 159 l 71 161 q 129 178 104 164 q 171 221 153 193 q 201 294 189 249 q 219 403 212 338 q 230 553 227 467 l 247 987 m 740 987 l 740 827 l 311 827 l 311 987 l 740 987 m 684 256 l 684 987 l 888 987 l 888 256 q 893 211 888 231 q 908 176 899 191 q 933 154 918 161 q 966 146 948 146 q 1023 161 998 146 q 1065 204 1048 176 q 1092 271 1082 232 q 1102 359 1101 310 q 1092 495 1103 427 q 1061 632 1081 564 l 1260 632 q 1292 497 1278 566 q 1305 359 1307 429 q 1276 194 1304 264 q 1202 78 1249 124 q 1094 9 1155 32 q 966 -14 1033 -14 q 818 13 882 -14 q 720 100 755 40 q 684 256 684 159 z "},"ԉ":{"ha":1179,"x_min":42,"x_max":1118,"o":"m 188 734 l 380 734 l 360 363 q 343 224 355 284 q 309 121 330 163 q 258 51 288 78 q 190 12 228 24 q 104 0 151 0 l 44 0 l 42 154 l 67 157 q 105 169 89 159 q 133 200 121 180 q 154 251 145 220 q 167 323 162 281 q 174 420 172 366 l 188 734 m 585 734 l 585 578 l 254 578 l 254 734 l 585 734 m 522 253 l 522 734 l 717 734 l 717 253 q 723 208 717 229 q 741 172 729 187 q 770 149 753 157 q 809 140 787 140 q 856 154 836 140 q 890 192 876 167 q 912 251 905 216 q 921 330 920 286 q 911 460 922 395 q 880 589 901 525 l 1071 589 q 1103 461 1088 526 q 1117 330 1118 396 q 1090 178 1116 243 q 1022 71 1065 114 q 925 7 980 28 q 809 -14 870 -14 q 691 1 744 -14 q 601 48 639 16 q 542 131 562 80 q 522 253 522 182 z "},"Ԋ":{"ha":1378,"x_min":88,"x_max":1305,"o":"m 231 566 l 744 566 l 744 407 l 231 407 l 231 566 m 88 987 l 292 987 l 292 0 l 88 0 l 88 987 m 684 987 l 887 987 l 887 256 q 896 199 887 224 q 923 160 905 174 q 964 146 941 146 q 1022 161 997 146 q 1064 204 1046 176 q 1090 271 1081 232 q 1101 359 1100 310 q 1091 495 1103 427 q 1059 632 1080 564 l 1259 632 q 1291 497 1276 566 q 1304 359 1305 429 q 1275 194 1303 264 q 1200 78 1247 124 q 1092 9 1153 32 q 964 -14 1031 -14 q 819 12 880 -16 q 723 99 758 39 q 684 256 688 159 l 684 987 z "},"ԋ":{"ha":1146,"x_min":62,"x_max":1106,"o":"m 549 446 l 549 292 l 199 292 l 199 446 l 549 446 m 258 734 l 258 0 l 62 0 l 62 734 l 258 734 m 509 253 l 509 734 l 705 734 l 705 253 q 711 208 705 229 q 729 172 718 187 q 759 149 741 157 q 797 140 776 140 q 844 154 823 141 q 879 192 865 168 q 901 251 893 216 q 909 330 909 286 q 900 460 911 395 q 869 589 888 525 l 1059 589 q 1092 461 1077 526 q 1105 330 1106 396 q 1079 178 1103 243 q 1011 71 1054 114 q 913 7 968 28 q 797 -14 858 -14 q 681 0 732 -15 q 592 47 629 14 q 534 131 555 79 q 509 253 513 182 z "},"Ԍ":{"ha":880,"x_min":48,"x_max":841,"o":"m 475 -14 q 301 17 380 -14 q 166 105 223 49 q 79 238 109 162 q 48 405 48 315 l 48 583 q 79 749 48 673 q 166 882 109 825 q 301 970 223 939 q 475 1002 380 1002 q 613 986 554 1002 q 718 942 673 971 l 677 795 q 584 829 633 817 q 475 841 534 841 q 381 821 423 841 q 311 765 340 801 q 267 683 281 730 q 252 584 252 637 l 252 405 q 267 304 252 351 q 311 222 281 258 q 381 166 340 186 q 475 146 423 146 q 562 165 527 146 q 616 218 597 184 q 636 299 635 252 q 628 416 637 357 q 602 533 618 475 l 800 533 q 827 417 814 476 q 839 299 841 359 q 787 123 838 193 q 654 20 736 54 q 475 -14 572 -14 z "},"ԍ":{"ha":736,"x_min":48,"x_max":701,"o":"m 415 140 q 468 151 449 141 q 495 180 487 161 q 504 223 503 198 q 501 294 504 257 q 491 364 498 330 l 682 364 q 695 294 689 330 q 700 223 701 258 q 661 90 699 142 q 560 12 624 37 q 415 -14 496 -14 q 258 15 327 -14 q 143 96 190 45 q 72 213 96 147 q 48 353 48 279 l 48 381 q 72 520 48 454 q 140 637 95 587 q 250 718 184 688 q 401 747 316 747 q 514 735 467 747 q 592 703 562 724 l 562 553 q 490 583 530 572 q 401 593 449 593 q 330 574 359 593 q 281 525 300 555 q 253 456 262 494 q 244 381 244 418 l 244 353 q 254 277 244 315 q 284 209 263 239 q 337 159 304 178 q 415 140 370 140 z "},"Ԏ":{"ha":979,"x_min":21,"x_max":935,"o":"m 802 987 l 802 827 l 21 827 l 21 987 l 802 987 m 313 256 l 313 987 l 517 987 l 517 256 q 522 212 517 231 q 537 177 527 192 q 562 154 547 162 q 594 146 576 146 q 652 161 627 146 q 694 204 677 176 q 721 271 711 232 q 731 359 730 310 q 721 495 732 427 q 690 632 709 564 l 888 632 q 921 497 907 566 q 934 359 935 429 q 905 194 932 264 q 830 78 878 124 q 722 9 783 32 q 594 -14 662 -14 q 449 12 510 -16 q 353 99 387 39 q 313 256 319 159 z "},"ԏ":{"ha":885,"x_min":45,"x_max":843,"o":"m 660 734 l 660 581 l 45 581 l 45 734 l 660 734 m 245 253 l 245 734 l 441 734 l 441 253 q 452 195 441 220 q 484 155 463 169 q 533 140 505 140 q 580 151 559 141 q 615 180 601 161 q 637 227 629 199 q 646 289 646 254 q 636 388 648 337 q 605 488 625 439 l 795 488 q 828 389 813 439 q 842 289 843 339 q 815 155 840 212 q 747 61 790 98 q 649 4 705 23 q 533 -14 594 -14 q 417 0 468 -15 q 329 47 366 14 q 271 131 292 79 q 245 253 250 182 z "},"Ԑ":{"ha":907,"x_min":71,"x_max":862,"o":"m 436 532 l 602 532 l 602 427 l 467 427 q 384 418 420 427 q 323 392 347 410 q 287 347 299 374 q 274 279 274 319 q 288 226 274 250 q 327 183 301 201 q 391 155 353 165 q 478 144 429 144 q 572 162 532 144 q 636 209 613 179 q 659 274 659 238 l 862 274 q 829 143 862 198 q 740 54 795 89 q 616 2 684 19 q 478 -14 548 -14 q 315 5 389 -14 q 185 62 240 24 q 101 153 131 99 q 71 276 71 207 q 95 386 71 338 q 166 466 119 433 q 281 515 213 498 q 436 532 349 532 m 602 473 l 436 473 q 292 493 357 473 q 182 546 228 512 q 111 625 136 580 q 85 720 85 669 q 113 842 85 789 q 193 930 141 894 q 317 984 244 966 q 478 1002 389 1002 q 662 968 578 1002 q 798 871 747 934 q 848 721 848 808 l 645 721 q 623 786 645 759 q 562 828 600 813 q 478 842 524 842 q 371 825 413 842 q 309 779 329 808 q 289 717 289 751 q 299 661 289 686 q 331 618 309 635 q 386 591 352 600 q 467 581 420 581 l 602 581 l 602 473 z "},"Ԓ":{"ha":1128,"x_min":28,"x_max":1084,"o":"m 747 987 l 747 828 l 256 828 l 256 987 l 747 987 m 892 987 l 892 0 l 688 0 l 688 987 l 892 987 m 230 987 l 432 987 l 408 492 q 387 298 402 380 q 346 159 372 216 q 282 67 320 102 q 194 16 245 32 q 78 0 143 0 l 28 0 l 28 159 l 54 161 q 112 178 87 164 q 155 221 137 193 q 185 294 173 249 q 204 403 197 338 q 214 553 211 467 l 230 987 m 889 170 l 1085 170 l 1085 -26 q 1054 -174 1085 -113 q 965 -265 1023 -234 q 827 -296 907 -296 q 777 -294 800 -296 q 728 -285 754 -292 l 738 -134 q 769 -140 753 -138 q 806 -142 786 -142 q 851 -129 832 -142 q 879 -90 869 -116 q 889 -26 889 -64 l 889 170 z "},"ԓ":{"ha":949,"x_min":14,"x_max":908,"o":"m 570 734 l 570 581 l 209 581 l 209 734 l 570 734 m 713 734 l 713 0 l 517 0 l 517 734 l 713 734 m 160 734 l 352 734 l 332 363 q 315 224 328 284 q 281 121 302 163 q 230 51 260 78 q 162 12 201 24 q 76 0 123 0 l 16 0 l 14 154 l 39 157 q 78 169 61 159 q 106 200 94 180 q 126 251 118 220 q 139 323 134 281 q 146 420 144 366 l 160 734 m 713 170 l 909 170 l 909 -26 q 878 -174 909 -113 q 788 -265 846 -234 q 650 -296 730 -296 q 601 -294 624 -296 q 552 -285 578 -292 l 562 -134 q 593 -140 576 -138 q 629 -142 610 -142 q 674 -129 656 -142 q 703 -90 693 -116 q 713 -26 713 -64 l 713 170 z "}," ":{"ha":708,"x_min":0,"x_max":0,"o":""}," ":{"ha":1417,"x_min":0,"x_max":0,"o":""}," ":{"ha":708,"x_min":0,"x_max":0,"o":""}," ":{"ha":1417,"x_min":0,"x_max":0,"o":""}," ":{"ha":473,"x_min":0,"x_max":0,"o":""}," ":{"ha":354,"x_min":0,"x_max":0,"o":""}," ":{"ha":236,"x_min":0,"x_max":0,"o":""}," ":{"ha":781,"x_min":0,"x_max":0,"o":""}," ":{"ha":380,"x_min":0,"x_max":0,"o":""}," ":{"ha":283,"x_min":0,"x_max":0,"o":""}," ":{"ha":142,"x_min":0,"x_max":0,"o":""},"​":{"ha":0,"x_min":0,"x_max":0,"o":""},"‐":{"ha":547,"x_min":78,"x_max":461,"o":"m 461 500 l 461 347 l 78 347 l 78 500 l 461 500 z "},"‑":{"ha":547,"x_min":78,"x_max":461,"o":"m 461 500 l 461 347 l 78 347 l 78 500 l 461 500 z "},"–":{"ha":876,"x_min":102,"x_max":806,"o":"m 806 562 l 806 408 l 102 408 l 102 562 l 806 562 z "},"—":{"ha":1058,"x_min":71,"x_max":1009,"o":"m 1009 562 l 1009 408 l 71 408 l 71 562 l 1009 562 z "},"‗":{"ha":618,"x_min":3,"x_max":618,"o":"m 618 -178 l 618 -280 l 3 -280 l 3 -178 l 618 -178 m 618 0 l 618 -102 l 3 -102 l 3 0 l 618 0 z "},"‘":{"ha":324,"x_min":71,"x_max":284,"o":"m 71 713 l 71 814 q 87 905 71 859 q 132 994 104 952 q 193 1065 160 1036 l 284 1012 q 242 924 260 971 q 224 814 224 878 l 224 713 l 71 713 z "},"’":{"ha":319,"x_min":41,"x_max":254,"o":"m 254 1042 l 254 939 q 238 848 254 895 q 193 759 221 801 q 132 688 165 718 l 41 741 q 83 828 66 781 q 101 938 101 876 l 101 1042 l 254 1042 z "},"‚":{"ha":345,"x_min":46,"x_max":260,"o":"m 260 154 l 259 45 q 242 -45 259 2 q 198 -133 226 -92 q 137 -204 171 -175 l 46 -152 q 86 -64 71 -111 q 101 45 101 -17 l 101 154 l 260 154 z "},"‛":{"ha":289,"x_min":49,"x_max":262,"o":"m 49 1042 l 203 1042 l 203 938 q 220 828 203 876 q 262 741 238 781 l 172 688 q 110 759 138 718 q 65 848 82 801 q 49 939 49 895 l 49 1042 z "},"“":{"ha":560,"x_min":76,"x_max":519,"o":"m 75 713 l 75 814 q 92 905 75 859 q 137 994 109 952 q 198 1065 165 1036 l 289 1012 q 247 924 264 971 q 229 814 229 878 l 229 713 l 75 713 m 306 713 l 306 814 q 323 905 306 859 q 368 994 340 952 q 429 1065 395 1036 l 519 1012 q 477 924 495 971 q 460 814 460 878 l 460 713 l 306 713 z "},"”":{"ha":565,"x_min":50,"x_max":496,"o":"m 263 1042 l 263 939 q 247 848 263 895 q 202 759 230 801 q 141 688 174 718 l 50 741 q 92 828 75 781 q 110 938 110 876 l 110 1042 l 263 1042 m 497 1042 l 497 939 q 480 848 497 895 q 436 759 464 801 q 375 688 408 718 l 283 741 q 326 828 309 781 q 344 938 344 876 l 344 1042 l 497 1042 z "},"„":{"ha":557,"x_min":46,"x_max":491,"o":"m 260 178 l 259 45 q 244 -50 259 -1 q 202 -143 229 -99 q 142 -218 176 -187 l 46 -165 q 86 -71 71 -121 q 101 45 101 -21 l 101 178 l 260 178 m 491 178 l 490 45 q 474 -50 490 -1 q 429 -143 457 -99 q 368 -218 401 -187 l 272 -165 q 314 -71 297 -121 q 332 45 332 -21 l 332 178 l 491 178 z "},"†":{"ha":747,"x_min":39,"x_max":709,"o":"m 470 987 l 470 0 l 275 0 l 275 987 l 470 987 m 709 734 l 709 576 l 39 576 l 39 734 l 709 734 z "},"‡":{"ha":804,"x_min":67,"x_max":738,"o":"m 498 987 l 498 -282 l 302 -282 l 302 987 l 498 987 m 738 734 l 738 581 l 67 581 l 67 734 l 738 734 m 738 153 l 738 0 l 67 0 l 67 153 l 738 153 z "},"•":{"ha":499,"x_min":92,"x_max":414,"o":"m 92 494 l 92 519 q 136 630 92 587 q 252 673 179 673 q 371 630 328 673 q 414 519 414 587 l 414 494 q 372 384 414 427 q 254 341 329 341 q 136 384 180 341 q 92 494 92 427 z "},"‥":{"ha":725,"x_min":91,"x_max":633,"o":"m 92 94 q 122 167 92 138 q 202 196 152 196 q 282 167 252 196 q 313 94 313 138 q 282 22 313 51 q 202 -7 252 -7 q 122 22 152 -7 q 92 94 92 51 m 412 94 q 442 167 412 138 q 522 196 472 196 q 603 167 572 196 q 633 94 633 138 q 603 22 633 51 q 522 -7 572 -7 q 442 22 472 -7 q 412 94 412 51 z "},"…":{"ha":1029,"x_min":91,"x_max":947,"o":"m 92 94 q 122 167 92 138 q 202 196 152 196 q 282 167 252 196 q 313 94 313 138 q 282 22 313 51 q 202 -7 252 -7 q 122 22 152 -7 q 92 94 92 51 m 412 94 q 442 167 412 138 q 522 196 472 196 q 603 167 572 196 q 633 94 633 138 q 603 22 633 51 q 522 -7 572 -7 q 442 22 472 -7 q 412 94 412 51 m 726 94 q 756 167 726 138 q 837 196 787 196 q 917 167 887 196 q 947 94 947 138 q 917 22 947 51 q 837 -7 887 -7 q 756 22 787 -7 q 726 94 726 51 z "},"‧":{"ha":360,"x_min":71,"x_max":290,"o":"m 71 425 q 100 495 71 467 q 180 523 130 523 q 260 495 230 523 q 290 425 290 467 q 260 354 290 382 q 180 326 230 326 q 100 354 130 326 q 71 425 71 382 z "},"‰":{"ha":1335,"x_min":61,"x_max":1290,"o":"m 61 745 l 61 797 q 86 899 61 853 q 156 973 111 945 q 264 1001 202 1001 q 380 973 332 1001 q 454 899 429 945 q 479 797 479 853 l 479 745 q 454 644 479 690 q 381 570 429 598 q 266 543 333 543 q 157 570 203 543 q 86 644 111 598 q 61 745 61 690 m 181 797 l 181 745 q 190 700 181 722 q 218 666 199 679 q 266 652 237 652 q 313 666 294 652 q 340 700 332 679 q 349 745 349 722 l 349 797 q 340 844 349 822 q 312 878 331 865 q 264 891 294 891 q 218 878 237 891 q 190 844 199 865 q 181 797 181 822 m 552 190 l 552 242 q 578 344 552 298 q 652 418 604 390 q 766 446 700 446 q 873 418 829 446 q 940 344 917 390 q 962 242 962 298 l 962 190 q 940 88 962 134 q 873 14 917 42 q 768 -14 830 -14 q 652 14 701 -14 q 578 88 604 42 q 552 190 552 134 m 682 242 l 682 190 q 693 144 682 165 q 723 109 703 122 q 768 96 742 96 q 819 109 800 96 q 844 144 837 122 q 851 190 851 165 l 851 242 q 842 288 851 267 q 813 322 832 309 q 766 336 795 336 q 719 322 738 336 q 691 288 701 309 q 682 242 682 267 m 880 190 l 880 242 q 903 344 880 298 q 970 418 926 390 q 1076 446 1014 446 q 1191 418 1143 446 q 1264 344 1239 390 q 1290 242 1290 298 l 1290 190 q 1264 88 1290 134 q 1192 14 1239 42 q 1077 -14 1144 -14 q 970 14 1015 -14 q 903 88 926 42 q 880 190 880 134 m 991 242 l 991 190 q 1002 144 991 165 q 1031 109 1013 122 q 1077 96 1050 96 q 1127 109 1109 96 q 1153 144 1145 122 q 1160 190 1160 165 l 1160 242 q 1151 288 1160 267 q 1123 322 1141 309 q 1076 336 1104 336 q 1028 322 1047 336 q 1001 288 1010 309 q 991 242 991 267 m 802 846 l 320 75 l 225 125 l 707 897 l 802 846 z "},"‹":{"ha":433,"x_min":73,"x_max":389,"o":"m 389 628 l 224 355 l 73 355 l 73 364 l 263 628 l 389 628 m 224 361 l 389 87 l 263 87 l 73 351 l 73 360 l 224 361 z "},"›":{"ha":420,"x_min":55,"x_max":371,"o":"m 55 86 l 220 360 l 371 359 l 371 351 l 181 86 l 55 86 m 55 627 l 181 627 l 371 363 l 371 355 l 220 354 l 55 627 z "},"⁄":{"ha":618,"x_min":20,"x_max":597,"o":"m 597 846 l 115 75 l 20 125 l 503 897 l 597 846 z "},"⁰":{"ha":517,"x_min":49,"x_max":468,"o":"m 468 774 l 468 663 q 441 541 468 589 q 368 469 415 492 q 259 445 321 445 q 150 469 197 445 q 76 541 102 492 q 49 663 49 589 l 49 774 q 75 898 49 849 q 149 971 102 947 q 258 995 197 995 q 368 971 320 995 q 441 898 415 947 q 468 774 468 849 m 331 659 l 331 780 q 322 842 331 819 q 297 875 313 865 q 258 886 281 886 q 220 875 236 886 q 195 842 203 865 q 186 780 186 819 l 186 659 q 195 596 186 619 q 220 564 203 574 q 259 554 237 554 q 297 564 281 554 q 322 596 313 574 q 331 659 331 619 z "},"⁴":{"ha":517,"x_min":37,"x_max":478,"o":"m 478 672 l 478 562 l 45 562 l 37 650 l 279 987 l 388 987 l 269 806 l 168 672 l 478 672 m 418 987 l 418 452 l 280 452 l 280 987 l 418 987 z "},"⁵":{"ha":517,"x_min":47,"x_max":467,"o":"m 169 685 l 60 712 l 96 987 l 437 987 l 437 881 l 208 881 l 194 786 q 229 797 203 790 q 283 804 255 804 q 384 784 343 804 q 446 725 425 764 q 467 632 467 687 q 445 542 467 585 q 376 472 422 499 q 258 445 330 445 q 157 464 205 445 q 79 519 109 483 q 47 604 49 555 l 186 604 q 206 565 186 576 q 258 554 226 554 q 315 577 301 554 q 330 632 330 601 q 309 690 330 669 q 248 711 289 711 q 196 702 213 711 q 169 685 178 692 z "},"⁶":{"ha":517,"x_min":48,"x_max":479,"o":"m 364 998 l 387 998 l 387 888 l 380 888 q 282 875 326 888 q 211 826 237 862 q 185 721 185 790 l 185 640 q 195 591 185 610 q 222 563 204 572 q 266 553 240 553 q 305 564 288 553 q 332 592 322 574 q 342 631 342 610 q 321 685 342 668 q 264 702 300 702 q 218 693 238 702 q 188 671 199 684 q 178 647 178 659 l 142 663 q 160 729 141 695 q 217 786 180 763 q 309 810 255 810 q 402 787 364 810 q 460 724 440 764 q 479 631 479 684 q 453 535 479 577 q 379 469 426 494 q 270 445 332 445 q 157 468 207 445 q 77 540 106 492 q 48 663 48 588 l 48 698 q 74 836 48 779 q 144 928 99 892 q 245 981 189 964 q 364 998 302 998 z "},"⁷":{"ha":517,"x_min":35,"x_max":468,"o":"m 468 987 l 468 911 l 243 452 l 98 452 l 323 878 l 35 878 l 35 987 l 468 987 z "},"⁸":{"ha":517,"x_min":49,"x_max":469,"o":"m 469 600 q 441 514 469 549 q 367 462 414 479 q 259 445 320 445 q 152 462 199 445 q 76 514 104 479 q 49 600 49 549 q 76 682 49 648 q 151 733 104 715 q 258 751 199 751 q 366 733 318 751 q 441 682 414 715 q 469 600 469 648 m 332 613 q 322 645 332 633 q 296 664 313 658 q 258 671 279 671 q 221 664 237 671 q 196 645 205 658 q 186 613 186 633 q 196 581 186 595 q 221 561 205 568 q 259 554 238 554 q 297 561 281 554 q 322 581 313 568 q 332 613 332 595 m 456 844 q 431 769 456 800 q 361 720 406 737 q 259 703 317 703 q 157 720 202 703 q 86 769 112 737 q 61 844 61 800 q 86 927 61 893 q 157 978 112 961 q 258 996 201 996 q 361 978 316 996 q 431 927 406 961 q 456 844 456 893 m 318 834 q 311 863 318 851 q 291 880 304 874 q 258 886 278 886 q 214 873 229 886 q 199 834 199 859 q 205 806 199 819 q 226 787 212 793 q 259 780 239 780 q 303 795 289 780 q 318 834 318 810 z "},"⁹":{"ha":517,"x_min":46,"x_max":465,"o":"m 146 552 l 155 552 q 248 563 210 552 q 307 605 286 574 q 328 696 328 636 l 328 803 q 319 851 328 833 q 295 878 311 869 q 256 886 279 886 q 217 874 233 886 q 193 843 201 863 q 184 800 184 823 q 193 759 184 775 q 219 733 201 742 q 262 724 236 724 q 304 732 288 724 q 329 753 321 741 q 336 774 337 766 l 379 760 q 358 693 380 725 q 301 643 336 662 q 224 623 265 623 q 130 643 170 623 q 68 703 90 663 q 46 801 46 743 q 73 898 46 854 q 148 969 100 942 q 256 996 195 996 q 361 972 313 996 q 437 901 409 949 q 465 776 465 853 l 465 739 q 442 598 465 654 q 377 508 418 541 q 279 459 335 474 q 157 444 222 444 l 146 444 l 146 552 z "},"⁺":{"ha":561,"x_min":54,"x_max":507,"o":"m 507 741 l 507 626 l 54 626 l 54 741 l 507 741 m 342 924 l 342 444 l 218 444 l 218 924 l 342 924 z "},"⁻":{"ha":509,"x_min":54,"x_max":455,"o":"m 455 742 l 455 627 l 54 627 l 54 742 l 455 742 z "},"⁼":{"ha":509,"x_min":54,"x_max":455,"o":"m 455 642 l 455 526 l 54 526 l 54 642 l 455 642 m 455 840 l 455 725 l 54 725 l 54 840 l 455 840 z "},"⁽":{"ha":359,"x_min":55,"x_max":305,"o":"m 55 654 l 55 665 q 85 856 55 774 q 159 989 115 937 q 248 1061 203 1042 l 305 974 q 256 908 279 947 q 217 811 232 869 q 203 665 203 753 l 203 653 q 212 536 203 586 q 235 451 220 487 q 268 388 250 414 q 305 343 286 362 l 248 257 q 180 305 214 272 q 118 389 146 338 q 73 506 90 439 q 55 654 55 572 z "},"⁾":{"ha":359,"x_min":54,"x_max":304,"o":"m 304 665 l 304 654 q 274 463 304 545 q 200 329 245 381 q 111 257 156 277 l 54 343 q 103 407 79 369 q 141 505 126 445 q 157 653 157 564 l 157 665 q 148 780 157 730 q 125 864 140 829 q 92 927 111 900 q 54 974 74 954 l 111 1061 q 178 1013 144 1046 q 241 930 212 980 q 287 813 269 880 q 304 665 304 746 z "},"ⁿ":{"ha":581,"x_min":58,"x_max":524,"o":"m 201 870 l 201 444 l 58 444 l 58 986 l 171 986 l 201 870 m 184 731 l 153 730 q 166 836 153 787 q 203 919 178 884 q 263 975 228 955 q 345 994 299 994 q 441 973 401 994 q 503 905 481 951 q 524 786 524 859 l 524 444 l 382 444 l 382 744 q 372 821 382 792 q 342 861 361 849 q 294 873 322 873 q 230 854 254 873 q 195 804 206 836 q 184 731 184 772 z "},"₀":{"ha":517,"x_min":49,"x_max":468,"o":"m 468 76 l 468 -35 q 441 -158 468 -109 q 368 -230 415 -206 q 259 -254 321 -254 q 150 -230 197 -254 q 76 -158 102 -206 q 49 -35 49 -109 l 49 76 q 75 199 49 151 q 149 272 102 248 q 258 296 197 296 q 368 272 320 296 q 441 199 415 248 q 468 76 468 151 m 331 -40 l 331 81 q 322 143 331 120 q 297 177 313 166 q 258 187 281 187 q 220 177 236 187 q 195 143 203 166 q 186 81 186 120 l 186 -40 q 195 -102 186 -79 q 220 -135 203 -125 q 259 -144 237 -144 q 297 -135 281 -144 q 322 -102 313 -125 q 331 -40 331 -79 z "},"₁":{"ha":517,"x_min":93,"x_max":358,"o":"m 358 288 l 358 -245 l 220 -245 l 220 131 l 93 102 l 93 207 l 345 288 l 358 288 z "},"₂":{"ha":517,"x_min":39,"x_max":469,"o":"m 469 -137 l 469 -245 l 51 -245 l 51 -155 l 245 21 q 286 65 270 44 q 309 102 301 85 q 317 130 317 119 q 300 172 317 156 q 251 189 283 189 q 195 166 214 189 q 176 112 176 143 l 39 112 q 64 205 39 163 q 135 272 89 247 q 245 298 181 298 q 358 278 311 298 q 430 220 405 258 q 454 130 454 183 q 438 59 454 91 q 389 -4 422 27 q 307 -74 357 -35 l 231 -137 l 469 -137 z "},"₃":{"ha":517,"x_min":33,"x_max":470,"o":"m 185 73 l 245 73 q 289 80 272 73 q 314 102 306 88 q 323 134 323 116 q 307 172 323 155 q 250 189 290 189 q 201 177 221 189 q 180 145 180 165 l 43 145 q 71 229 43 195 q 146 280 100 262 q 245 298 192 298 q 358 280 309 298 q 433 228 406 262 q 460 144 460 194 q 435 74 460 103 q 366 28 410 44 q 268 13 323 13 l 185 13 l 185 73 m 185 -18 l 185 40 l 268 40 q 373 27 328 40 q 444 -15 418 14 q 470 -96 470 -45 q 440 -180 470 -145 q 360 -234 411 -216 q 245 -253 309 -253 q 147 -237 196 -253 q 65 -183 98 -220 q 33 -86 33 -146 l 172 -86 q 194 -126 172 -109 q 254 -144 216 -144 q 314 -126 296 -144 q 332 -83 332 -108 q 322 -45 332 -59 q 292 -24 311 -31 q 245 -18 273 -18 l 185 -18 z "},"₄":{"ha":517,"x_min":37,"x_max":478,"o":"m 478 -26 l 478 -136 l 45 -136 l 37 -47 l 279 290 l 388 290 l 269 108 l 168 -26 l 478 -26 m 418 290 l 418 -245 l 280 -245 l 280 290 l 418 290 z "},"₅":{"ha":517,"x_min":47,"x_max":467,"o":"m 169 -13 l 60 14 l 96 290 l 437 290 l 437 183 l 208 183 l 194 88 q 229 99 203 92 q 283 106 255 106 q 384 86 343 106 q 446 27 425 66 q 467 -66 467 -11 q 445 -156 467 -113 q 376 -226 422 -199 q 258 -253 330 -253 q 157 -234 205 -253 q 79 -179 109 -215 q 47 -94 49 -143 l 186 -94 q 206 -133 186 -121 q 258 -144 226 -144 q 315 -120 301 -144 q 330 -66 330 -97 q 309 -8 330 -29 q 248 14 289 14 q 196 4 213 14 q 169 -13 178 -5 z "},"₆":{"ha":517,"x_min":48,"x_max":479,"o":"m 364 300 l 387 300 l 387 190 l 380 190 q 282 177 326 190 q 211 128 237 164 q 185 23 185 92 l 185 -58 q 195 -107 185 -87 q 222 -135 204 -126 q 266 -144 240 -144 q 305 -134 288 -144 q 332 -105 322 -123 q 342 -66 342 -87 q 321 -13 342 -30 q 264 4 300 4 q 218 -5 238 4 q 188 -27 199 -14 q 178 -51 178 -39 l 142 -35 q 160 31 141 -3 q 217 89 180 65 q 309 112 255 112 q 402 89 364 112 q 460 26 440 66 q 479 -67 479 -14 q 453 -162 479 -121 q 379 -229 426 -204 q 270 -253 332 -253 q 157 -230 207 -253 q 77 -158 106 -206 q 48 -35 48 -110 l 48 0 q 74 138 48 81 q 144 231 99 195 q 245 283 189 267 q 364 300 302 300 z "},"₇":{"ha":517,"x_min":35,"x_max":468,"o":"m 468 290 l 468 214 l 243 -245 l 98 -245 l 323 180 l 35 180 l 35 290 l 468 290 z "},"₈":{"ha":517,"x_min":49,"x_max":469,"o":"m 469 -98 q 441 -184 469 -149 q 367 -236 414 -219 q 259 -253 320 -253 q 152 -236 199 -253 q 76 -184 104 -219 q 49 -98 49 -149 q 76 -16 49 -50 q 151 36 104 18 q 258 54 199 54 q 366 36 318 54 q 441 -16 414 18 q 469 -98 469 -50 m 332 -85 q 322 -53 332 -65 q 296 -34 313 -40 q 258 -27 279 -27 q 221 -34 237 -27 q 196 -53 205 -40 q 186 -85 186 -65 q 196 -117 186 -103 q 221 -137 205 -130 q 259 -144 238 -144 q 297 -137 281 -144 q 322 -117 313 -130 q 332 -85 332 -103 m 456 146 q 431 71 456 102 q 361 22 406 39 q 259 5 317 5 q 157 22 202 5 q 86 71 112 39 q 61 146 61 102 q 86 229 61 195 q 157 280 112 263 q 258 298 201 298 q 361 280 316 298 q 431 229 406 263 q 456 146 456 195 m 318 136 q 311 165 318 153 q 291 182 304 176 q 258 189 278 189 q 214 175 229 189 q 199 136 199 161 q 205 108 199 121 q 226 89 212 96 q 259 82 239 82 q 303 97 289 82 q 318 136 318 112 z "},"₉":{"ha":517,"x_min":46,"x_max":465,"o":"m 146 -146 l 155 -146 q 248 -135 210 -146 q 307 -93 286 -124 q 328 -1 328 -62 l 328 105 q 319 153 328 135 q 295 180 311 172 q 256 189 279 189 q 217 177 233 189 q 193 145 201 165 q 184 102 184 125 q 193 61 184 77 q 219 35 201 44 q 262 26 236 26 q 304 35 288 26 q 329 56 321 43 q 336 77 337 68 l 379 62 q 358 -4 380 27 q 301 -55 336 -36 q 224 -75 265 -75 q 130 -55 170 -75 q 68 5 90 -35 q 46 103 46 45 q 73 200 46 157 q 148 271 100 244 q 256 298 195 298 q 361 275 313 298 q 437 203 409 252 q 465 78 465 155 l 465 41 q 442 -100 465 -43 q 377 -190 418 -157 q 279 -239 335 -224 q 157 -254 222 -254 l 146 -254 l 146 -146 z "},"₊":{"ha":561,"x_min":54,"x_max":507,"o":"m 507 64 l 507 -52 l 54 -52 l 54 64 l 507 64 m 342 246 l 342 -234 l 218 -234 l 218 246 l 342 246 z "},"₋":{"ha":509,"x_min":54,"x_max":455,"o":"m 455 64 l 455 -51 l 54 -51 l 54 64 l 455 64 z "},"₌":{"ha":509,"x_min":54,"x_max":455,"o":"m 455 -36 l 455 -151 l 54 -151 l 54 -36 l 455 -36 m 455 163 l 455 47 l 54 47 l 54 163 l 455 163 z "},"₍":{"ha":359,"x_min":55,"x_max":305,"o":"m 55 10 l 55 21 q 85 202 55 125 q 159 329 115 279 q 248 397 203 378 l 305 310 q 256 249 279 285 q 217 158 232 212 q 203 22 203 103 l 203 9 q 218 -126 203 -72 q 257 -216 233 -181 q 305 -275 281 -251 l 248 -361 q 180 -316 214 -347 q 118 -238 146 -285 q 73 -129 90 -191 q 55 10 55 -66 z "},"₎":{"ha":359,"x_min":54,"x_max":304,"o":"m 304 28 l 304 17 q 274 -164 304 -86 q 200 -292 245 -243 q 111 -361 156 -342 l 54 -274 q 103 -215 79 -250 q 141 -123 126 -179 q 157 16 157 -67 l 157 29 q 142 162 157 109 q 104 250 127 215 q 54 310 81 286 l 111 397 q 179 353 145 383 q 241 275 212 322 q 287 166 269 229 q 304 28 304 104 z "},"₤":{"ha":825,"x_min":69,"x_max":787,"o":"m 787 0 l 69 0 l 69 159 l 787 159 l 787 0 m 371 705 l 388 294 q 360 179 389 227 q 262 101 332 132 l 134 159 q 166 183 155 164 q 179 230 176 203 q 182 283 182 257 l 169 705 q 207 864 169 798 q 314 965 245 930 q 475 1000 383 1000 q 643 965 574 1000 q 747 867 711 930 q 783 720 783 804 l 589 720 q 574 792 589 765 q 532 830 558 819 q 475 842 506 842 q 421 827 445 842 q 385 781 398 811 q 371 705 371 750 m 570 605 l 570 500 l 70 500 l 70 605 l 570 605 m 570 423 l 570 318 l 70 318 l 70 423 l 570 423 z "},"₦":{"ha":1129,"x_min":26,"x_max":1104,"o":"m 1104 667 l 1104 560 l 26 560 l 26 667 l 1104 667 m 1104 450 l 1104 342 l 26 342 l 26 450 l 1104 450 m 965 987 l 965 0 l 763 0 l 366 662 l 366 0 l 162 0 l 162 987 l 366 987 l 763 325 l 763 987 l 965 987 z "},"₧":{"ha":1197,"x_min":96,"x_max":1121,"o":"m 372 353 l 233 353 l 233 517 l 372 517 q 464 539 430 517 q 512 598 497 562 q 526 673 526 634 q 512 746 526 712 q 464 802 497 781 q 372 823 430 823 l 302 823 l 302 0 l 96 0 l 96 987 l 372 987 q 571 947 491 987 q 692 835 652 906 q 732 675 732 764 q 692 510 732 583 q 571 395 652 437 q 372 353 491 353 m 1113 734 l 1113 595 l 685 595 l 685 734 l 1113 734 m 791 915 l 987 915 l 987 221 q 995 172 987 189 q 1021 149 1004 155 q 1063 142 1038 142 q 1096 144 1082 142 q 1121 148 1110 146 l 1121 4 q 1067 -9 1097 -4 q 1002 -14 1038 -14 q 890 8 938 -14 q 817 77 843 29 q 791 201 791 124 l 791 915 z "},"₨":{"ha":1508,"x_min":88,"x_max":1457,"o":"m 88 987 l 456 987 q 651 954 570 987 q 777 853 733 920 q 821 690 821 787 q 794 554 821 610 q 719 459 768 497 q 606 399 671 422 l 541 366 l 221 366 l 220 524 l 458 524 q 547 543 511 524 q 600 596 582 562 q 618 675 618 630 q 600 757 618 722 q 547 810 583 791 q 456 828 511 828 l 292 828 l 292 0 l 88 0 l 88 987 m 640 0 l 415 440 l 630 441 l 858 9 l 858 0 l 640 0 m 1267 203 q 1255 241 1267 224 q 1210 272 1242 258 q 1115 299 1177 287 q 1011 330 1059 311 q 929 375 964 349 q 874 438 894 401 q 854 521 854 474 q 874 608 854 567 q 932 680 895 648 q 1024 729 970 711 q 1147 747 1079 747 q 1312 717 1243 747 q 1418 633 1381 686 q 1455 512 1455 580 l 1259 512 q 1247 563 1259 541 q 1211 599 1236 586 q 1147 612 1186 612 q 1090 601 1114 612 q 1054 571 1067 590 q 1042 530 1042 553 q 1049 500 1042 513 q 1072 476 1056 487 q 1115 456 1088 465 q 1179 439 1141 447 q 1321 397 1259 423 q 1420 327 1383 371 q 1457 210 1457 282 q 1435 121 1457 161 q 1373 50 1413 80 q 1275 3 1332 20 q 1148 -14 1219 -14 q 975 23 1046 -14 q 868 116 904 60 q 831 233 831 173 l 1017 233 q 1037 168 1018 193 q 1087 133 1057 144 q 1152 122 1117 122 q 1215 133 1190 122 q 1254 161 1240 143 q 1267 203 1267 179 z "},"₩":{"ha":1128,"x_min":26,"x_max":1102,"o":"m 1102 777 l 1102 670 l 26 670 l 26 777 l 1102 777 m 1102 576 l 1102 470 l 26 470 l 26 576 l 1102 576 m 362 0 l 353 164 l 474 987 l 583 987 l 610 832 l 478 0 l 362 0 m 282 987 l 401 160 l 401 0 l 271 0 l 80 987 l 282 987 m 724 0 l 724 163 l 841 987 l 1043 987 l 852 0 l 724 0 m 649 987 l 773 161 l 762 0 l 645 0 l 511 834 l 542 987 l 649 987 z "},"₪":{"ha":1211,"x_min":76,"x_max":1136,"o":"m 76 734 l 585 734 q 706 718 656 734 q 786 667 755 701 q 829 580 816 633 q 842 456 842 528 l 842 246 l 647 246 l 647 456 q 638 520 647 496 q 613 558 629 545 q 573 576 596 572 q 521 581 549 581 l 271 581 l 271 0 l 76 0 l 76 734 m 744 0 l 368 0 l 368 488 l 564 488 l 564 153 l 814 153 q 880 161 852 153 q 924 197 909 170 q 940 277 940 224 l 940 734 l 1136 734 l 1136 278 q 1102 154 1136 206 q 1011 67 1068 101 q 885 16 955 33 q 744 0 816 0 z "},"€":{"ha":797,"x_min":60,"x_max":741,"o":"m 589 144 q 655 150 623 144 q 717 166 688 155 l 741 7 q 657 -7 701 -2 q 568 -13 613 -13 q 410 11 482 -13 q 286 82 338 35 q 204 201 233 130 q 175 367 175 272 l 175 601 q 204 774 175 700 q 288 899 234 849 q 417 975 342 949 q 583 1000 492 1000 q 662 995 623 1000 q 741 979 702 989 l 717 820 q 657 836 690 830 q 593 842 625 842 q 503 828 543 842 q 435 786 463 814 q 393 711 408 757 q 379 602 379 666 l 379 367 q 394 261 379 304 q 437 193 409 218 q 503 156 465 168 q 589 144 542 144 m 606 639 l 606 538 l 60 538 l 60 639 l 606 639 m 606 452 l 606 352 l 60 352 l 60 452 l 606 452 z "},"₱":{"ha":1036,"x_min":26,"x_max":1010,"o":"m 1010 794 l 1010 688 l 26 688 l 26 794 l 1010 794 m 1010 642 l 1010 534 l 26 534 l 26 642 l 1010 642 m 524 352 l 273 352 l 273 511 l 524 511 q 619 530 583 511 q 673 584 656 549 q 690 662 690 618 q 673 744 690 706 q 619 805 656 782 q 524 828 583 828 l 343 828 l 343 0 l 140 0 l 140 987 l 524 987 q 724 946 641 987 q 851 831 806 904 q 895 663 895 758 q 851 498 895 568 q 724 390 806 428 q 524 352 641 352 z "},"₹":{"ha":730,"x_min":28,"x_max":703,"o":"m 702 740 l 667 608 l 28 608 l 63 740 l 702 740 m 374 0 l 47 387 l 47 503 l 206 503 q 298 525 262 503 q 351 584 334 547 q 369 666 369 621 q 353 750 369 713 q 300 807 336 787 q 205 828 264 828 l 28 828 l 68 987 l 205 987 q 408 951 327 987 q 530 845 490 914 q 571 679 571 777 q 544 529 571 593 q 458 423 517 465 q 302 364 399 381 l 597 9 l 597 0 l 374 0 m 703 987 l 668 857 l 138 857 l 174 987 l 703 987 z "},"₺":{"ha":822,"x_min":26,"x_max":770,"o":"m 352 987 l 352 0 l 149 0 l 149 987 l 352 987 m 566 518 l 770 518 l 770 469 q 740 268 770 357 q 652 116 709 178 q 518 20 595 53 q 349 -14 441 -14 q 239 -9 288 -14 q 149 0 189 -5 l 349 149 q 441 169 401 149 q 510 230 482 190 q 551 331 537 271 q 566 469 566 391 l 566 518 m 482 902 l 482 761 l 26 606 l 26 747 l 482 902 m 482 677 l 482 537 l 26 382 l 26 523 l 482 677 z "},"₼":{"ha":949,"x_min":46,"x_max":903,"o":"m 903 0 l 707 0 l 707 117 q 697 232 707 180 q 666 323 686 283 q 616 389 645 362 q 552 429 588 416 q 474 443 516 443 q 379 421 422 443 q 306 359 336 400 q 258 257 275 317 q 242 117 242 196 l 242 0 l 46 0 l 46 115 q 78 317 46 228 q 168 469 110 406 q 303 565 225 532 q 474 598 382 598 q 613 577 548 598 q 732 514 679 555 q 823 414 785 473 q 882 280 861 355 q 903 115 903 205 l 903 0 m 572 734 l 572 0 l 376 0 l 376 734 l 572 734 z "},"₽":{"ha":980,"x_min":36,"x_max":928,"o":"m 555 352 l 36 352 l 36 511 l 551 511 q 651 530 614 511 q 706 585 689 550 q 723 665 723 620 q 705 746 723 709 q 650 805 687 783 q 556 828 613 828 l 376 828 l 376 0 l 173 0 l 173 987 l 555 987 q 755 946 672 987 q 883 832 838 905 q 928 666 928 760 q 882 497 928 568 q 753 389 836 427 q 555 352 670 352 m 593 296 l 593 138 l 36 138 l 36 296 l 593 296 z "},"℅":{"ha":1020,"x_min":67,"x_max":966,"o":"m 339 721 l 469 721 q 446 633 469 674 q 380 568 424 593 q 270 543 336 543 q 159 570 204 543 q 91 644 114 598 q 67 745 67 690 l 67 798 q 90 900 67 854 q 158 974 113 946 q 269 1002 203 1002 q 379 977 334 1002 q 446 910 424 951 q 469 822 469 869 l 339 822 q 321 870 339 848 q 269 892 304 892 q 229 879 244 892 q 205 844 213 865 q 197 798 197 823 l 197 745 q 205 700 197 722 q 229 666 213 679 q 270 652 245 652 q 322 675 305 652 q 339 721 339 698 m 537 190 l 537 242 q 562 344 537 298 q 634 418 587 390 q 752 446 682 446 q 870 418 823 446 q 942 344 918 390 q 966 242 966 298 l 966 190 q 942 88 966 134 q 871 14 918 42 q 753 -14 823 -14 q 635 14 683 -14 q 562 88 587 42 q 537 190 537 134 m 667 242 l 667 190 q 678 144 667 165 q 708 109 689 122 q 753 96 728 96 q 804 109 786 96 q 830 144 823 122 q 837 190 837 165 l 837 242 q 827 288 837 267 q 799 322 818 309 q 752 336 781 336 q 705 322 724 336 q 677 288 686 309 q 667 242 667 267 m 791 846 l 309 75 l 214 125 l 696 897 l 791 846 z "},"ℓ":{"ha":686,"x_min":26,"x_max":638,"o":"m 505 163 l 505 -14 q 349 7 415 -14 q 240 70 283 29 q 175 166 197 110 q 154 292 154 223 l 154 714 q 172 843 154 786 q 222 938 189 899 q 302 998 256 977 q 408 1019 349 1019 q 500 1003 458 1019 q 573 956 542 987 q 621 883 604 926 q 638 785 638 840 l 638 757 q 612 634 638 699 q 535 510 586 570 q 410 400 484 449 q 240 322 336 351 q 26 293 144 293 l 26 418 q 224 449 142 418 q 359 531 307 480 q 437 641 412 581 q 463 755 463 700 l 463 785 q 459 816 463 802 q 448 839 455 829 q 432 854 441 849 q 413 860 423 860 q 391 853 401 860 q 374 831 381 846 q 363 794 367 817 q 360 743 360 772 l 360 330 q 367 260 360 291 q 391 208 374 229 q 436 175 408 186 q 505 163 464 163 z "},"№":{"ha":1408,"x_min":87,"x_max":1337,"o":"m 1303 382 l 1303 283 l 899 283 l 899 382 l 1303 382 m 869 707 l 869 755 q 898 880 869 825 q 979 967 926 935 q 1103 998 1031 998 q 1227 967 1175 998 q 1308 880 1280 935 q 1337 755 1337 825 l 1337 707 q 1309 583 1337 637 q 1228 497 1280 528 q 1104 465 1176 465 q 979 497 1031 465 q 898 583 926 528 q 869 707 869 637 m 985 755 l 985 707 q 998 634 985 667 q 1037 582 1010 602 q 1104 563 1064 563 q 1170 582 1143 563 q 1208 634 1196 602 q 1221 707 1221 667 l 1221 755 q 1208 828 1221 795 q 1169 880 1195 861 q 1103 900 1143 900 q 1037 880 1063 900 q 998 828 1010 861 q 985 755 985 795 m 786 987 l 786 0 l 570 0 l 283 655 l 283 0 l 87 0 l 87 987 l 302 987 l 589 332 l 589 987 l 786 987 z "}}}
